<svg xmlns="http://www.w3.org/2000/svg" width="179" height="59" fill="none"><g clip-path="url(#a)"><path fill="#1F1F1F" d="M178.165 52.583c0 3.27-2.33 5.799-5.071 5.799H5.071C2.33 58.382 0 55.854 0 52.582V6.193c0-3.124 2.33-5.8 5.07-5.8h167.887c2.878 0 5.071 2.676 5.071 5.799z"/><path fill="#FEFEFE" d="M39.06 29.09c0-4.61 3.563-6.988 3.7-6.988-2.056-3.271-5.208-3.569-6.305-3.717-2.603-.298-5.207 1.635-6.578 1.635-1.37 0-3.426-1.635-5.619-1.635-2.878 0-5.482 1.784-6.99 4.609-3.015 5.65-.822 14.125 2.193 18.735 1.508 2.23 3.152 4.758 5.345 4.758C27 46.338 27.821 45 30.426 45c2.603 0 3.426 1.487 5.618 1.487 2.33 0 3.838-2.23 5.208-4.61 1.645-2.527 2.33-5.204 2.33-5.204 0-.148-4.386-1.933-4.523-7.583M34.81 15.262a8.94 8.94 0 0 0 1.782-5.948c-1.644.15-3.837 1.339-5.07 2.826-1.097 1.338-2.056 3.568-1.782 5.65 1.918.297 3.837-.892 5.07-2.528M70.58 46.04h-3.014l-1.645-5.65h-5.756l-1.645 5.65h-3.015l5.756-19.33h3.564zm-5.207-8.029-1.508-5.055c-.137-.446-.41-1.784-.959-3.569q-.206 1.338-.822 3.569l-1.508 5.055zm20.009.892c0 2.38-.548 4.312-1.781 5.65-1.097 1.19-2.33 1.785-3.975 1.785s-2.878-.595-3.7-1.933v7.286h-2.878V36.82c0-1.486 0-2.973-.137-4.609h2.466l.138 2.23c.959-1.635 2.33-2.527 4.385-2.527 1.508 0 2.741.595 3.838 1.933s1.644 2.974 1.644 5.055m-3.015.15c0-1.34-.274-2.529-.822-3.42q-1.028-1.34-2.467-1.339c-.685 0-1.37.297-1.919.744-.548.446-.96 1.189-1.096 1.932-.137.447-.137.744-.137.893v2.379c0 1.04.274 1.933.822 2.527.548.744 1.37 1.041 2.193 1.041q1.644 0 2.467-1.338c.685-.744.96-1.933.96-3.42m17.678-.148c0 2.38-.548 4.312-1.781 5.65-.96 1.19-2.33 1.934-3.838 1.934-1.644 0-2.878-.595-3.7-1.933v7.285h-2.878V36.822c0-1.487 0-2.974-.137-4.61h2.467l.137 2.23c.96-1.635 2.33-2.527 4.385-2.527 1.508 0 2.742.595 3.838 1.933s1.507 2.974 1.507 5.055m-2.878.15c0-1.34-.274-2.529-.822-3.42-.548-.893-1.508-1.339-2.467-1.339-.685 0-1.37.297-1.919.744-.548.446-.959 1.189-1.096 1.932-.137.447-.137.744-.137.893v2.379c0 1.04.274 1.933.822 2.527.548.744 1.37 1.041 2.193 1.041q1.645 0 2.467-1.338c.685-.744.96-1.933.96-3.42m19.461 1.636q0 2.452-1.645 4.014c-1.096 1.19-2.741 1.636-4.796 1.636-1.919 0-3.427-.446-4.66-1.19l.685-2.527c1.234.743 2.604 1.19 4.112 1.19 1.096 0 1.918-.298 2.466-.744.549-.595.96-1.19.96-2.082 0-.743-.274-1.487-.685-1.933-.549-.595-1.371-1.04-2.467-1.487-3.152-1.19-4.66-3.122-4.66-5.501 0-1.636.548-2.825 1.645-3.866s2.604-1.487 4.385-1.487c1.645 0 3.015.297 3.975.892l-.686 2.528c-.959-.595-2.192-.892-3.426-.892-.959 0-1.782.297-2.33.743a2.57 2.57 0 0 0-.685 1.784c0 .744.274 1.339.822 1.933.411.446 1.371.892 2.604 1.487 1.508.744 2.604 1.487 3.427 2.38.548.594.959 1.783.959 3.122m9.456-6.245h-3.152v6.84c0 1.784.548 2.527 1.645 2.527.548 0 .959 0 1.233-.148l.137 2.379c-.548.297-1.37.297-2.193.297-1.096 0-2.055-.446-2.604-1.19-.685-.743-.959-1.933-.959-3.717v-6.988h-1.919v-2.38h1.919v-2.527l2.741-.892v3.42h3.152zm14.117 4.609c0 2.082-.549 3.866-1.645 5.204-1.234 1.487-2.741 2.082-4.66 2.082-1.918 0-3.426-.744-4.522-2.082s-1.645-3.122-1.645-5.204c0-2.23.548-3.866 1.782-5.353 1.096-1.338 2.741-2.081 4.659-2.081 1.919 0 3.427.743 4.523 2.081.959 1.487 1.508 3.272 1.508 5.353m-2.879 0c0-1.338-.274-2.379-.822-3.271-.548-1.04-1.507-1.636-2.604-1.636-1.096 0-2.056.595-2.604 1.636-.548.892-.822 2.082-.822 3.271 0 1.338.274 2.38.822 3.271.686 1.041 1.508 1.636 2.604 1.636s1.919-.595 2.604-1.636c.548-.892.822-1.933.822-3.27m12.198-4.164c-.274 0-.548-.149-.96-.149-.959 0-1.781.446-2.329 1.19-.412.743-.686 1.635-.686 2.825v7.285h-2.878v-9.516c0-1.635 0-3.122-.137-4.312h2.467l.137 2.677h.137c.274-.892.823-1.636 1.371-2.23.685-.447 1.37-.744 2.055-.744h.686zm12.745 3.568c0 .595 0 1.041-.137 1.338h-8.497q0 2.008 1.234 3.123a4.2 4.2 0 0 0 2.741 1.04c1.233 0 2.466-.148 3.426-.594l.411 2.082c-1.233.594-2.604.892-4.249.892-2.055 0-3.563-.595-4.659-1.933-1.097-1.338-1.645-2.974-1.645-5.056s.548-3.865 1.645-5.204q1.644-2.23 4.522-2.23c1.919 0 3.29.743 4.249 2.23.548 1.19.959 2.528.959 4.312m-2.741-.743c0-.892-.137-1.636-.548-2.38-.548-.891-1.233-1.337-2.33-1.337-.959 0-1.644.446-2.33 1.19-.411.743-.822 1.486-.822 2.378h6.03zM64.002 19.871h-1.507l-.823-2.825h-2.74l-.823 2.825h-1.507l2.878-9.516h1.781zm-2.467-4.014-.685-2.528q-.206-.446-.411-1.785-.205.67-.411 1.785l-.685 2.528zm9.594-2.825-2.33 6.84h-1.37l-2.33-6.84h1.507l1.097 3.568.41 1.784q.207-.668.412-1.784l1.096-3.568zm6.305 6.839H76.2l-.137-.743c-.411.595-1.096.892-1.782.892-.548 0-1.096-.149-1.507-.595-.274-.446-.548-.892-.548-1.338 0-.892.274-1.487.959-1.933s1.507-.594 2.74-.594v-.298c0-.892-.41-1.338-1.37-1.338q-1.028 0-1.644.446l-.274-1.04c.548-.447 1.37-.596 2.192-.596 1.645 0 2.467.893 2.467 2.826v2.676c0 .743.137 1.19.137 1.635m-1.508-2.379v-1.04c-1.508 0-2.33.446-2.33 1.338 0 .297.137.595.274.743s.411.298.685.298.549-.15.823-.298c.274-.149.41-.446.548-.743zm5.483-6.542c0 .297-.137.446-.275.595a1 1 0 0 1-.685.297c-.274 0-.41-.149-.548-.298-.137-.148-.274-.446-.274-.594 0-.298.137-.446.274-.595s.411-.297.548-.297c.274 0 .411.148.549.297.274.149.41.297.41.595m-.275 8.921h-1.37v-6.84h1.37zm3.976-9.961h-1.37v9.961h1.37zm7.264 9.961h-1.234l-.137-.743c-.548.595-1.096.892-1.918.892-.549 0-1.097-.149-1.508-.595-.274-.446-.548-.892-.548-1.338 0-.892.274-1.487.96-1.933.684-.446 1.507-.594 2.74-.594v-.298c0-.892-.41-1.338-1.37-1.338q-1.029 0-1.645.446l-.274-1.04c.548-.447 1.37-.596 2.193-.596 1.644 0 2.467.893 2.467 2.826v2.676c.137.743.137 1.19.274 1.635m-1.508-2.379v-1.04c-1.507 0-2.33.446-2.33 1.338 0 .297.137.595.274.743.138.149.412.298.686.298s.548-.15.822-.298c.274-.149.411-.446.548-.743zm9.868-1.189c0 1.19-.274 2.081-.823 2.825-.548.595-1.096.892-1.918.892-.96 0-1.508-.446-1.919-1.19l-.137 1.041h-1.37V9.91h1.37v4.163c.411-.743 1.096-1.189 2.056-1.189.822 0 1.37.297 1.918.892.549.743.823 1.487.823 2.528m-1.508.148c0-.594-.137-1.189-.411-1.635s-.685-.744-1.233-.744c-.412 0-.686.15-.96.298-.274.297-.41.595-.548 1.04v1.637c0 .445.137.891.411 1.189.274.297.685.446 1.097.446.548 0 .959-.149 1.233-.595.274-.297.411-.892.411-1.636m4.934-6.542h-1.37v9.961h1.37zm7.675 6.244v.744h-4.249c0 .743.274 1.19.549 1.486.411.298.822.447 1.37.447a4.8 4.8 0 0 0 1.645-.298l.274 1.041q-.822.446-2.056.446c-.959 0-1.782-.297-2.33-.892s-.822-1.487-.822-2.528.274-1.933.822-2.527c.548-.744 1.234-1.041 2.193-1.041s1.645.297 2.056 1.04c.411.447.548 1.19.548 2.082m-1.371-.446c0-.446-.137-.892-.274-1.19-.274-.445-.548-.594-1.096-.594-.411 0-.822.149-1.096.595-.275.297-.412.743-.412 1.19zm13.02.744c0 1.04-.274 1.932-.822 2.527-.548.744-1.371 1.041-2.33 1.041s-1.645-.297-2.193-1.04c-.548-.596-.822-1.488-.822-2.528q0-1.561.822-2.677c.548-.743 1.371-1.04 2.33-1.04s1.645.297 2.193 1.04q.822 1.116.822 2.677m-1.507 0c0-.595-.137-1.19-.412-1.636-.274-.595-.685-.743-1.233-.743s-.959.297-1.233.743-.412 1.04-.412 1.636c0 .594.137 1.19.412 1.635.274.595.685.744 1.233.744q.822 0 1.233-.892c.275-.298.412-.893.412-1.487m9.045 3.419h-1.371v-3.866q0-1.785-1.233-1.784c-.411 0-.685.149-.96.446s-.411.744-.411 1.19v4.014h-1.37v-6.84h1.233v1.041c.137-.297.411-.594.686-.743q.617-.447 1.233-.446c.548 0 1.096.149 1.508.595.548.446.685 1.19.685 2.23zm9.182-5.65h-1.507v3.271q0 1.34.822 1.339h.685v1.19c-.274.148-.685.148-1.096.148-.548 0-.959-.149-1.234-.595-.274-.297-.411-1.04-.411-1.784v-3.57h-.959v-1.19h.959v-1.337l1.371-.446v1.635h1.507v1.338zm7.401 5.65h-1.37v-3.866q0-1.785-1.234-1.784c-.685 0-1.096.297-1.37 1.041v4.758h-1.371V9.91h1.371v4.163c.411-.744 1.096-1.041 1.918-1.041.549 0 1.097.148 1.508.594.411.447.685 1.339.685 2.23v4.015zm7.264-3.717v.744h-4.249c0 .743.274 1.19.548 1.486a2.2 2.2 0 0 0 1.371.447 4.8 4.8 0 0 0 1.644-.298l.274 1.041c-.548.297-1.37.446-2.055.446-.96 0-1.782-.297-2.33-.892s-.822-1.487-.822-2.528.274-1.933.822-2.527c.548-.744 1.233-1.041 2.193-1.041.959 0 1.644.297 2.055 1.04.275.447.549 1.19.549 2.082m-1.371-.446c0-.446-.137-.892-.274-1.19-.274-.445-.548-.594-1.096-.594-.412 0-.823.149-1.097.595-.274.297-.411.743-.411 1.19z"/></g><defs><clipPath id="a"><path fill="#fff" d="M0 .393h178.165v57.99H0z"/></clipPath></defs></svg>