<svg xmlns="http://www.w3.org/2000/svg" width="179" height="59" fill="none"><g clip-path="url(#a)"><path fill="#1F1F1F" d="M178.165 52.583c0 3.27-2.33 5.799-5.071 5.799H5.071C2.33 58.382 0 55.854 0 52.582V6.193c0-3.124 2.33-5.8 5.07-5.8h167.887c2.878 0 5.071 2.676 5.071 5.799z"/><path fill="#FEFEFE" stroke="#FEFEFE" stroke-miterlimit="10" stroke-width=".2" d="M62.632 15.41c0 1.19-.274 2.082-.96 2.825-.685.893-1.781 1.339-2.877 1.339q-1.645 0-2.878-1.339c-.823-.892-1.234-1.933-1.234-3.27 0-1.339.411-2.38 1.234-3.272q1.233-1.338 2.878-1.338c.548 0 1.096.149 1.644.297q.822.447 1.234.893l-.686.743c-.548-.744-1.233-1.04-2.192-1.04-.823 0-1.508.297-2.193.891a3.75 3.75 0 0 0-.96 2.528c0 1.04.275 1.784.96 2.528.548.594 1.37.892 2.193.892.822 0 1.644-.298 2.192-.892.412-.446.549-1.041.686-1.785h-2.878v-.594h3.837c-.137.148 0 .446 0 .594Zm6.03-3.568H65.1v2.676h3.289v1.041h-3.29v2.677h3.564v1.04h-4.66v-8.475h4.66zm4.248 7.583h-.958v-7.583h-2.193v-1.04h5.482v1.04h-2.193v7.583zm6.168 0v-8.624h.96v8.624zm5.619 0H83.6v-7.583h-2.192v-1.04h5.482v1.04h-2.193zm12.472-1.189q-1.233 1.338-2.878 1.338c-1.097 0-2.193-.446-2.878-1.339q-1.234-1.338-1.234-3.122c0-1.19.411-2.379 1.234-3.122q1.233-1.34 2.878-1.339 1.644 0 2.878 1.339 1.233 1.338 1.233 3.122c-.137 1.19-.41 2.23-1.233 3.122Zm-5.071-.744c.548.595 1.37.892 2.193.892.822 0 1.507-.297 2.193-.892.548-.595.822-1.487.822-2.528s-.274-1.784-.822-2.527c-.549-.595-1.371-.893-2.193-.893s-1.508.298-2.193.893c-.548.594-.822 1.487-.822 2.527s.274 1.933.822 2.528Zm7.675 1.933v-8.624h1.233l3.837 6.691v-6.691h.96v8.624h-1.097l-3.974-7.137v6.988h-.96z"/><path fill="#FEFEFE" d="M89.905 31.915c-3.152 0-5.62 2.528-5.62 6.096s2.468 6.096 5.62 6.096 5.619-2.527 5.619-6.096-2.467-6.096-5.62-6.096m0 9.813c-1.645 0-3.152-1.487-3.152-3.717s1.507-3.717 3.152-3.717c1.644 0 3.152 1.487 3.152 3.717 0 2.082-1.37 3.717-3.152 3.717M77.57 31.915c-3.152 0-5.619 2.528-5.619 6.096s2.467 6.096 5.62 6.096c3.151 0 5.618-2.527 5.618-6.096.138-3.568-2.466-6.096-5.619-6.096m0 9.813c-1.644 0-3.152-1.487-3.152-3.717s1.508-3.717 3.152-3.717 3.153 1.487 3.153 3.717c.137 2.082-1.371 3.717-3.153 3.717M63.043 33.7v2.528h5.756c-.137 1.487-.548 2.528-1.233 3.271-.823.892-2.193 1.933-4.386 1.933-3.563 0-6.304-3.122-6.304-6.84s2.74-6.84 6.304-6.84c1.919 0 3.29.744 4.249 1.785l1.644-1.784c-1.37-1.487-3.289-2.677-6.03-2.677-4.797 0-8.908 4.312-8.908 9.516s3.974 9.516 8.908 9.516c2.604 0 4.523-.892 6.03-2.676 1.508-1.636 2.056-4.163 2.056-6.096 0-.595 0-1.19-.137-1.636zm59.754 2.082c-.411-1.338-1.919-3.866-4.797-3.866s-5.345 2.528-5.345 6.096c0 3.42 2.33 6.096 5.619 6.096 2.604 0 4.112-1.635 4.66-2.676l-1.919-1.338c-.685 1.04-1.507 1.635-2.741 1.635-1.233 0-2.193-.594-2.741-1.784l7.538-3.42zm-7.675 2.081c0-2.379 1.645-3.568 2.878-3.568.959 0 1.782.595 2.056 1.338zm-6.03 5.8h2.467V25.818h-2.467zm-4.112-10.409c-.685-.743-1.644-1.338-3.015-1.338-2.74 0-5.345 2.676-5.345 6.096s2.604 6.096 5.345 6.096c1.371 0 2.467-.594 3.015-1.338h.137v.744c0 2.379-1.096 3.568-3.015 3.568-1.507 0-2.467-1.19-2.878-2.23l-2.193 1.04c.549 1.636 2.193 3.57 4.934 3.57 2.878 0 5.345-1.785 5.345-6.395V32.064h-2.33zm-2.741 8.475c-1.644 0-3.152-1.487-3.152-3.717 0-2.082 1.371-3.717 3.152-3.717 1.645 0 3.015 1.636 3.015 3.717-.137 2.082-1.37 3.717-3.015 3.717m32.07-15.91h-5.893v17.843h2.467v-6.84h3.426c2.741 0 5.345-2.081 5.345-5.5s-2.604-5.502-5.345-5.502m.137 8.625h-3.563v-6.097h3.563c1.782 0 2.878 1.636 2.878 3.123 0 1.338-1.096 2.974-2.878 2.974m15.213-2.528c-1.782 0-3.564.892-4.386 2.676l2.193 1.041c.411-1.04 1.37-1.338 2.193-1.338 1.233 0 2.604.892 2.604 2.23v.149c-.411-.297-1.371-.744-2.604-.744-2.33 0-4.797 1.339-4.797 4.015 0 2.38 1.919 3.866 4.111 3.866 1.645 0 2.604-.744 3.153-1.784h.137v1.338h2.33v-6.84c0-2.825-2.193-4.61-4.934-4.61m-.274 9.813c-.823 0-1.919-.446-1.919-1.487 0-1.338 1.37-1.932 2.604-1.932 1.096 0 1.644.297 2.193.594-.137 1.636-1.508 2.825-2.878 2.825m13.979-9.516-2.878 7.732h-.137l-2.878-7.732h-2.604l4.385 10.854-2.467 6.097h2.604l6.716-16.95zm-22.202 11.45h2.467V25.818h-2.467z"/><path fill="url(#b)" d="M13.705 11.545c-.274.446-.548 1.19-.548 2.082v31.67c0 .892.274 1.636.548 2.082l.137.149 16.309-17.694v-.298z"/><path fill="url(#c)" d="m35.633 35.484-5.482-5.948v-.297l5.482-5.948.137.149 6.441 4.014c1.782 1.19 1.782 2.974 0 4.164z"/><path fill="url(#d)" d="m35.77 35.483-5.619-6.096L13.705 47.23c.548.743 1.645.743 2.741.149z"/><path fill="url(#e)" d="M35.77 23.291 16.446 11.396c-1.096-.594-2.056-.594-2.74.149L30.15 29.388z"/><path fill="#1F1F1F" d="M35.633 35.335 16.446 47.081c-1.096.595-2.056.595-2.604 0l-.137.149.137.149c.548.595 1.508.595 2.604 0z" opacity=".2"/><path fill="#1F1F1F" d="M13.705 47.081c-.411-.446-.548-1.19-.548-2.081v.148c0 .893.274 1.636.548 2.082zM42.211 31.32l-6.578 4.015.137.148 6.441-4.014c.96-.595 1.37-1.338 1.37-2.082 0 .744-.548 1.338-1.37 1.933" opacity=".12"/><path fill="#FEFEFE" d="m16.446 11.694 25.765 15.91c.823.445 1.37 1.189 1.37 1.783 0-.743-.41-1.486-1.37-2.081l-25.765-15.91c-1.782-1.19-3.29-.149-3.29 2.082v.297c0-2.23 1.508-3.271 3.29-2.081" opacity=".25"/></g><defs><linearGradient id="b" x1="28.77" x2="4.82" y1="13.222" y2="35.297" gradientUnits="userSpaceOnUse"><stop stop-color="#00A0FF"/><stop offset=".007" stop-color="#00A1FF"/><stop offset=".26" stop-color="#00BEFF"/><stop offset=".512" stop-color="#00D2FF"/><stop offset=".76" stop-color="#00DFFF"/><stop offset="1" stop-color="#00E3FF"/></linearGradient><linearGradient id="c" x1="44.652" x2="12.719" y1="29.389" y2="29.389" gradientUnits="userSpaceOnUse"><stop stop-color="#FFE000"/><stop offset=".409" stop-color="#FFBD00"/><stop offset=".775" stop-color="orange"/><stop offset="1" stop-color="#FF9C00"/></linearGradient><linearGradient id="d" x1="32.765" x2=".287" y1="32.675" y2="62.61" gradientUnits="userSpaceOnUse"><stop stop-color="#FF3A44"/><stop offset="1" stop-color="#C31162"/></linearGradient><linearGradient id="e" x1="9.631" x2="24.133" y1="1.004" y2="14.371" gradientUnits="userSpaceOnUse"><stop stop-color="#32A071"/><stop offset=".069" stop-color="#2DA771"/><stop offset=".476" stop-color="#15CF74"/><stop offset=".801" stop-color="#06E775"/><stop offset="1" stop-color="#00F076"/></linearGradient><clipPath id="a"><path fill="#fff" d="M0 .393h178.165v57.99H0z"/></clipPath></defs></svg>