<svg width="274" height="83" viewBox="0 0 274 83" fill="none" xmlns="http://www.w3.org/2000/svg">
<g clip-path="url(#clip0_1_17642)">
<path d="M273.333 74.0627C273.333 78.6883 269.759 82.2627 265.554 82.2627H7.77949C3.57436 82.2627 0 78.6883 0 74.0627V8.4627C0 4.04731 3.57436 0.262695 7.77949 0.262695H265.344C269.759 0.262695 273.123 4.04731 273.123 8.4627L273.333 74.0627Z" fill="#1F1F1F"/>
<path d="M59.9229 40.8421C59.9229 34.3242 65.3896 30.9601 65.5998 30.9601C62.446 26.3344 57.6101 25.9139 55.928 25.7037C51.9332 25.2831 47.9383 28.0165 45.8357 28.0165C43.7332 28.0165 40.5793 25.7037 37.2152 25.7037C32.7998 25.7037 28.805 28.2267 26.4921 32.2216C21.8665 40.2113 25.2306 52.196 29.8562 58.7139C32.1691 61.8678 34.6921 65.4421 38.0562 65.4421C41.4204 65.2319 42.6819 63.3395 46.6768 63.3395C50.6716 63.3395 51.9332 65.4421 55.2973 65.4421C58.8716 65.4421 61.1845 62.2883 63.287 58.9242C65.8101 55.3498 66.8614 51.5652 66.8614 51.5652C66.8614 51.3549 60.1332 48.8319 59.9229 40.8421Z" fill="#FEFEFE"/>
<path d="M53.4048 21.2882C55.2971 18.9754 56.3484 16.0318 56.1381 12.8779C53.6151 13.0882 50.251 14.7702 48.3586 16.8728C46.6766 18.7651 45.2048 21.919 45.6253 24.8625C48.5689 25.2831 51.5125 23.601 53.4048 21.2882Z" fill="#FEFEFE"/>
<path d="M108.283 64.8114H103.657L101.134 56.8216H92.303L89.7799 64.8114H85.1543L93.9851 37.478H99.4517L108.283 64.8114ZM100.293 53.4575L97.9799 46.3088C97.7697 45.678 97.3492 43.7857 96.5081 41.2626C96.2979 42.5242 95.8774 44.2062 95.2466 46.3088L92.9338 53.4575H100.293Z" fill="#FEFEFE"/>
<path d="M130.99 54.719C130.99 58.0831 130.149 60.8164 128.256 62.7087C126.574 64.3908 124.682 65.2318 122.159 65.2318C119.636 65.2318 117.744 64.3908 116.482 62.4985V72.801H112.067V51.7754C112.067 49.6728 112.067 47.5702 111.856 45.2574H115.641L115.851 48.4113C117.323 46.0985 119.426 44.8369 122.58 44.8369C124.892 44.8369 126.785 45.6779 128.467 47.5702C130.149 49.4626 130.99 51.7754 130.99 54.719ZM126.364 54.9292C126.364 53.0369 125.944 51.3549 125.103 50.0933C124.051 48.8318 122.79 48.201 121.318 48.201C120.267 48.201 119.215 48.6215 118.374 49.2523C117.533 49.8831 116.903 50.9343 116.692 51.9856C116.482 52.6164 116.482 53.0369 116.482 53.2472V56.6113C116.482 58.0831 116.903 59.3446 117.744 60.1856C118.585 61.2369 119.846 61.6574 121.108 61.6574C122.79 61.6574 124.051 61.0267 124.892 59.7651C125.944 58.7138 126.364 57.0318 126.364 54.9292Z" fill="#FEFEFE"/>
<path d="M153.488 54.719C153.488 58.0831 152.646 60.8164 150.754 62.7087C149.282 64.3908 147.18 65.442 144.867 65.442C142.344 65.442 140.452 64.601 139.19 62.7087V73.0113H134.775V51.7754C134.775 49.6728 134.775 47.5702 134.564 45.2574H138.349L138.559 48.4113C140.031 46.0985 142.134 44.8369 145.288 44.8369C147.6 44.8369 149.493 45.6779 151.175 47.5702C152.857 49.4626 153.488 51.7754 153.488 54.719ZM149.072 54.9292C149.072 53.0369 148.652 51.3549 147.811 50.0933C146.97 48.8318 145.498 48.201 144.026 48.201C142.975 48.201 141.923 48.6215 141.082 49.2523C140.241 49.8831 139.611 50.9343 139.4 51.9856C139.19 52.6164 139.19 53.0369 139.19 53.2472V56.6113C139.19 58.0831 139.611 59.3446 140.452 60.1856C141.293 61.2369 142.554 61.6574 143.816 61.6574C145.498 61.6574 146.759 61.0267 147.6 59.7651C148.652 58.7138 149.072 57.0318 149.072 54.9292Z" fill="#FEFEFE"/>
<path d="M178.928 57.2421C178.928 59.5549 178.087 61.4473 176.405 62.9191C174.723 64.6011 172.2 65.2319 169.046 65.2319C166.103 65.2319 163.79 64.6011 161.897 63.5498L162.949 59.9755C164.841 61.0267 166.944 61.6575 169.256 61.6575C170.938 61.6575 172.2 61.237 173.041 60.6062C173.882 59.7652 174.513 58.9242 174.513 57.6626C174.513 56.6114 174.092 55.5601 173.462 54.9293C172.621 54.0883 171.359 53.4575 169.677 52.8267C164.841 51.1447 162.528 48.4114 162.528 45.0473C162.528 42.7344 163.369 41.0524 165.051 39.5806C166.733 38.1088 169.046 37.478 171.78 37.478C174.303 37.478 176.405 37.8985 177.877 38.7396L176.826 42.3139C175.354 41.4729 173.462 41.0524 171.569 41.0524C170.097 41.0524 168.836 41.4729 167.995 42.1037C167.364 42.7344 166.944 43.5755 166.944 44.6267C166.944 45.678 167.364 46.5191 168.205 47.3601C168.836 47.9908 170.308 48.6216 172.2 49.4626C174.513 50.5139 176.195 51.5652 177.456 52.8267C178.297 53.6678 178.928 55.3498 178.928 57.2421Z" fill="#FEFEFE"/>
<path d="M193.436 48.4114H188.6V58.0832C188.6 60.6063 189.441 61.6576 191.123 61.6576C191.964 61.6576 192.595 61.6576 193.015 61.4473L193.226 64.8114C192.385 65.2319 191.123 65.2319 189.861 65.2319C188.179 65.2319 186.708 64.6012 185.867 63.5499C184.815 62.4986 184.395 60.8166 184.395 58.2935V48.4114H181.451V45.0473H184.395V41.473L188.6 40.2114V45.0473H193.436V48.4114Z" fill="#FEFEFE"/>
<path d="M215.092 54.9293C215.092 57.8729 214.251 60.396 212.569 62.2883C210.677 64.3909 208.364 65.2319 205.421 65.2319C202.477 65.2319 200.164 64.1806 198.482 62.2883C196.8 60.396 195.959 57.8729 195.959 54.9293C195.959 51.7755 196.8 49.4627 198.692 47.3601C200.374 45.4678 202.897 44.4165 205.841 44.4165C208.785 44.4165 211.097 45.4678 212.779 47.3601C214.251 49.4627 215.092 51.9857 215.092 54.9293ZM210.677 54.9293C210.677 53.037 210.256 51.5652 209.415 50.3037C208.574 48.8319 207.103 47.9909 205.421 47.9909C203.738 47.9909 202.267 48.8319 201.426 50.3037C200.585 51.5652 200.164 53.2473 200.164 54.9293C200.164 56.8216 200.585 58.2934 201.426 59.555C202.477 61.0268 203.738 61.8678 205.421 61.8678C207.103 61.8678 208.364 61.0268 209.415 59.555C210.256 58.2934 210.677 56.8216 210.677 54.9293Z" fill="#FEFEFE"/>
<path d="M229.39 49.042C228.97 49.042 228.549 48.8318 227.918 48.8318C226.446 48.8318 225.185 49.4626 224.344 50.5138C223.713 51.5651 223.293 52.8267 223.293 54.5087V64.8113H218.877V51.3549C218.877 49.042 218.877 46.9395 218.667 45.2574H222.452L222.662 49.042H222.872C223.293 47.7805 224.134 46.7292 224.975 45.8882C226.026 45.2574 227.077 44.8369 228.129 44.8369C228.549 44.8369 228.97 44.8369 229.18 44.8369L229.39 49.042Z" fill="#FEFEFE"/>
<path d="M248.943 54.0882C248.943 54.9292 248.943 55.56 248.733 55.9805H235.697C235.697 57.8728 236.328 59.3446 237.59 60.3959C238.641 61.2369 240.113 61.8677 241.795 61.8677C243.687 61.8677 245.579 61.6574 247.051 61.0267L247.682 63.9702C245.79 64.8113 243.687 65.2318 241.164 65.2318C238.01 65.2318 235.697 64.3908 234.015 62.4985C232.333 60.6061 231.492 58.2933 231.492 55.3497C231.492 52.4061 232.333 49.8831 234.015 47.9908C235.697 45.8882 238.01 44.8369 240.954 44.8369C243.897 44.8369 246 45.8882 247.472 47.9908C248.313 49.6728 248.943 51.5651 248.943 54.0882ZM244.738 53.0369C244.738 51.7754 244.528 50.7241 243.897 49.6728C243.056 48.4113 242.005 47.7805 240.323 47.7805C238.851 47.7805 237.8 48.4113 236.749 49.4626C236.118 50.5138 235.487 51.5651 235.487 52.8267H244.738V53.0369Z" fill="#FEFEFE"/>
<path d="M98.1898 27.8065H95.877L94.6154 23.8116H90.4103L89.1488 27.8065H86.8359L91.2513 14.3501H93.9847L98.1898 27.8065ZM94.4052 22.1296L93.3539 18.5552C93.1436 18.1347 92.9334 17.2937 92.7231 16.0321C92.5129 16.6629 92.3026 17.5039 92.0923 18.5552L91.0411 22.1296H94.4052Z" fill="#FEFEFE"/>
<path d="M109.123 18.1343L105.549 27.8061H103.446L99.8721 18.1343H102.185L103.867 23.1804C104.077 24.0215 104.287 24.8625 104.498 25.7035C104.708 25.0727 104.918 24.2317 105.128 23.1804L106.811 18.1343H109.123Z" fill="#FEFEFE"/>
<path d="M118.794 27.8062H116.902L116.692 26.7549C116.061 27.5959 115.01 28.0164 113.959 28.0164C113.118 28.0164 112.276 27.8062 111.646 27.1754C111.225 26.5446 110.805 25.9139 110.805 25.2831C110.805 24.0216 111.225 23.1805 112.276 22.5498C113.328 21.919 114.589 21.7087 116.482 21.7087V21.2882C116.482 20.0267 115.851 19.3959 114.379 19.3959C113.328 19.3959 112.487 19.6062 111.856 20.0267L111.435 18.5549C112.276 17.9241 113.538 17.7139 114.8 17.7139C117.323 17.7139 118.584 18.9754 118.584 21.7087V25.4934C118.584 26.5446 118.794 27.1754 118.794 27.8062ZM116.482 24.4421V22.9703C114.169 22.9703 112.907 23.601 112.907 24.8626C112.907 25.2831 113.118 25.7036 113.328 25.9139C113.538 26.1241 113.959 26.3344 114.379 26.3344C114.8 26.3344 115.22 26.1241 115.641 25.9139C116.061 25.7036 116.271 25.2831 116.482 24.8626V24.4421Z" fill="#FEFEFE"/>
<path d="M124.893 15.1907C124.893 15.6113 124.682 15.8215 124.472 16.0318C124.262 16.242 123.841 16.4523 123.421 16.4523C123 16.4523 122.79 16.242 122.58 16.0318C122.369 15.8215 122.159 15.401 122.159 15.1907C122.159 14.7702 122.369 14.56 122.58 14.3497C122.79 14.1395 123.21 13.9292 123.421 13.9292C123.841 13.9292 124.051 14.1395 124.262 14.3497C124.682 14.56 124.893 14.7702 124.893 15.1907ZM124.472 27.8061H122.369V18.1343H124.472V27.8061Z" fill="#FEFEFE"/>
<path d="M130.569 13.7192H128.467V27.8064H130.569V13.7192Z" fill="#FEFEFE"/>
<path d="M141.713 27.8062H139.82L139.61 26.7549C138.769 27.5959 137.928 28.0164 136.667 28.0164C135.826 28.0164 134.984 27.8062 134.354 27.1754C133.933 26.5446 133.513 25.9139 133.513 25.2831C133.513 24.0216 133.933 23.1805 134.984 22.5498C136.036 21.919 137.297 21.7087 139.19 21.7087V21.2882C139.19 20.0267 138.559 19.3959 137.087 19.3959C136.036 19.3959 135.195 19.6062 134.564 20.0267L134.143 18.5549C134.984 17.9241 136.246 17.7139 137.508 17.7139C140.031 17.7139 141.292 18.9754 141.292 21.7087V25.4934C141.502 26.5446 141.502 27.1754 141.713 27.8062ZM139.4 24.4421V22.9703C137.087 22.9703 135.826 23.601 135.826 24.8626C135.826 25.2831 136.036 25.7036 136.246 25.9139C136.456 26.1241 136.877 26.3344 137.297 26.3344C137.718 26.3344 138.138 26.1241 138.559 25.9139C138.979 25.7036 139.19 25.2831 139.4 24.8626V24.4421Z" fill="#FEFEFE"/>
<path d="M154.539 22.7603C154.539 24.4423 154.118 25.7039 153.277 26.7551C152.436 27.5962 151.595 28.0167 150.334 28.0167C148.862 28.0167 148.021 27.3859 147.39 26.3346L147.18 27.8064H145.077C145.077 26.9654 145.077 26.1244 145.077 25.2833V13.7192H147.18V19.6064C147.81 18.5551 148.862 17.9244 150.334 17.9244C151.595 17.9244 152.436 18.3449 153.277 19.1859C154.118 20.2372 154.539 21.2885 154.539 22.7603ZM152.226 22.9705C152.226 22.1295 152.016 21.2885 151.595 20.6577C151.175 20.0269 150.544 19.6064 149.703 19.6064C149.072 19.6064 148.652 19.8167 148.231 20.0269C147.81 20.4474 147.6 20.868 147.39 21.4987C147.39 21.709 147.39 21.9192 147.39 22.1295V23.8115C147.39 24.4423 147.6 25.0731 148.021 25.4936C148.441 25.9141 149.072 26.1244 149.703 26.1244C150.544 26.1244 151.175 25.9141 151.595 25.2833C152.016 24.8628 152.226 24.0218 152.226 22.9705Z" fill="#FEFEFE"/>
<path d="M159.795 13.7192H157.692V27.8064H159.795V13.7192Z" fill="#FEFEFE"/>
<path d="M171.57 22.5497C171.57 22.9702 171.57 23.1804 171.57 23.6009H165.052C165.052 24.6522 165.472 25.283 165.893 25.7035C166.524 26.124 167.154 26.3343 167.995 26.3343C169.047 26.3343 169.888 26.124 170.518 25.9138L170.939 27.3856C170.098 27.8061 169.047 28.0163 167.785 28.0163C166.313 28.0163 165.052 27.5958 164.211 26.7548C163.37 25.9138 162.949 24.6522 162.949 23.1804C162.949 21.7086 163.37 20.4471 164.211 19.6061C165.052 18.5548 166.103 18.1343 167.575 18.1343C169.047 18.1343 170.098 18.5548 170.729 19.6061C171.359 20.2368 171.57 21.2881 171.57 22.5497ZM169.467 21.9189C169.467 21.2881 169.257 20.6574 169.047 20.2368C168.626 19.6061 168.206 19.3958 167.365 19.3958C166.734 19.3958 166.103 19.6061 165.683 20.2368C165.262 20.6574 165.052 21.2881 165.052 21.9189H169.467Z" fill="#FEFEFE"/>
<path d="M189.441 22.9703C189.441 24.4421 189.021 25.7036 188.179 26.5446C187.338 27.5959 186.077 28.0164 184.605 28.0164C183.133 28.0164 182.082 27.5959 181.241 26.5446C180.4 25.7036 179.979 24.4421 179.979 22.9703C179.979 21.4985 180.4 20.2369 181.241 19.1857C182.082 18.1344 183.344 17.7139 184.815 17.7139C186.287 17.7139 187.338 18.1344 188.179 19.1857C189.021 20.2369 189.441 21.4985 189.441 22.9703ZM187.128 22.9703C187.128 22.1293 186.918 21.2882 186.497 20.6575C186.077 19.8164 185.446 19.6062 184.605 19.6062C183.764 19.6062 183.133 20.0267 182.713 20.6575C182.292 21.2882 182.082 22.1293 182.082 22.9703C182.082 23.8113 182.292 24.6523 182.713 25.2831C183.133 26.1241 183.764 26.3344 184.605 26.3344C185.446 26.3344 186.077 25.9139 186.497 25.0728C186.918 24.6523 187.128 23.8113 187.128 22.9703Z" fill="#FEFEFE"/>
<path d="M201.005 27.8064H198.902V22.3397C198.902 20.6577 198.271 19.8166 197.01 19.8166C196.379 19.8166 195.959 20.0269 195.538 20.4474C195.118 20.8679 194.907 21.4987 194.907 22.1294V27.8064H192.805V20.8679C192.805 20.0269 192.805 19.1859 192.805 18.1346H194.697V19.6064C194.907 19.1859 195.328 18.7653 195.748 18.5551C196.379 18.1346 197.01 17.9243 197.641 17.9243C198.482 17.9243 199.323 18.1346 199.953 18.7653C200.794 19.3961 201.005 20.4474 201.005 21.9192V27.8064Z" fill="#FEFEFE"/>
<path d="M215.092 19.8165H212.779V24.4421C212.779 25.7036 213.2 26.3344 214.041 26.3344C214.461 26.3344 214.671 26.3344 215.092 26.3344V28.0165C214.671 28.2267 214.041 28.2267 213.41 28.2267C212.569 28.2267 211.938 28.0165 211.518 27.3857C211.097 26.9652 210.887 25.9139 210.887 24.8626V19.8165H209.415V18.1344H210.887V16.2421L212.989 15.6113V17.9241H215.302V19.8165H215.092Z" fill="#FEFEFE"/>
<path d="M226.446 27.8064H224.344V22.3398C224.344 20.6577 223.713 19.8167 222.451 19.8167C221.4 19.8167 220.769 20.2372 220.349 21.2885C220.349 21.4987 220.349 21.709 220.349 22.1295V28.0167H218.246V13.7192H220.349V19.6064C220.979 18.5551 222.031 18.1346 223.292 18.1346C224.133 18.1346 224.974 18.3449 225.605 18.9756C226.236 19.6064 226.656 20.868 226.656 22.1295V27.8064H226.446Z" fill="#FEFEFE"/>
<path d="M237.589 22.5497C237.589 22.9702 237.589 23.1804 237.589 23.6009H231.071C231.071 24.6522 231.492 25.283 231.912 25.7035C232.543 26.124 233.174 26.3343 234.015 26.3343C235.066 26.3343 235.907 26.124 236.538 25.9138L236.958 27.3856C236.117 27.8061 234.856 28.0163 233.805 28.0163C232.333 28.0163 231.071 27.5958 230.23 26.7548C229.389 25.9138 228.969 24.6522 228.969 23.1804C228.969 21.7086 229.389 20.4471 230.23 19.6061C231.071 18.5548 232.123 18.1343 233.594 18.1343C235.066 18.1343 236.117 18.5548 236.748 19.6061C237.169 20.2368 237.589 21.2881 237.589 22.5497ZM235.487 21.9189C235.487 21.2881 235.276 20.6574 235.066 20.2368C234.646 19.6061 234.225 19.3958 233.384 19.3958C232.753 19.3958 232.123 19.6061 231.702 20.2368C231.282 20.6574 231.071 21.2881 231.071 21.9189H235.487Z" fill="#FEFEFE"/>
</g>
<defs>
<clipPath id="clip0_1_17642">
<rect width="273.333" height="82" fill="white" transform="translate(0 0.262695)"/>
</clipPath>
</defs>
</svg>
