<svg width="50" height="50" viewBox="0 0 50 50" fill="none" xmlns="http://www.w3.org/2000/svg">
<path d="M16.6667 14.5833V6.25M33.3333 14.5833V6.25M14.5833 22.9167H35.4167M10.4167 43.75H39.5833C40.6884 43.75 41.7482 43.311 42.5296 42.5296C43.311 41.7482 43.75 40.6884 43.75 39.5833V14.5833C43.75 13.4783 43.311 12.4185 42.5296 11.6371C41.7482 10.8557 40.6884 10.4167 39.5833 10.4167H10.4167C9.3116 10.4167 8.25179 10.8557 7.47039 11.6371C6.68899 12.4185 6.25 13.4783 6.25 14.5833V39.5833C6.25 40.6884 6.68899 41.7482 7.47039 42.5296C8.25179 43.311 9.3116 43.75 10.4167 43.75Z" stroke="#FEFEFE" stroke-linecap="round" stroke-linejoin="round"/>
<path d="M16.4932 34.5485L21.3543 39.4096L33.5071 27.2568" stroke="#FEFEFE" stroke-linecap="round" stroke-linejoin="round"/>
</svg>
