<svg width="65" height="65" viewBox="0 0 65 65" fill="none" xmlns="http://www.w3.org/2000/svg">
<circle cx="32.5" cy="32.5" r="32.5" fill="#3A98EA"/>
<path d="M15.6253 10.4166V10.4166C13.5583 10.4166 12.5248 10.4166 11.7776 10.9041C11.4292 11.1315 11.1319 11.4288 10.9046 11.7772C10.417 12.5244 10.417 13.5579 10.417 15.6249V24.9999C10.417 29.134 10.417 31.201 11.3921 32.6954C11.8468 33.3922 12.4414 33.9868 13.1382 34.4415C14.6326 35.4166 16.6996 35.4166 20.8337 35.4166V35.4166M15.6253 10.4166C15.6253 11.5672 16.5581 12.4999 17.7087 12.4999C18.8593 12.4999 19.792 11.5672 19.792 10.4166C19.792 9.26599 18.8593 8.33325 17.7087 8.33325C16.5581 8.33325 15.6253 9.26599 15.6253 10.4166ZM27.0837 10.4166C27.0837 11.5672 26.1509 12.4999 25.0003 12.4999C23.8497 12.4999 22.917 11.5672 22.917 10.4166C22.917 9.26599 23.8497 8.33325 25.0003 8.33325C26.1509 8.33325 27.0837 9.26599 27.0837 10.4166ZM27.0837 10.4166V10.4166C28.1693 10.4166 28.7121 10.4166 29.1524 10.5554C30.0859 10.8498 30.8171 11.581 31.1115 12.5145C31.2503 12.9548 31.2503 13.4976 31.2503 14.5833V24.9999C31.2503 29.134 31.2503 31.201 30.2752 32.6954C29.8205 33.3922 29.2259 33.9868 28.5291 34.4415C27.0347 35.4166 24.9677 35.4166 20.8337 35.4166V35.4166M20.8337 35.4166C20.8337 45.8333 38.542 46.8749 38.542 35.4166V27.0833" stroke="#FEFEFE"/>
<path d="M41.667 23.9583C41.667 25.6841 40.2679 27.0833 38.542 27.0833C36.8161 27.0833 35.417 25.6841 35.417 23.9583C35.417 22.2324 36.8161 20.8333 38.542 20.8333C40.2679 20.8333 41.667 22.2324 41.667 23.9583Z" stroke="#FEFEFE"/>
<path d="M38.542 23.9375H38.5623V23.9578H38.542V23.9375Z" stroke="#FEFEFE" stroke-linejoin="round"/>   
</svg>
