<svg width="31" height="26" viewBox="0 0 31 26" fill="none" xmlns="http://www.w3.org/2000/svg">
<path id="Vector" fill-rule="evenodd" clip-rule="evenodd" d="M22.7297 0C19.5622 0 16.9895 2.65696 16.9895 5.9336C16.9895 9.20821 19.5622 11.8672 22.7297 11.8672C28.1716 11.8672 25.0182 22.171 18.1549 23.2443C17.831 23.2936 17.5355 23.4578 17.3217 23.7071C17.108 23.9563 16.9901 24.2742 16.9895 24.6032C16.9895 25.4456 17.7395 26.1119 18.5702 25.9843C31.0447 24.0847 35.4804 0.00202497 22.7297 0.00202497V0ZM6.1905 0C3.01895 0 0.448242 2.65493 0.448242 5.9336C0.448242 9.20619 3.01895 11.8631 6.1905 11.8631C11.6303 11.8631 8.47692 22.171 1.61363 23.2443C1.29014 23.2936 0.994874 23.4575 0.781153 23.7063C0.567432 23.9551 0.449352 24.2725 0.448242 24.6011C0.448242 25.4436 1.19828 26.1098 2.02696 25.9823C14.5055 24.0827 18.9412 0 6.1905 0Z" fill="#FD7E7E"/>
</svg>
