<svg width="28" height="24" viewBox="0 0 28 24" fill="none" xmlns="http://www.w3.org/2000/svg">
<path d="M24.8797 2.66656C23.4663 1.24951 21.5928 0.384615 19.5975 0.228122C17.6022 0.0716282 15.6167 0.63385 13.9997 1.81323C12.3033 0.551412 10.1917 -0.0207566 8.09028 0.211945C5.98885 0.444646 4.05364 1.46493 2.67435 3.06734C1.29506 4.66975 0.574146 6.73526 0.656784 8.84791C0.739423 10.9606 1.61947 12.9635 3.11972 14.4532L11.3997 22.7466C12.0931 23.4289 13.0269 23.8114 13.9997 23.8114C14.9725 23.8114 15.9064 23.4289 16.5997 22.7466L24.8797 14.4532C26.4365 12.8869 27.3103 10.7683 27.3103 8.5599C27.3103 6.35153 26.4365 4.23287 24.8797 2.66656ZM22.9997 12.6132L14.7197 20.8932C14.6255 20.9884 14.5134 21.0639 14.3898 21.1154C14.2662 21.167 14.1336 21.1935 13.9997 21.1935C13.8658 21.1935 13.7332 21.167 13.6097 21.1154C13.4861 21.0639 13.3739 20.9884 13.2797 20.8932L4.99972 12.5732C3.95406 11.5044 3.36853 10.0685 3.36853 8.57323C3.36853 7.07794 3.95406 5.6421 4.99972 4.57323C6.06526 3.52121 7.50235 2.93132 8.99972 2.93132C10.4971 2.93132 11.9342 3.52121 12.9997 4.57323C13.1237 4.6982 13.2711 4.79739 13.4336 4.86508C13.5961 4.93278 13.7704 4.96763 13.9464 4.96763C14.1224 4.96763 14.2967 4.93278 14.4592 4.86508C14.6216 4.79739 14.7691 4.6982 14.8931 4.57323C15.9586 3.52121 17.3957 2.93132 18.8931 2.93132C20.3904 2.93132 21.8275 3.52121 22.893 4.57323C23.9531 5.62809 24.5578 7.05615 24.5778 8.55148C24.5977 10.0468 24.0312 11.4905 22.9997 12.5732V12.6132Z" fill="#FEFEFE"/>
</svg>
