<svg width="274" height="83" viewBox="0 0 274 83" fill="none" xmlns="http://www.w3.org/2000/svg">
<g clip-path="url(#clip0_1_17643)">
<path d="M273.513 74.0627C273.513 78.6883 269.939 82.2627 265.734 82.2627H7.95917C3.75405 82.2627 0.179688 78.6883 0.179688 74.0627V8.4627C0.179688 4.04731 3.75405 0.262695 7.95917 0.262695H265.523C269.939 0.262695 273.303 4.04731 273.303 8.4627L273.513 74.0627Z" fill="#1F1F1F"/>
<path d="M96.2671 21.4988C96.2671 23.1809 95.8466 24.4424 94.7953 25.4937C93.7441 26.7552 92.062 27.386 90.38 27.386C88.6979 27.386 87.2261 26.7552 85.9646 25.4937C84.703 24.2321 84.0723 22.7604 84.0723 20.868C84.0723 18.9757 84.703 17.5039 85.9646 16.2424C87.2261 14.9809 88.6979 14.3501 90.38 14.3501C91.221 14.3501 92.062 14.5604 92.903 14.7706C93.7441 15.1911 94.3748 15.6116 94.7953 16.0321L93.7441 17.0834C92.903 16.0321 91.8518 15.6116 90.38 15.6116C89.1184 15.6116 88.0671 16.0321 87.0159 16.8732C86.1748 17.7142 85.5441 18.9757 85.5441 20.4475C85.5441 21.9193 85.9646 22.9706 87.0159 24.0219C87.8569 24.8629 89.1184 25.2834 90.38 25.2834C91.6415 25.2834 92.903 24.8629 93.7441 24.0219C94.3748 23.3911 94.5851 22.5501 94.7953 21.4988H90.38V20.6578H96.2671C96.0569 20.868 96.2671 21.2886 96.2671 21.4988Z" fill="#FEFEFE" stroke="#FEFEFE" stroke-width="0.2" stroke-miterlimit="10"/>
<path d="M105.519 16.4528H100.052V20.2374H105.098V21.7092H100.052V25.4938H105.519V26.9656H98.3701V14.981H105.519V16.4528Z" fill="#FEFEFE" stroke="#FEFEFE" stroke-width="0.2" stroke-miterlimit="10"/>
<path d="M112.036 27.1758H110.564V16.4528H107.2V14.981H115.61V16.4528H112.246V27.1758H112.036Z" fill="#FEFEFE" stroke="#FEFEFE" stroke-width="0.2" stroke-miterlimit="10"/>
<path d="M121.498 27.1758V14.981H122.97V27.1758H121.498Z" fill="#FEFEFE" stroke="#FEFEFE" stroke-width="0.2" stroke-miterlimit="10"/>
<path d="M130.118 27.1758H128.436V16.4528H125.072V14.981H133.483V16.4528H130.118V27.1758Z" fill="#FEFEFE" stroke="#FEFEFE" stroke-width="0.2" stroke-miterlimit="10"/>
<path d="M149.251 25.4936C147.99 26.7551 146.518 27.3859 144.836 27.3859C143.154 27.3859 141.472 26.7551 140.421 25.4936C139.159 24.232 138.528 22.7603 138.528 21.0782C138.528 19.3961 139.159 17.7141 140.421 16.6628C141.682 15.4013 143.154 14.7705 144.836 14.7705C146.518 14.7705 147.99 15.4013 149.251 16.6628C150.513 17.9244 151.144 19.3961 151.144 21.0782C150.933 22.7603 150.513 24.232 149.251 25.4936ZM141.472 24.4423C142.313 25.2833 143.574 25.7038 144.836 25.7038C146.098 25.7038 147.149 25.2833 148.2 24.4423C149.041 23.6013 149.462 22.3397 149.462 20.8679C149.462 19.3961 149.041 18.3449 148.2 17.2936C147.359 16.4526 146.098 16.032 144.836 16.032C143.574 16.032 142.523 16.4526 141.472 17.2936C140.631 18.1346 140.21 19.3961 140.21 20.8679C140.21 22.3397 140.631 23.6013 141.472 24.4423Z" fill="#FEFEFE" stroke="#FEFEFE" stroke-width="0.2" stroke-miterlimit="10"/>
<path d="M153.247 27.1758V14.981H155.139L161.027 24.4425V22.1297V14.981H162.498V27.1758H160.816L154.719 17.0835V19.3963V26.9656H153.247V27.1758Z" fill="#FEFEFE" stroke="#FEFEFE" stroke-width="0.2" stroke-miterlimit="10"/>
<path d="M138.108 44.8368C133.272 44.8368 129.488 48.4112 129.488 53.4573C129.488 58.5035 133.272 62.0779 138.108 62.0779C142.944 62.0779 146.729 58.5035 146.729 53.4573C146.729 48.4112 142.944 44.8368 138.108 44.8368ZM138.108 58.7138C135.585 58.7138 133.272 56.6112 133.272 53.4573C133.272 50.3035 135.585 48.2009 138.108 48.2009C140.631 48.2009 142.944 50.3035 142.944 53.4573C142.944 56.4009 140.842 58.7138 138.108 58.7138ZM119.185 44.8368C114.349 44.8368 110.565 48.4112 110.565 53.4573C110.565 58.5035 114.349 62.0779 119.185 62.0779C124.021 62.0779 127.806 58.5035 127.806 53.4573C128.016 48.4112 124.021 44.8368 119.185 44.8368ZM119.185 58.7138C116.662 58.7138 114.349 56.6112 114.349 53.4573C114.349 50.3035 116.662 48.2009 119.185 48.2009C121.708 48.2009 124.021 50.3035 124.021 53.4573C124.231 56.4009 121.919 58.7138 119.185 58.7138ZM96.8981 47.3599V50.9343H105.729C105.519 53.0368 104.888 54.5086 103.837 55.5599C102.575 56.8214 100.472 58.2932 97.1084 58.2932C91.6417 58.2932 87.4366 53.8779 87.4366 48.6214C87.4366 43.365 91.6417 38.9497 97.1084 38.9497C100.052 38.9497 102.155 40.0009 103.626 41.4727L106.149 38.9497C104.047 36.8471 101.103 35.165 96.8981 35.165C89.5391 35.165 83.2314 41.2625 83.2314 48.6214C83.2314 55.9804 89.3289 62.0779 96.8981 62.0779C100.893 62.0779 103.837 60.8163 106.149 58.2932C108.462 55.9804 109.303 52.4061 109.303 49.6727C109.303 48.8317 109.303 47.9907 109.093 47.3599H96.8981ZM188.57 50.3035C187.939 48.4112 185.626 44.8368 181.211 44.8368C176.796 44.8368 173.011 48.4112 173.011 53.4573C173.011 58.2932 176.585 62.0779 181.631 62.0779C185.626 62.0779 187.939 59.765 188.78 58.2932L185.837 56.4009C184.785 57.8727 183.524 58.7138 181.631 58.7138C179.739 58.7138 178.267 57.8727 177.426 56.1907L188.99 51.3548L188.57 50.3035ZM176.796 53.2471C176.796 49.883 179.319 48.2009 181.211 48.2009C182.683 48.2009 183.944 49.042 184.365 50.0932L176.796 53.2471ZM167.544 61.4471H171.329V36.2163H167.544V61.4471ZM161.237 46.7291C160.185 45.6779 158.714 44.8368 156.611 44.8368C152.406 44.8368 148.411 48.6214 148.411 53.4573C148.411 58.2932 152.406 62.0779 156.611 62.0779C158.714 62.0779 160.396 61.2368 161.237 60.1856H161.447V61.2368C161.447 64.6009 159.765 66.283 156.821 66.283C154.508 66.283 153.037 64.6009 152.406 63.1291L149.042 64.6009C149.883 66.9138 152.406 69.6471 156.611 69.6471C161.026 69.6471 164.811 67.124 164.811 60.6061V45.0471H161.237V46.7291ZM157.031 58.7138C154.508 58.7138 152.196 56.6112 152.196 53.4573C152.196 50.5138 154.298 48.2009 157.031 48.2009C159.555 48.2009 161.657 50.5138 161.657 53.4573C161.447 56.4009 159.555 58.7138 157.031 58.7138ZM206.231 36.2163H197.19V61.4471H200.975V51.7753H206.231C210.437 51.7753 214.431 48.8317 214.431 43.9958C214.431 39.1599 210.437 36.2163 206.231 36.2163ZM206.442 48.4112H200.975V39.7907H206.442C209.175 39.7907 210.857 42.1035 210.857 44.2061C210.857 46.0984 209.175 48.4112 206.442 48.4112ZM229.78 44.8368C227.047 44.8368 224.313 46.0984 223.052 48.6214L226.416 50.0932C227.047 48.6215 228.519 48.2009 229.78 48.2009C231.672 48.2009 233.775 49.4625 233.775 51.3548V51.565C233.144 51.1445 231.672 50.5138 229.78 50.5138C226.206 50.5138 222.421 52.4061 222.421 56.1907C222.421 59.5548 225.365 61.6573 228.729 61.6573C231.252 61.6573 232.724 60.6061 233.565 59.1343H233.775V61.0266H237.349V51.3548C237.349 47.3599 233.985 44.8368 229.78 44.8368ZM229.36 58.7138C228.098 58.7138 226.416 58.083 226.416 56.6112C226.416 54.7189 228.519 53.8779 230.411 53.8779C232.093 53.8779 232.934 54.2984 233.775 54.7189C233.565 57.0317 231.462 58.7138 229.36 58.7138ZM250.806 45.2573L246.39 56.1907H246.18L241.765 45.2573H237.77L244.498 60.6061L240.714 69.2266H244.708L255.011 45.2573H250.806ZM216.744 61.4471H220.529V36.2163H216.744V61.4471Z" fill="#FEFEFE"/>
<path d="M21.2053 16.0322C20.7848 16.663 20.3643 17.7143 20.3643 18.9758V63.7604C20.3643 65.022 20.7848 66.0733 21.2053 66.704L21.4155 66.9143L46.4361 41.8938V41.6835V41.4733L21.2053 16.0322Z" fill="url(#paint0_linear_1_17643)"/>
<path d="M54.8468 49.8836L46.4365 41.4733V41.2631V41.0528L54.8468 32.6426L55.057 32.8528L64.9391 38.5298C67.6724 40.2118 67.6724 42.7349 64.9391 44.4169L54.8468 49.8836Z" fill="url(#paint1_linear_1_17643)"/>
<path d="M55.0564 49.8832L46.4358 41.2627L21.2051 66.4935C22.0461 67.5447 23.7282 67.5447 25.4102 66.7037L55.0564 49.8832Z" fill="url(#paint2_linear_1_17643)"/>
<path d="M55.0564 32.6425L25.4102 15.822C23.7282 14.981 22.2564 14.981 21.2051 16.0323L46.4358 41.263L55.0564 32.6425Z" fill="url(#paint3_linear_1_17643)"/>
<path opacity="0.2" d="M54.8461 49.6733L25.4102 66.2836C23.7282 67.1246 22.2564 67.1246 21.4153 66.2836L21.2051 66.4939L21.4153 66.7041C22.2564 67.5451 23.7282 67.5451 25.4102 66.7041L54.8461 49.6733Z" fill="#1F1F1F"/>
<path opacity="0.12" d="M21.2053 66.2834C20.5745 65.6527 20.3643 64.6014 20.3643 63.3398V63.5501C20.3643 64.8116 20.7848 65.8629 21.2053 66.4937V66.2834Z" fill="#1F1F1F"/>
<path opacity="0.12" d="M64.939 43.996L54.8467 49.673L55.0569 49.8832L64.939 44.2063C66.4108 43.3653 67.0416 42.314 67.0416 41.2627C67.0416 42.314 66.2005 43.155 64.939 43.996Z" fill="#1F1F1F"/>
<path opacity="0.25" d="M25.4104 16.2424L64.9386 38.7398C66.2002 39.3706 67.0412 40.4219 67.0412 41.2629C67.0412 40.2116 66.4104 39.1603 64.9386 38.3193L25.4104 15.8219C22.6771 14.1398 20.3643 15.6116 20.3643 18.7655V19.186C20.3643 16.0321 22.6771 14.5603 25.4104 16.2424Z" fill="#FEFEFE"/>
</g>
<defs>
<linearGradient id="paint0_linear_1_17643" x1="44.3171" y1="18.4037" x2="10.338" y2="52.3828" gradientUnits="userSpaceOnUse">
<stop stop-color="#00A0FF"/>
<stop offset="0.00657445" stop-color="#00A1FF"/>
<stop offset="0.2601" stop-color="#00BEFF"/>
<stop offset="0.5122" stop-color="#00D2FF"/>
<stop offset="0.7604" stop-color="#00DFFF"/>
<stop offset="1" stop-color="#00E3FF"/>
</linearGradient>
<linearGradient id="paint1_linear_1_17643" x1="68.6842" y1="41.266" x2="19.6927" y2="41.266" gradientUnits="userSpaceOnUse">
<stop stop-color="#FFE000"/>
<stop offset="0.4087" stop-color="#FFBD00"/>
<stop offset="0.7754" stop-color="#FFA500"/>
<stop offset="1" stop-color="#FF9C00"/>
</linearGradient>
<linearGradient id="paint2_linear_1_17643" x1="50.4461" y1="45.9117" x2="4.36775" y2="91.99" gradientUnits="userSpaceOnUse">
<stop stop-color="#FF3A44"/>
<stop offset="1" stop-color="#C31162"/>
</linearGradient>
<linearGradient id="paint3_linear_1_17643" x1="14.9542" y1="1.12593" x2="35.5301" y2="21.7018" gradientUnits="userSpaceOnUse">
<stop stop-color="#32A071"/>
<stop offset="0.0685" stop-color="#2DA771"/>
<stop offset="0.4762" stop-color="#15CF74"/>
<stop offset="0.8009" stop-color="#06E775"/>
<stop offset="1" stop-color="#00F076"/>
</linearGradient>
<clipPath id="clip0_1_17643">
<rect width="273.333" height="82" fill="white" transform="translate(0.179688 0.262695)"/>
</clipPath>
</defs>
</svg>
