<svg width="65" height="65" viewBox="0 0 65 65" fill="none" xmlns="http://www.w3.org/2000/svg">
<circle cx="32.5" cy="32.5" r="32.5" fill="#3A98EA"/>
<path d="M38.75 50.1139V41.8639C38.75 40.3389 38.1442 38.8763 37.0659 37.798C35.9875 36.7197 34.525 36.1139 33 36.1139C31.475 36.1139 30.0125 36.7197 28.9341 37.798C27.8558 38.8763 27.25 40.3389 27.25 41.8639V50.1139H19C18.2044 50.1139 17.4413 49.7978 16.8787 49.2352C16.3161 48.6726 16 47.9095 16 47.1139V28.0949C16 27.5768 16.1341 27.0676 16.3894 26.6167C16.6446 26.1659 17.0123 25.7889 17.4565 25.5224L31.4565 17.1224L31.1992 16.6936L31.4565 17.1224C31.9227 16.8426 32.4563 16.6948 33 16.6948C33.5437 16.6948 34.0773 16.8426 34.5435 17.1224L48.5435 25.5224C48.9877 25.7889 49.3554 26.1659 49.6106 26.6167C49.8659 27.0676 50 27.5768 50 28.0949V47.1139C50 47.9095 49.6839 48.6726 49.1213 49.2352C48.5587 49.7978 47.7957 50.1139 47 50.1139H38.75Z" stroke="#FEFEFE"/>
<path d="M31.6414 24.7631C31.5781 24.9159 31.5781 25.1096 31.5781 25.4969V26.2681C31.5781 26.2964 31.5781 26.3106 31.5693 26.3193C31.5606 26.3281 31.5464 26.3281 31.5181 26.3281H30.7469C30.3596 26.3281 30.1659 26.3281 30.0131 26.3914C29.8095 26.4758 29.6476 26.6376 29.5633 26.8413C29.5 26.994 29.5 27.1877 29.5 27.575C29.5 27.9623 29.5 28.156 29.5633 28.3087C29.6476 28.5124 29.8095 28.6742 30.0131 28.7586C30.1659 28.8219 30.3596 28.8219 30.7469 28.8219H31.5181C31.5464 28.8219 31.5606 28.8219 31.5693 28.8307C31.5781 28.8394 31.5781 28.8536 31.5781 28.8819V29.6531C31.5781 30.0404 31.5781 30.2341 31.6414 30.3869C31.7258 30.5905 31.8876 30.7524 32.0913 30.8367C32.244 30.9 32.4377 30.9 32.825 30.9C33.2123 30.9 33.406 30.9 33.5587 30.8367C33.7624 30.7524 33.9242 30.5905 34.0086 30.3869C34.0719 30.2341 34.0719 30.0404 34.0719 29.6531V28.8819C34.0719 28.8536 34.0719 28.8394 34.0807 28.8307C34.0894 28.8219 34.1036 28.8219 34.1319 28.8219H34.9031C35.2904 28.8219 35.4841 28.8219 35.6369 28.7586C35.8405 28.6742 36.0024 28.5124 36.0867 28.3087C36.15 28.156 36.15 27.9623 36.15 27.575C36.15 27.1877 36.15 26.994 36.0867 26.8413C36.0024 26.6376 35.8405 26.4758 35.6369 26.3914C35.4841 26.3281 35.2904 26.3281 34.9031 26.3281H34.1319C34.1036 26.3281 34.0894 26.3281 34.0807 26.3193C34.0719 26.3106 34.0719 26.2964 34.0719 26.2681V25.4969C34.0719 25.1096 34.0719 24.9159 34.0086 24.7631C33.9242 24.5595 33.7624 24.3976 33.5587 24.3133C33.406 24.25 33.2123 24.25 32.825 24.25C32.4377 24.25 32.244 24.25 32.0913 24.3133C31.8876 24.3976 31.7258 24.5595 31.6414 24.7631Z" stroke="#FEFEFE" stroke-width="0.5"/>
</svg>

