<svg width="199" height="35" viewBox="0 0 199 35" fill="none" xmlns="http://www.w3.org/2000/svg">
<path d="M154.583 14.7292C154.729 14.0001 154.146 13.1251 153.417 13.1251L145.104 11.9584L141.312 4.37507C141.167 4.08341 141.021 3.93757 140.729 3.79174C140 3.35424 139.125 3.64591 138.687 4.37507L135.042 11.9584L126.729 13.1251C126.292 13.1251 126 13.2709 125.854 13.5626C125.271 14.1459 125.271 15.0209 125.854 15.6042L131.833 21.4376L130.375 29.7501C130.375 30.0417 130.375 30.3334 130.521 30.6251C130.958 31.3542 131.833 31.6459 132.562 31.2084L140 27.2709L147.437 31.2084C147.583 31.3542 147.875 31.3542 148.167 31.3542C148.312 31.3542 148.312 31.3542 148.458 31.3542C149.187 31.2084 149.771 30.4792 149.625 29.6042L148.167 21.2917L154.146 15.4584C154.437 15.3126 154.583 15.0209 154.583 14.7292Z" fill="#FFE000"/>
<path d="M113.75 14.7292C113.896 14.0001 113.312 13.1251 112.583 13.1251L104.271 11.9584L100.479 4.37507C100.333 4.08341 100.187 3.93757 99.8955 3.79174C99.1663 3.35424 98.2913 3.64591 97.8538 4.37507L94.208 11.9584L85.8955 13.1251C85.458 13.1251 85.1663 13.2709 85.0205 13.5626C84.4372 14.1459 84.4372 15.0209 85.0205 15.6042L90.9997 21.4376L89.5413 29.7501C89.5413 30.0417 89.5413 30.3334 89.6872 30.6251C90.1247 31.3542 90.9997 31.6459 91.7288 31.2084L99.1663 27.2709L106.604 31.2084C106.75 31.3542 107.041 31.3542 107.333 31.3542C107.479 31.3542 107.479 31.3542 107.625 31.3542C108.354 31.2084 108.937 30.4792 108.791 29.6042L107.333 21.2917L113.312 15.4584C113.604 15.3126 113.75 15.0209 113.75 14.7292Z" fill="#FFE000"/>
<path d="M72.9167 14.7292C73.0625 14.0001 72.4792 13.1251 71.75 13.1251L63.4375 11.9584L59.6458 4.37507C59.5 4.08341 59.3542 3.93757 59.0625 3.79174C58.3333 3.35424 57.4583 3.64591 57.0208 4.37507L53.375 11.9584L45.0625 13.1251C44.625 13.1251 44.3333 13.2709 44.1875 13.5626C43.6042 14.1459 43.6042 15.0209 44.1875 15.6042L50.1667 21.4376L48.7083 29.7501C48.7083 30.0417 48.7083 30.3334 48.8542 30.6251C49.2917 31.3542 50.1667 31.6459 50.8958 31.2084L58.3333 27.2709L65.7708 31.2084C65.9167 31.3542 66.2083 31.3542 66.5 31.3542C66.6458 31.3542 66.6458 31.3542 66.7917 31.3542C67.5208 31.2084 68.1042 30.4792 67.9583 29.6042L66.5 21.2917L72.4792 15.4584C72.7708 15.3126 72.9167 15.0209 72.9167 14.7292Z" fill="#FFE000"/>
<path d="M32.0832 14.7292C32.229 14.0001 31.6457 13.1251 30.9165 13.1251L22.604 11.9584L18.8123 4.37507C18.6665 4.08341 18.5207 3.93757 18.229 3.79174C17.4998 3.35424 16.6248 3.64591 16.1873 4.37507L12.5415 11.9584L4.229 13.1251C3.7915 13.1251 3.49984 13.2709 3.354 13.5626C2.77067 14.1459 2.77067 15.0209 3.354 15.6042L9.33317 21.4376L7.87484 29.7501C7.87484 30.0417 7.87484 30.3334 8.02067 30.6251C8.45817 31.3542 9.33317 31.6459 10.0623 31.2084L17.4998 27.2709L24.9373 31.2084C25.0832 31.3542 25.3748 31.3542 25.6665 31.3542C25.8123 31.3542 25.8123 31.3542 25.9582 31.3542C26.6873 31.2084 27.2707 30.4792 27.1248 29.6042L25.6665 21.2917L31.6457 15.4584C31.9373 15.3126 32.0832 15.0209 32.0832 14.7292Z" fill="#FFE000"/>
<path d="M195.417 14.7292C195.562 14.0001 194.979 13.1251 194.25 13.1251L185.938 11.9584L182.146 4.37507C182 4.08341 181.854 3.93757 181.562 3.79174C180.833 3.35424 179.958 3.64591 179.521 4.37507L175.875 11.9584L167.563 13.1251C167.125 13.1251 166.833 13.2709 166.688 13.5626C166.104 14.1459 166.104 15.0209 166.688 15.6042L172.667 21.4376L171.208 29.7501C171.208 30.0417 171.208 30.3334 171.354 30.6251C171.792 31.3542 172.667 31.6459 173.396 31.2084L180.833 27.2709L188.271 31.2084C188.417 31.3542 188.708 31.3542 189 31.3542C189.146 31.3542 189.146 31.3542 189.292 31.3542C190.021 31.2084 190.604 30.4792 190.458 29.6042L189 21.2917L194.979 15.4584C195.271 15.3126 195.417 15.0209 195.417 14.7292ZM186.375 19.8334C186.083 20.1251 185.938 20.7084 185.938 21.1459L186.958 27.2709L181.417 24.3542C181.271 24.2084 180.979 24.2084 180.688 24.2084V8.31257L183.458 13.8542C183.604 14.2917 184.042 14.5834 184.625 14.5834L190.75 15.4584L186.375 19.8334Z" fill="#FFE000"/>
</svg>
