<svg width="199" height="35" viewBox="0 0 199 35" fill="none" xmlns="http://www.w3.org/2000/svg">
<path d="M154.067 14.5326L154.05 14.6198L154.023 14.6329L153.912 14.7416L147.915 20.5749L147.535 20.9439L147.627 21.465L149.089 29.7723C149.135 30.059 148.971 30.2802 148.776 30.3542H148.775H148.775H148.775H148.774H148.774H148.773H148.773H148.772H148.772H148.772H148.771H148.771H148.77H148.77H148.769H148.769H148.768H148.768H148.768H148.767H148.767H148.766H148.766H148.765H148.765H148.765H148.764H148.764H148.763H148.763H148.762H148.762H148.762H148.761H148.761H148.76H148.76H148.759H148.759H148.759H148.758H148.758H148.757H148.757H148.756H148.756H148.756H148.755H148.755H148.754H148.754H148.753H148.753H148.753H148.752H148.752H148.751H148.751H148.75H148.75H148.75H148.749H148.749H148.748H148.748H148.747H148.747H148.747H148.746H148.746H148.745H148.745H148.744H148.744H148.744H148.743H148.743H148.742H148.742H148.741H148.741H148.74H148.74H148.74H148.739H148.739H148.738H148.738H148.737H148.737H148.736H148.736H148.736H148.735H148.735H148.734H148.734H148.733H148.733H148.732H148.732H148.732H148.731H148.731H148.73H148.73H148.729H148.729H148.728H148.728H148.727H148.727H148.727H148.726H148.726H148.725H148.725H148.724H148.724H148.723H148.723H148.722H148.722H148.721H148.721H148.72H148.72H148.719H148.719H148.719H148.718H148.718H148.717H148.717H148.716H148.716H148.715H148.715H148.714H148.714H148.713H148.713H148.712H148.712H148.711H148.711H148.71H148.71H148.709H148.709H148.708H148.708H148.707H148.707H148.706H148.706H148.705H148.705H148.704H148.704H148.703H148.702H148.702H148.701H148.701H148.7H148.7H148.699H148.699H148.698H148.698H148.697H148.697H148.696H148.696H148.695H148.694H148.694H148.693H148.693H148.692H148.692H148.691H148.691H148.69H148.689H148.689H148.688H148.688H148.687H148.687H148.686H148.685H148.685H148.684H148.684H148.683H148.682H148.682H148.681H148.681H148.68H148.679H148.679H148.678H148.678H148.677H148.676H148.676H148.675H148.675H148.674H148.673H148.673H148.672H148.672H148.671H148.67H148.67H148.669H148.668H148.668H148.667H148.666H148.666H148.665H148.664H148.664H148.663H148.662H148.662H148.661H148.66H148.66H148.659H148.658H148.658H148.657H148.656H148.656H148.655H148.654H148.654H148.653H148.652H148.652H148.651H148.65H148.649H148.649H148.648H148.647H148.647H148.646H148.645H148.644H148.644H148.643H148.642H148.641H148.641H148.64H148.639H148.638H148.638H148.637H148.636H148.635H148.635H148.634H148.633H148.632H148.632H148.631H148.63H148.629H148.628H148.628H148.627H148.626H148.625H148.624H148.624H148.623H148.622H148.621H148.62H148.619H148.619H148.618H148.617H148.616H148.615H148.614H148.614H148.613H148.612C148.536 30.3542 148.479 30.3542 148.427 30.3525C148.417 30.3522 148.408 30.3518 148.399 30.3514L148.347 30.324L140.887 26.3865L140.421 26.1402L139.954 26.3865L132.494 30.324L132.47 30.3365L132.447 30.3502C132.33 30.4204 132.219 30.4277 132.114 30.3962C132.009 30.3649 131.89 30.2871 131.794 30.1479C131.779 30.1032 131.769 30.031 131.767 29.8351L133.214 21.6109L133.306 21.0897L132.927 20.7207L126.935 14.8927C126.745 14.7007 126.746 14.4622 126.938 14.2707L127.053 14.1561L127.068 14.126C127.081 14.1254 127.094 14.1251 127.11 14.1251H127.18L127.248 14.1154L135.586 12.9488L136.116 12.8746L136.348 12.3928L139.981 4.8594C140.077 4.71574 140.199 4.63578 140.305 4.60397C140.41 4.57244 140.521 4.57974 140.639 4.64991L140.672 4.6696L140.706 4.6867C140.762 4.71482 140.786 4.73132 140.793 4.73694C140.799 4.74417 140.815 4.76768 140.843 4.82336L141.737 4.37507L140.843 4.82336L144.646 12.4067L144.882 12.876L145.402 12.9488L153.739 14.1154L153.808 14.1251H153.864C153.877 14.1302 153.919 14.152 153.976 14.2316C154.015 14.2869 154.044 14.3506 154.059 14.4114C154.074 14.4721 154.071 14.5133 154.067 14.5326ZM140.796 4.73913C140.796 4.73912 140.795 4.73859 140.794 4.73754C140.795 4.73861 140.796 4.73914 140.796 4.73913ZM140.793 4.73619C140.792 4.73508 140.791 4.7344 140.791 4.73434C140.791 4.73428 140.792 4.73484 140.793 4.73619Z" stroke="#BBBBBB" stroke-width="2"/>
<path d="M194.424 14.5326L194.406 14.6198L194.38 14.6329L194.268 14.7416L188.271 20.5749L187.892 20.9439L187.983 21.465L189.445 29.7723C189.492 30.059 189.328 30.2802 189.132 30.3542H189.132H189.131H189.131H189.131H189.13H189.13H189.129H189.129H189.128H189.128H189.128H189.127H189.127H189.126H189.126H189.125H189.125H189.125H189.124H189.124H189.123H189.123H189.122H189.122H189.121H189.121H189.121H189.12H189.12H189.119H189.119H189.118H189.118H189.118H189.117H189.117H189.116H189.116H189.115H189.115H189.115H189.114H189.114H189.113H189.113H189.112H189.112H189.112H189.111H189.111H189.11H189.11H189.109H189.109H189.109H189.108H189.108H189.107H189.107H189.106H189.106H189.106H189.105H189.105H189.104H189.104H189.103H189.103H189.103H189.102H189.102H189.101H189.101H189.1H189.1H189.1H189.099H189.099H189.098H189.098H189.097H189.097H189.096H189.096H189.096H189.095H189.095H189.094H189.094H189.093H189.093H189.092H189.092H189.092H189.091H189.091H189.09H189.09H189.089H189.089H189.088H189.088H189.088H189.087H189.087H189.086H189.086H189.085H189.085H189.084H189.084H189.083H189.083H189.082H189.082H189.082H189.081H189.081H189.08H189.08H189.079H189.079H189.078H189.078H189.077H189.077H189.076H189.076H189.075H189.075H189.074H189.074H189.074H189.073H189.073H189.072H189.072H189.071H189.071H189.07H189.07H189.069H189.069H189.068H189.068H189.067H189.067H189.066H189.066H189.065H189.065H189.064H189.064H189.063H189.063H189.062H189.062H189.061H189.06H189.06H189.059H189.059H189.058H189.058H189.057H189.057H189.056H189.056H189.055H189.055H189.054H189.054H189.053H189.053H189.052H189.051H189.051H189.05H189.05H189.049H189.049H189.048H189.048H189.047H189.046H189.046H189.045H189.045H189.044H189.044H189.043H189.042H189.042H189.041H189.041H189.04H189.04H189.039H189.038H189.038H189.037H189.037H189.036H189.035H189.035H189.034H189.034H189.033H189.032H189.032H189.031H189.03H189.03H189.029H189.029H189.028H189.027H189.027H189.026H189.025H189.025H189.024H189.023H189.023H189.022H189.022H189.021H189.02H189.02H189.019H189.018H189.018H189.017H189.016H189.016H189.015H189.014H189.014H189.013H189.012H189.011H189.011H189.01H189.009H189.009H189.008H189.007H189.007H189.006H189.005H189.004H189.004H189.003H189.002H189.002H189.001H189H188.999H188.999H188.998H188.997H188.996H188.996H188.995H188.994H188.993H188.993H188.992H188.991H188.99H188.99H188.989H188.988H188.987H188.986H188.986H188.985H188.984H188.983H188.982H188.982H188.981H188.98H188.979H188.978H188.978H188.977H188.976H188.975H188.974H188.973H188.973H188.972H188.971H188.97H188.969H188.968C188.892 30.3542 188.835 30.3542 188.783 30.3525C188.773 30.3522 188.764 30.3518 188.756 30.3514L188.704 30.324L181.244 26.3865L180.777 26.1402L180.31 26.3865L172.85 30.324L172.827 30.3365L172.804 30.3502C172.687 30.4204 172.576 30.4277 172.47 30.3962C172.366 30.3649 172.246 30.2871 172.151 30.1479C172.135 30.1032 172.126 30.031 172.124 29.8351L173.571 21.6109L173.662 21.0897L173.283 20.7207L167.291 14.8927C167.102 14.7007 167.103 14.4622 167.295 14.2707L167.41 14.1561L167.425 14.126C167.437 14.1254 167.451 14.1251 167.466 14.1251H167.536L167.605 14.1154L175.942 12.9488L176.472 12.8746L176.705 12.3928L180.337 4.8594C180.433 4.71574 180.555 4.63578 180.661 4.60397C180.767 4.57244 180.878 4.57974 180.995 4.64991L181.028 4.6696L181.062 4.6867C181.119 4.71482 181.142 4.73132 181.15 4.73694C181.155 4.74417 181.172 4.76768 181.2 4.82336L182.094 4.37507L181.2 4.82336L185.003 12.4067L185.238 12.876L185.758 12.9488L194.096 14.1154L194.165 14.1251H194.22C194.233 14.1302 194.276 14.152 194.332 14.2316C194.371 14.2869 194.4 14.3506 194.415 14.4114C194.43 14.4721 194.428 14.5133 194.424 14.5326ZM181.152 4.73913C181.152 4.73912 181.152 4.73859 181.15 4.73754C181.152 4.73861 181.152 4.73914 181.152 4.73913ZM181.149 4.73619C181.148 4.73508 181.148 4.7344 181.148 4.73434C181.148 4.73428 181.148 4.73484 181.149 4.73619Z" stroke="#BBBBBB" stroke-width="2"/>
<path d="M113.112 14.5326L113.095 14.6198L113.068 14.6329L112.957 14.7416L106.96 20.5749L106.58 20.9439L106.672 21.465L108.134 29.7723C108.18 30.059 108.016 30.2802 107.821 30.3542H107.82H107.82H107.82H107.819H107.819H107.818H107.818H107.817H107.817H107.816H107.816H107.816H107.815H107.815H107.814H107.814H107.813H107.813H107.813H107.812H107.812H107.811H107.811H107.81H107.81H107.81H107.809H107.809H107.808H107.808H107.807H107.807H107.807H107.806H107.806H107.805H107.805H107.804H107.804H107.804H107.803H107.803H107.802H107.802H107.801H107.801H107.801H107.8H107.8H107.799H107.799H107.798H107.798H107.798H107.797H107.797H107.796H107.796H107.795H107.795H107.795H107.794H107.794H107.793H107.793H107.792H107.792H107.791H107.791H107.791H107.79H107.79H107.789H107.789H107.788H107.788H107.788H107.787H107.787H107.786H107.786H107.785H107.785H107.785H107.784H107.784H107.783H107.783H107.782H107.782H107.781H107.781H107.781H107.78H107.78H107.779H107.779H107.778H107.778H107.777H107.777H107.776H107.776H107.776H107.775H107.775H107.774H107.774H107.773H107.773H107.772H107.772H107.771H107.771H107.771H107.77H107.77H107.769H107.769H107.768H107.768H107.767H107.767H107.766H107.766H107.765H107.765H107.764H107.764H107.763H107.763H107.762H107.762H107.761H107.761H107.761H107.76H107.76H107.759H107.759H107.758H107.758H107.757H107.757H107.756H107.756H107.755H107.755H107.754H107.754H107.753H107.753H107.752H107.752H107.751H107.751H107.75H107.749H107.749H107.748H107.748H107.747H107.747H107.746H107.746H107.745H107.745H107.744H107.744H107.743H107.743H107.742H107.742H107.741H107.74H107.74H107.739H107.739H107.738H107.738H107.737H107.737H107.736H107.735H107.735H107.734H107.734H107.733H107.733H107.732H107.731H107.731H107.73H107.73H107.729H107.729H107.728H107.727H107.727H107.726H107.726H107.725H107.724H107.724H107.723H107.723H107.722H107.721H107.721H107.72H107.72H107.719H107.718H107.718H107.717H107.716H107.716H107.715H107.715H107.714H107.713H107.713H107.712H107.711H107.711H107.71H107.709H107.709H107.708H107.707H107.707H107.706H107.705H107.705H107.704H107.703H107.703H107.702H107.701H107.701H107.7H107.699H107.699H107.698H107.697H107.696H107.696H107.695H107.694H107.694H107.693H107.692H107.691H107.691H107.69H107.689H107.689H107.688H107.687H107.686H107.686H107.685H107.684H107.683H107.683H107.682H107.681H107.68H107.68H107.679H107.678H107.677H107.676H107.676H107.675H107.674H107.673H107.673H107.672H107.671H107.67H107.669H107.669H107.668H107.667H107.666H107.665H107.664H107.664H107.663H107.662H107.661H107.66H107.659H107.659H107.658H107.657C107.581 30.3542 107.524 30.3542 107.472 30.3525C107.462 30.3522 107.452 30.3518 107.444 30.3514L107.392 30.324L99.9324 26.3865L99.4656 26.1402L98.9988 26.3865L91.5389 30.324L91.5153 30.3365L91.4924 30.3502C91.3751 30.4204 91.2641 30.4277 91.1587 30.3962C91.0541 30.3649 90.9344 30.2871 90.8394 30.1479C90.8237 30.1032 90.8141 30.031 90.812 29.8351L92.2592 21.6109L92.3509 21.0897L91.9716 20.7207L85.9799 14.8927C85.7901 14.7007 85.7912 14.4622 85.9832 14.2707L86.0983 14.1561L86.1133 14.126C86.1255 14.1254 86.1393 14.1251 86.1548 14.1251H86.2245L86.2934 14.1154L94.6309 12.9488L95.1607 12.8746L95.3931 12.3928L99.0258 4.8594C99.1216 4.71574 99.2436 4.63578 99.3499 4.60397C99.4553 4.57244 99.5663 4.57974 99.6836 4.64991L99.7165 4.6696L99.7508 4.6867C99.8072 4.71482 99.831 4.73132 99.8382 4.73694C99.8438 4.74417 99.8602 4.76768 99.8882 4.82336L100.782 4.37507L99.8882 4.82336L103.691 12.4067L103.927 12.876L104.447 12.9488L112.784 14.1154L112.853 14.1251H112.909C112.921 14.1302 112.964 14.152 113.021 14.2316C113.06 14.2869 113.089 14.3506 113.104 14.4114C113.119 14.4721 113.116 14.5133 113.112 14.5326ZM99.8408 4.73913C99.8407 4.73912 99.8401 4.73859 99.839 4.73754C99.8403 4.73861 99.8409 4.73914 99.8408 4.73913ZM99.8376 4.73619C99.8365 4.73508 99.836 4.7344 99.836 4.73434C99.836 4.73428 99.8365 4.73484 99.8376 4.73619Z" stroke="#BBBBBB" stroke-width="2"/>
<path d="M72.1553 14.5326L72.1378 14.6198L72.1114 14.6329L71.9997 14.7416L66.0026 20.5749L65.6232 20.9439L65.7149 21.465L67.1767 29.7723C67.2232 30.059 67.0591 30.2802 66.8637 30.3542H66.8634H66.8629H66.8625H66.862H66.8616H66.8612H66.8607H66.8603H66.8599H66.8594H66.859H66.8586H66.8581H66.8577H66.8573H66.8568H66.8564H66.856H66.8555H66.8551H66.8547H66.8542H66.8538H66.8534H66.8529H66.8525H66.8521H66.8516H66.8512H66.8508H66.8504H66.8499H66.8495H66.8491H66.8486H66.8482H66.8478H66.8474H66.8469H66.8465H66.8461H66.8456H66.8452H66.8448H66.8444H66.8439H66.8435H66.8431H66.8426H66.8422H66.8418H66.8414H66.8409H66.8405H66.8401H66.8396H66.8392H66.8388H66.8383H66.8379H66.8375H66.8371H66.8366H66.8362H66.8358H66.8353H66.8349H66.8345H66.834H66.8336H66.8332H66.8327H66.8323H66.8319H66.8314H66.831H66.8305H66.8301H66.8297H66.8292H66.8288H66.8284H66.8279H66.8275H66.827H66.8266H66.8261H66.8257H66.8253H66.8248H66.8244H66.8239H66.8235H66.823H66.8226H66.8221H66.8217H66.8212H66.8208H66.8203H66.8199H66.8194H66.819H66.8185H66.8181H66.8176H66.8172H66.8167H66.8162H66.8158H66.8153H66.8149H66.8144H66.8139H66.8135H66.813H66.8125H66.8121H66.8116H66.8111H66.8107H66.8102H66.8097H66.8093H66.8088H66.8083H66.8078H66.8074H66.8069H66.8064H66.8059H66.8054H66.805H66.8045H66.804H66.8035H66.803H66.8025H66.802H66.8015H66.801H66.8005H66.8H66.7996H66.7991H66.7986H66.7981H66.7976H66.797H66.7965H66.796H66.7955H66.795H66.7945H66.794H66.7935H66.793H66.7924H66.7919H66.7914H66.7909H66.7904H66.7898H66.7893H66.7888H66.7882H66.7877H66.7872H66.7866H66.7861H66.7856H66.785H66.7845H66.784H66.7834H66.7829H66.7823H66.7818H66.7812H66.7807H66.7801H66.7795H66.779H66.7784H66.7779H66.7773H66.7767H66.7762H66.7756H66.775H66.7744H66.7739H66.7733H66.7727H66.7721H66.7715H66.7709H66.7704H66.7698H66.7692H66.7686H66.768H66.7674H66.7668H66.7662H66.7656H66.765H66.7644H66.7637H66.7631H66.7625H66.7619H66.7613H66.7607H66.76H66.7594H66.7588H66.7581H66.7575H66.7569H66.7562H66.7556H66.7549H66.7543H66.7536H66.753H66.7523H66.7517H66.751H66.7504H66.7497H66.749H66.7484H66.7477H66.747H66.7463H66.7457H66.745H66.7443H66.7436H66.7429H66.7422H66.7415H66.7408H66.7401H66.7394H66.7387H66.738H66.7373H66.7366H66.7359H66.7352H66.7345H66.7337H66.733H66.7323H66.7315H66.7308H66.7301H66.7293H66.7286H66.7278H66.7271H66.7263H66.7256H66.7248H66.7241H66.7233H66.7225H66.7218H66.721H66.7202H66.7194H66.7187H66.7179H66.7171H66.7163H66.7155H66.7147H66.7139H66.7131H66.7123H66.7115H66.7107H66.7098H66.709H66.7082H66.7074H66.7066H66.7057H66.7049H66.704H66.7032H66.7024H66.7015H66.7007H66.6998C66.6236 30.3542 66.5668 30.3542 66.5148 30.3525C66.5047 30.3522 66.4955 30.3518 66.487 30.3514L66.4352 30.324L58.9754 26.3865L58.5086 26.1402L58.0418 26.3865L50.5819 30.324L50.5583 30.3365L50.5353 30.3502C50.418 30.4204 50.307 30.4277 50.2016 30.3962C50.0971 30.3649 49.9774 30.2871 49.8824 30.1479C49.8667 30.1032 49.857 30.031 49.855 29.8351L51.3022 21.6109L51.3939 21.0897L51.0146 20.7207L45.0228 14.8927C44.8331 14.7007 44.8342 14.4622 45.0262 14.2707L45.1412 14.1561L45.1563 14.126C45.1684 14.1254 45.1822 14.1251 45.1978 14.1251H45.2674L45.3364 14.1154L53.6739 12.9488L54.2037 12.8746L54.4361 12.3928L58.0688 4.8594C58.1646 4.71574 58.2865 4.63578 58.3929 4.60397C58.4983 4.57244 58.6093 4.57974 58.7266 4.64991L58.7595 4.6696L58.7938 4.6867C58.8502 4.71482 58.8739 4.73132 58.8812 4.73694C58.8868 4.74417 58.9032 4.76768 58.9311 4.82336L59.825 4.37507L58.9311 4.82336L62.7342 12.4067L62.9696 12.876L63.4895 12.9488L71.827 14.1154L71.896 14.1251H71.9516C71.9644 14.1302 72.0073 14.152 72.0636 14.2316C72.1028 14.2869 72.1318 14.3506 72.1468 14.4114C72.1619 14.4721 72.1592 14.5133 72.1553 14.5326ZM58.8838 4.73913C58.8837 4.73912 58.883 4.73859 58.8819 4.73754C58.8833 4.73861 58.8838 4.73914 58.8838 4.73913ZM58.8806 4.73619C58.8795 4.73508 58.879 4.7344 58.879 4.73434C58.879 4.73428 58.8795 4.73484 58.8806 4.73619Z" stroke="#BBBBBB" stroke-width="2"/>
<path d="M31.1993 14.5326L31.1818 14.6198L31.1553 14.6329L31.0437 14.7416L25.0465 20.5749L24.6672 20.9439L24.7589 21.465L26.2207 29.7723C26.2671 30.059 26.1031 30.2802 25.9077 30.3542H25.9073H25.9069H25.9064H25.906H25.9055H25.9051H25.9047H25.9042H25.9038H25.9034H25.9029H25.9025H25.9021H25.9016H25.9012H25.9008H25.9003H25.8999H25.8995H25.899H25.8986H25.8982H25.8977H25.8973H25.8969H25.8965H25.896H25.8956H25.8952H25.8947H25.8943H25.8939H25.8934H25.893H25.8926H25.8922H25.8917H25.8913H25.8909H25.8904H25.89H25.8896H25.8892H25.8887H25.8883H25.8879H25.8874H25.887H25.8866H25.8862H25.8857H25.8853H25.8849H25.8844H25.884H25.8836H25.8832H25.8827H25.8823H25.8819H25.8814H25.881H25.8806H25.8801H25.8797H25.8793H25.8788H25.8784H25.878H25.8775H25.8771H25.8767H25.8762H25.8758H25.8754H25.8749H25.8745H25.8741H25.8736H25.8732H25.8727H25.8723H25.8719H25.8714H25.871H25.8705H25.8701H25.8696H25.8692H25.8688H25.8683H25.8679H25.8674H25.867H25.8665H25.8661H25.8656H25.8652H25.8647H25.8643H25.8638H25.8634H25.8629H25.8625H25.862H25.8616H25.8611H25.8607H25.8602H25.8597H25.8593H25.8588H25.8584H25.8579H25.8574H25.857H25.8565H25.856H25.8556H25.8551H25.8546H25.8541H25.8537H25.8532H25.8527H25.8523H25.8518H25.8513H25.8508H25.8503H25.8499H25.8494H25.8489H25.8484H25.8479H25.8474H25.847H25.8465H25.846H25.8455H25.845H25.8445H25.844H25.8435H25.843H25.8425H25.842H25.8415H25.841H25.8405H25.84H25.8395H25.839H25.8384H25.8379H25.8374H25.8369H25.8364H25.8359H25.8354H25.8348H25.8343H25.8338H25.8333H25.8327H25.8322H25.8317H25.8311H25.8306H25.8301H25.8295H25.829H25.8284H25.8279H25.8274H25.8268H25.8263H25.8257H25.8252H25.8246H25.824H25.8235H25.8229H25.8224H25.8218H25.8212H25.8207H25.8201H25.8195H25.819H25.8184H25.8178H25.8172H25.8166H25.8161H25.8155H25.8149H25.8143H25.8137H25.8131H25.8125H25.8119H25.8113H25.8107H25.8101H25.8095H25.8089H25.8083H25.8077H25.8071H25.8065H25.8058H25.8052H25.8046H25.804H25.8033H25.8027H25.8021H25.8014H25.8008H25.8002H25.7995H25.7989H25.7982H25.7976H25.7969H25.7963H25.7956H25.795H25.7943H25.7936H25.793H25.7923H25.7916H25.791H25.7903H25.7896H25.7889H25.7882H25.7876H25.7869H25.7862H25.7855H25.7848H25.7841H25.7834H25.7827H25.782H25.7813H25.7806H25.7798H25.7791H25.7784H25.7777H25.777H25.7762H25.7755H25.7748H25.774H25.7733H25.7725H25.7718H25.771H25.7703H25.7695H25.7688H25.768H25.7672H25.7665H25.7657H25.7649H25.7642H25.7634H25.7626H25.7618H25.761H25.7602H25.7594H25.7586H25.7578H25.757H25.7562H25.7554H25.7546H25.7538H25.753H25.7522H25.7513H25.7505H25.7497H25.7488H25.748H25.7471H25.7463H25.7455H25.7446H25.7437C25.6676 30.3542 25.6108 30.3542 25.5588 30.3525C25.5487 30.3522 25.5394 30.3518 25.531 30.3514L25.4792 30.324L18.0193 26.3865L17.5525 26.1402L17.0857 26.3865L9.62584 30.324L9.6022 30.3365L9.57927 30.3502C9.46197 30.4204 9.35098 30.4277 9.24557 30.3962C9.14101 30.3649 9.02135 30.2871 8.92631 30.1479C8.9106 30.1032 8.90099 30.031 8.89895 29.8351L10.3461 21.6109L10.4378 21.0897L10.0585 20.7207L4.06679 14.8927C3.87701 14.7007 3.87813 14.4622 4.07015 14.2707L4.18518 14.1561L4.20024 14.126C4.21239 14.1254 4.22618 14.1251 4.24174 14.1251H4.31137L4.38032 14.1154L12.7178 12.9488L13.2476 12.8746L13.48 12.3928L17.1127 4.8594C17.2085 4.71574 17.3305 4.63578 17.4368 4.60397C17.5422 4.57244 17.6532 4.57974 17.7705 4.64991L17.8034 4.6696L17.8377 4.6867C17.8941 4.71482 17.9179 4.73132 17.9251 4.73694C17.9307 4.74417 17.9471 4.76768 17.9751 4.82336L18.869 4.37507L17.9751 4.82336L21.7781 12.4067L22.0135 12.876L22.5335 12.9488L30.871 14.1154L30.9399 14.1251H30.9955C31.0083 14.1302 31.0513 14.152 31.1076 14.2316C31.1468 14.2869 31.1757 14.3506 31.1908 14.4114C31.2058 14.4721 31.2031 14.5133 31.1993 14.5326ZM17.9277 4.73913C17.9276 4.73912 17.927 4.73859 17.9259 4.73754C17.9272 4.73861 17.9278 4.73914 17.9277 4.73913ZM17.9245 4.73619C17.9235 4.73508 17.9229 4.7344 17.9229 4.73434C17.9229 4.73428 17.9235 4.73484 17.9245 4.73619Z" stroke="#BBBBBB" stroke-width="2"/>
</svg>
