<svg width="26" height="26" viewBox="0 0 26 26" fill="none" xmlns="http://www.w3.org/2000/svg">
<path d="M24.25 14C24.8023 14 25.25 13.5523 25.25 13C25.25 12.4477 24.8023 12 24.25 12V14ZM24 13C24 19.0751 19.0751 24 13 24V26C20.1797 26 26 20.1797 26 13H24ZM13 24C6.92487 24 2 19.0751 2 13H0C0 20.1797 5.8203 26 13 26V24ZM2 13C2 6.92487 6.92487 2 13 2V0C5.8203 0 0 5.8203 0 13H2ZM13 2C19.0751 2 24 6.92487 24 13H26C26 5.8203 20.1797 0 13 0V2ZM13 24C12.606 24 12.1518 23.8217 11.6515 23.338C11.1464 22.8497 10.6459 22.0949 10.2038 21.0845C9.32106 19.0667 8.75 16.2091 8.75 13H6.75C6.75 16.4183 7.3542 19.5608 8.37153 21.8861C8.87955 23.0473 9.51029 24.0498 10.2614 24.7759C11.0173 25.5067 11.9443 26 13 26V24ZM8.75 13C8.75 9.79086 9.32106 6.93334 10.2038 4.91554C10.6459 3.90515 11.1464 3.15028 11.6515 2.66197C12.1518 2.17831 12.606 2 13 2V0C11.9443 0 11.0173 0.493262 10.2614 1.22407C9.51029 1.95023 8.87955 2.95271 8.37153 4.1139C7.3542 6.43924 6.75 9.58173 6.75 13H8.75ZM13 26C14.0557 26 14.9827 25.5067 15.7386 24.7759C16.4897 24.0498 17.1204 23.0473 17.6285 21.8861C18.6458 19.5608 19.25 16.4183 19.25 13H17.25C17.25 16.2091 16.6789 19.0667 15.7962 21.0845C15.3541 22.0949 14.8536 22.8497 14.3485 23.338C13.8482 23.8217 13.394 24 13 24V26ZM19.25 13C19.25 9.58173 18.6458 6.43924 17.6285 4.1139C17.1204 2.95271 16.4897 1.95023 15.7386 1.22407C14.9827 0.493262 14.0557 0 13 0V2C13.394 2 13.8482 2.17831 14.3485 2.66197C14.8536 3.15028 15.3541 3.90515 15.7962 4.91554C16.6789 6.93334 17.25 9.79086 17.25 13H19.25ZM1 14L24.25 14V12L1 12L1 14Z" fill="#FEFEFE"/>
</svg>
