<svg width="26" height="26" viewBox="0 0 33 33" fill="none" xmlns="http://www.w3.org/2000/svg">
<path d="M27.3802 7.16656C25.9668 5.74951 24.0933 4.88462 22.098 4.72812C20.1027 4.57163 18.1172 5.13385 16.5002 6.31323C14.8037 5.05141 12.6922 4.47924 10.5908 4.71194C8.48934 4.94465 6.55412 5.96493 5.17484 7.56734C3.79555 9.16975 3.07463 11.2353 3.15727 13.3479C3.23991 15.4606 4.11996 17.4635 5.6202 18.9532L13.9002 27.2466C14.5936 27.9289 15.5274 28.3114 16.5002 28.3114C17.473 28.3114 18.4068 27.9289 19.1002 27.2466L27.3802 18.9532C28.937 17.3869 29.8108 15.2683 29.8108 13.0599C29.8108 10.8515 28.937 8.73287 27.3802 7.16656ZM25.5002 17.1132L17.2202 25.3932C17.126 25.4884 17.0138 25.5639 16.8903 25.6154C16.7667 25.667 16.6341 25.6935 16.5002 25.6935C16.3663 25.6935 16.2337 25.667 16.1102 25.6154C15.9866 25.5639 15.8744 25.4884 15.7802 25.3932L7.5002 17.0732C6.45455 16.0044 5.86902 14.5685 5.86902 13.0732C5.86902 11.5779 6.45455 10.1421 7.5002 9.07323C8.56575 8.02121 10.0028 7.43132 11.5002 7.43132C12.9976 7.43132 14.4347 8.02121 15.5002 9.07323C15.6242 9.1982 15.7716 9.29739 15.9341 9.36508C16.0966 9.43278 16.2709 9.46763 16.4469 9.46763C16.6229 9.46763 16.7972 9.43278 16.9596 9.36508C17.1221 9.29739 17.2696 9.1982 17.3935 9.07323C18.4591 8.02121 19.8962 7.43132 21.3935 7.43132C22.8909 7.43132 24.328 8.02121 25.3935 9.07323C26.4536 10.1281 27.0583 11.5561 27.0783 13.0515C27.0982 14.5468 26.5317 15.9905 25.5002 17.0732V17.1132Z" fill="#FEFEFE"/>
</svg>
