<svg width="16" height="20" viewBox="0 0 16 20" fill="none" xmlns="http://www.w3.org/2000/svg">
<path fill-rule="evenodd" clip-rule="evenodd" d="M0.895508 8.55321C0.908747 4.65461 4.07852 1.5049 7.9754 1.51811C11.8723 1.53139 15.0206 4.70258 15.0074 8.60118V8.68112C14.9594 11.2153 13.545 13.5577 11.811 15.3884C10.8193 16.4187 9.71189 17.3308 8.51078 18.1065C8.18962 18.3844 7.71323 18.3844 7.39207 18.1065C5.6015 16.9405 4.02998 15.4684 2.74938 13.7576C1.60801 12.2656 0.959986 10.4548 0.895508 8.5772V8.55321Z" stroke="#BABABA" stroke-width="1.5" stroke-linecap="round" stroke-linejoin="round"/>
<path d="M7.95135 10.9516C9.20029 10.9516 10.2128 9.93867 10.2128 8.68917C10.2128 7.43967 9.20029 6.42676 7.95135 6.42676C6.70241 6.42676 5.68994 7.43967 5.68994 8.68917C5.68994 9.93867 6.70241 10.9516 7.95135 10.9516Z" stroke="#BABABA" stroke-width="1.5" stroke-linecap="round" stroke-linejoin="round"/>
</svg>
