<svg width="41" height="41" viewBox="0 0 41 41" fill="none" xmlns="http://www.w3.org/2000/svg">
<path d="M7.4375 34.75C8.35023 33.7278 12.625 29.0236 13.8777 29.0236H27.1231C28.9384 29.0236 32.6441 32.923 33.5625 34.2976M39.5 20.5C39.5 30.9934 30.9934 39.5 20.5 39.5C10.0066 39.5 1.5 30.9934 1.5 20.5C1.5 10.0066 10.0066 1.5 20.5 1.5C30.9934 1.5 39.5 10.0066 39.5 20.5ZM27.306 14.0241C27.306 10.3992 24.246 7.4375 20.5006 7.4375C16.7552 7.4375 13.6951 10.3992 13.6951 14.0241C13.6951 17.649 16.7552 20.6107 20.5006 20.6107C24.2459 20.6107 27.306 17.649 27.306 14.0241Z" stroke="#FEFEFE" stroke-width="2"/>
</svg>
