<svg width="259" height="71" viewBox="0 0 259 71" fill="none" xmlns="http://www.w3.org/2000/svg">
<path d="M26.064 19.616C21.52 19.616 18.256 19.712 16.272 19.904C14.352 20.032 13.392 20.416 13.392 21.056C13.392 21.312 13.36 21.76 13.296 22.4C13.296 23.04 13.296 24.48 13.296 26.72C13.296 29.792 13.904 31.328 15.12 31.328C17.424 31.328 19.952 31.168 22.704 30.848C26.032 30.592 28.528 30.464 30.192 30.464C31.6 30.464 32.592 30.688 33.168 31.136C33.808 31.52 34.224 32.288 34.416 33.44C34.608 34.528 34.704 36.384 34.704 39.008C34.704 41.952 34.192 43.424 33.168 43.424L24.048 42.176C23.728 42.24 23.28 42.336 22.704 42.464C22.128 42.528 21.68 42.592 21.36 42.656H20.4C18.288 42.656 16.656 42.752 15.504 42.944C14.352 43.072 13.776 43.456 13.776 44.096C13.776 45.888 14 48.032 14.448 50.528C14.832 53.216 15.024 55.168 15.024 56.384L14.928 61.28C14.928 62.24 14.96 62.976 15.024 63.488V69.536C14.96 69.6 14.832 69.664 14.64 69.728C14.512 69.856 14.352 69.92 14.16 69.92C13.264 69.92 12.112 69.728 10.704 69.344C9.04 68.96 7.568 68.768 6.288 68.768C5.584 68.768 4.752 69.024 3.792 69.536C2.832 70.048 2.192 70.304 1.872 70.304C1.616 70.304 1.456 70.048 1.392 69.536C1.328 69.024 1.264 68.608 1.2 68.288C1.392 68.032 1.52 67.616 1.584 67.04C1.648 66.4 1.68 65.472 1.68 64.256C1.68 62.912 1.616 61.024 1.488 58.592C1.36 56.288 1.296 54.496 1.296 53.216L1.392 50.912C1.072 50.912 0.912 50.88 0.912 50.816C0.912 47.104 0.784 42.624 0.528 37.376C0.336 32.128 0.24 29.344 0.24 29.024L0.624001 25.568V24.32C0.624001 23.936 0.592 23.648 0.528 23.456C0.528 23.2 0.432 23.04 0.24 22.976C0.496001 22.72 0.624001 22.368 0.624001 21.92C0.624001 21.6 0.528 21.184 0.336 20.672C0.208 20.16 0.144 19.776 0.144 19.52C0.272 18.496 0.496 16.736 0.816 14.24C1.2 11.744 1.488 10.496 1.68 10.496C1.616 10.496 1.552 10.464 1.488 10.4C1.424 10.272 1.392 10.144 1.392 10.016C1.392 9.504 1.584 8.896 1.968 8.192C2.416 7.424 3.344 7.04 4.752 7.04C4.816 7.04 4.88 7.104 4.944 7.232C5.072 7.296 5.136 7.328 5.136 7.328C5.712 7.072 6.32 6.944 6.96 6.944C7.344 6.944 7.856 7.008 8.496 7.136C9.136 7.2 9.68 7.264 10.128 7.328C10.448 7.328 11.024 7.2 11.856 6.944C12.688 6.688 13.392 6.56 13.968 6.56L15.408 6.65599L18.96 6.56C31.184 6.56 37.296 6.976 37.296 7.808L39.984 8.096V18.752L30.096 19.52C30.032 19.904 29.776 20.096 29.328 20.096C29.072 20.096 28.816 19.936 28.56 19.616H26.064ZM6 8.48C4.784 8.48 3.92 8.864 3.408 9.632C2.896 10.336 2.576 11.36 2.448 12.704C2.512 12.96 2.736 13.088 3.12 13.088C4.08 13.088 5.264 12.64 6.672 11.744C8.144 10.848 9.296 9.888 10.128 8.86399C8.592 8.608 7.216 8.48 6 8.48ZM2.16 27.872C2.224 27.872 2.288 27.904 2.352 27.968C2.416 28.032 2.448 28.128 2.448 28.256L2.16 29.696C2.16 29.824 2.256 30.048 2.448 30.368C2.704 30.688 2.832 30.976 2.832 31.232C3.344 31.104 3.792 30.752 4.176 30.176C4.56 29.6 4.88 29.216 5.136 29.024C5.136 29.344 4.944 29.888 4.56 30.656C4.24 31.424 4.048 32 3.984 32.384L3.6 31.712C3.536 32.032 3.312 32.896 2.928 34.304C2.608 35.712 2.448 37.248 2.448 38.912C2.704 38.784 2.928 38.4 3.12 37.76C3.376 37.056 3.536 36.672 3.6 36.608C3.728 36.48 4.304 35.744 5.328 34.4C6.416 33.056 7.344 32.256 8.112 32L7.824 31.712C8.08 31.456 8.432 31.008 8.88 30.368C9.328 29.728 9.744 29.28 10.128 29.024L9.648 28.928C9.456 28.928 9.2 29.056 8.88 29.312C8.56 29.504 8.304 29.632 8.112 29.696C8.112 29.184 8.272 28.8 8.592 28.544C8.912 28.288 9.424 28.032 10.128 27.776C10.512 27.648 10.864 27.488 11.184 27.296C11.504 27.104 11.664 26.848 11.664 26.528C11.664 26.208 11.504 25.504 11.184 24.416C10.48 25.12 9.712 25.824 8.88 26.528C8.048 27.168 7.44 27.488 7.056 27.488C7.312 27.296 7.6 26.944 7.92 26.432C8.24 25.856 8.56 25.44 8.88 25.184C8.368 25.184 7.824 25.312 7.248 25.568C6.736 25.76 6.288 25.888 5.904 25.952C6.352 25.312 7.184 24.64 8.4 23.936C9.616 23.168 10.544 22.784 11.184 22.784V19.904L8.88 22.208C8.496 22.208 8.08 22.464 7.632 22.976C7.248 23.488 6.704 24.256 6 25.28C4.976 26.752 4.304 27.616 3.984 27.872L3.888 27.296C3.888 25.888 5.072 24.192 7.44 22.208V21.824C7.248 21.888 6.928 22.016 6.48 22.208C6.032 22.4 5.712 22.496 5.52 22.496C5.968 21.6 6.48 21.12 7.056 21.056V21.44C7.696 20.864 8.368 20.416 9.072 20.096C9.84 19.776 10.416 19.488 10.8 19.232C11.248 18.912 12.112 17.888 13.392 16.16C14.736 14.368 15.408 13.344 15.408 13.088C15.344 12.96 15.312 12.8 15.312 12.608C15.312 12.224 15.44 11.904 15.696 11.648C15.952 11.328 16.304 11.008 16.752 10.688C17.52 10.048 18.192 9.43999 18.768 8.86399L18.384 8.576H12.336L8.592 12.32C7.952 12.576 7.44 12.864 7.056 13.184C6.736 13.504 6.032 14.24 4.944 15.392L3.6 16.832V17.216C3.92 17.088 4.4 16.768 5.04 16.256C5.68 15.68 6.224 15.392 6.672 15.392V15.776C6.672 16.096 6.16 16.608 5.136 17.312C4.112 18.016 3.344 18.368 2.832 18.368V17.6C2.512 17.6 2.32 17.952 2.256 18.656C2.192 19.296 2.16 19.68 2.16 19.808C2.16 20 2.16 20.448 2.16 21.152C2.224 21.856 2.32 22.464 2.448 22.976L3.216 23.168C3.152 23.296 2.992 23.456 2.736 23.648C2.48 23.776 2.352 23.904 2.352 24.032H3.6L2.16 24.8V27.872ZM13.104 17.984C13.552 18.24 14.128 18.368 14.832 18.368C15.28 18.368 15.696 18.24 16.08 17.984C16.464 17.728 16.88 17.344 17.328 16.832H16.56C17.264 15.936 17.872 15.424 18.384 15.296C18.384 15.744 18.352 16.128 18.288 16.448C18.224 16.768 18.192 17.152 18.192 17.6H17.616V17.984H21.36C21.488 17.856 21.84 17.536 22.416 17.024C22.992 16.448 23.44 16.128 23.76 16.064V16.736C24.464 16.736 25.52 15.968 26.928 14.432C28.336 12.832 29.2 11.904 29.52 11.648C29.52 12.864 29.264 13.472 28.752 13.472C26 16.224 24.432 17.6 24.048 17.6L27.12 17.984C27.248 17.984 27.376 17.504 27.504 16.544C27.632 15.584 27.984 14.912 28.56 14.528C29.264 14.016 29.84 13.12 30.288 11.84C30.352 11.712 30.512 11.36 30.768 10.784C31.088 10.144 31.504 9.632 32.016 9.248L31.632 8.86399H25.584C25.456 9.888 25.072 10.56 24.432 10.88C23.792 11.136 22.928 11.264 21.84 11.264C22.032 10.816 22.448 10.368 23.088 9.92C23.792 9.408 24.272 9.056 24.528 8.86399C24.464 8.672 24.208 8.576 23.76 8.576C22.16 8.576 20.912 8.704 20.016 8.96C19.184 9.216 18.64 9.824 18.384 10.784C18.32 11.168 17.584 12.128 16.176 13.664C15.088 14.88 14.544 15.584 14.544 15.776L14.64 16.064C14.704 16.064 15.248 15.712 16.272 15.008C17.296 14.24 18 13.856 18.384 13.856C18.256 13.92 18.096 14.176 17.904 14.624C17.712 15.008 17.488 15.2 17.232 15.2C16.848 15.2 16.176 15.616 15.216 16.448C14.192 17.344 13.488 17.856 13.104 17.984ZM34.704 8.86399C34.384 8.86399 33.968 9.12 33.456 9.632C33.008 10.144 32.784 10.624 32.784 11.072C32.784 11.392 32.336 12 31.44 12.896C30.352 13.856 29.808 14.56 29.808 15.008C30.192 14.624 30.896 14.176 31.92 13.664C33.008 13.216 33.68 12.768 33.936 12.32C34.192 12 34.608 11.616 35.184 11.168C35.824 10.72 36.272 10.336 36.528 10.016C36.656 10.016 36.752 10.08 36.816 10.208C36.944 10.272 37.008 10.368 37.008 10.496C37.008 10.944 36.72 11.52 36.144 12.224C35.632 12.928 35.152 13.472 34.704 13.856C34.704 13.536 34.704 13.28 34.704 13.088C34.768 12.832 34.896 12.576 35.088 12.32C34.64 12.448 33.36 13.312 31.248 14.912C29.2 16.448 28.176 17.344 28.176 17.6C30.288 17.6 32.208 16.352 33.936 13.856C33.936 13.984 33.84 14.24 33.648 14.624C33.52 15.008 33.456 15.296 33.456 15.488C33.456 15.616 33.488 15.744 33.552 15.872C33.68 16 33.808 16.064 33.936 16.064C33.36 16.192 33.072 16.448 33.072 16.832H37.296V16.16C36.976 16.16 36.72 16.032 36.528 15.776C36.72 15.776 36.944 15.712 37.2 15.584C37.52 15.456 37.776 15.328 37.968 15.2C37.776 14.496 37.392 14.144 36.816 14.144C36.368 14.144 35.856 14.336 35.28 14.72C34.704 15.04 34.352 15.2 34.224 15.2C34.224 14.816 34.608 14.432 35.376 14.048C36.208 13.664 36.848 13.472 37.296 13.472L37.872 10.304C37.872 9.856 37.488 9.504 36.72 9.248C36.016 8.99199 35.344 8.86399 34.704 8.86399ZM25.68 12.224C25.68 13.12 25.52 13.856 25.2 14.432C24.88 14.944 24.24 15.392 23.28 15.776C23.6 15.2 24.016 14.464 24.528 13.568C25.104 12.608 25.584 11.84 25.968 11.264C26.16 11.264 26.512 11.072 27.024 10.688C27.536 10.24 27.952 10.016 28.272 10.016C27.952 10.208 27.664 10.528 27.408 10.976C27.216 11.424 26.992 11.744 26.736 11.936C26.544 12.128 26.192 12.224 25.68 12.224ZM10.8 16.064C10.608 16.576 9.936 17.28 8.784 18.176C7.696 19.072 6.992 19.52 6.672 19.52C6.608 19.52 6.096 19.968 5.136 20.864C4.24 21.696 3.472 22.144 2.832 22.208C3.152 21.568 3.824 20.864 4.848 20.096C5.68 19.52 6.288 18.944 6.672 18.368C6.928 17.92 7.44 17.024 8.208 15.68C9.04 14.336 9.872 13.184 10.704 12.224C11.6 11.264 12.464 10.784 13.296 10.784C13.296 10.848 12.72 11.488 11.568 12.704L11.952 13.472L9.648 15.776H8.784C8.784 16.032 8.784 16.224 8.784 16.352C8.848 16.48 8.88 16.576 8.88 16.64L8.592 17.216L10.608 15.776C12.464 14.432 13.488 13.76 13.68 13.76C13.68 14.528 13.296 15.04 12.528 15.296C12.464 15.296 12.304 15.36 12.048 15.488C11.792 15.616 11.568 15.808 11.376 16.064C11.248 16.256 11.184 16.512 11.184 16.832L10.8 16.064ZM19.152 17.216H18.672C18.672 16.832 18.736 16.448 18.864 16.064C19.056 15.616 19.28 15.264 19.536 15.008L19.152 14.528L19.632 14.24L19.152 13.856C19.408 13.856 19.632 13.76 19.824 13.568C20.016 13.312 20.208 12.96 20.4 12.512C20.592 12.064 20.816 11.744 21.072 11.552C21.072 11.744 21.008 11.968 20.88 12.224C20.752 12.48 20.688 12.64 20.688 12.704C20.944 12.704 21.296 12.64 21.744 12.512C22.256 12.384 22.64 12.32 22.896 12.32C22.512 12.384 21.968 12.736 21.264 13.376C20.624 14.016 20.304 14.4 20.304 14.528V15.008L21.84 14.24C22.096 14.24 22.416 14.048 22.8 13.664C23.184 13.28 23.44 13.088 23.568 13.088C23.696 13.088 23.856 13.216 24.048 13.472C23.152 14.56 22.352 15.104 21.648 15.104L21.36 15.008L19.152 17.216ZM5.52 12.992C4.816 12.992 4.144 13.28 3.504 13.856C2.928 14.432 2.576 15.072 2.448 15.776L3.12 15.872C3.504 15.872 3.984 15.456 4.56 14.624C5.2 13.728 5.648 13.216 5.904 13.088L5.52 12.992ZM17.328 33.152C15.152 33.216 13.168 33.824 11.376 34.976C9.648 36.128 7.952 37.664 6.288 39.584C6.096 39.776 5.904 40.064 5.712 40.448C5.52 40.832 5.2 41.056 4.752 41.12L5.136 41.504L8.112 39.968C8.176 39.968 8.208 40.096 8.208 40.352C8.208 40.736 7.44 41.312 5.904 42.08C4.688 42.784 4.048 43.232 3.984 43.424H3.312C3.312 42.208 3.664 41.184 4.368 40.352C5.136 39.456 6.32 38.4 7.92 37.184C9.584 35.904 10.672 34.944 11.184 34.304H10.8C8.752 35.52 7.568 36.256 7.248 36.512C6.928 36.768 6.736 36.928 6.672 36.992C6.608 36.992 6.512 36.928 6.384 36.8C6.32 36.672 6.288 36.512 6.288 36.32C6.288 36.064 6.672 35.68 7.44 35.168C8.272 34.656 8.784 34.336 8.976 34.208C10.96 33.12 11.952 32.352 11.952 31.904C11.952 31.456 11.856 31.008 11.664 30.56C11.536 30.112 11.472 29.696 11.472 29.312L11.568 28.64C11.184 28.832 10.768 29.216 10.32 29.792C9.872 30.304 9.648 30.784 9.648 31.232C9.136 31.872 8.432 32.64 7.536 33.536C6.192 34.752 5.264 35.872 4.752 36.896L5.52 36.608L5.616 37.184C5.616 37.504 5.296 37.792 4.656 38.048C4.016 38.24 3.472 38.496 3.024 38.816C2.64 39.072 2.448 39.616 2.448 40.448C2.448 41.024 2.512 41.888 2.64 43.04C2.768 44.064 2.832 44.864 2.832 45.44C2.832 45.696 2.768 46.048 2.64 46.496C2.512 46.944 2.448 47.264 2.448 47.456C2.448 47.584 2.544 47.68 2.736 47.744C2.928 47.808 3.088 47.872 3.216 47.936C3.152 48 3.984 47.52 5.712 46.496C9.616 44.384 11.568 43.104 11.568 42.656C11.376 42.144 10.992 41.888 10.416 41.888C9.968 41.888 9.456 42.112 8.88 42.56C8.368 42.944 7.696 43.552 6.864 44.384C5.968 45.28 5.2 45.984 4.56 46.496C3.984 46.944 3.408 47.168 2.832 47.168C3.152 47.168 4.08 46.464 5.616 45.056C7.216 43.584 8.464 42.4 9.36 41.504C10.256 40.544 11.056 39.936 11.76 39.68C12.528 39.36 13.072 39.104 13.392 38.912L13.104 38.432C13.424 37.984 13.936 37.536 14.64 37.088C15.408 36.64 15.888 36.352 16.08 36.224V35.84C15.888 35.904 15.408 36 14.64 36.128C13.872 36.192 13.488 36.384 13.488 36.704L13.392 36.416C13.392 35.968 13.552 35.648 13.872 35.456C14.192 35.2 14.704 34.976 15.408 34.784C16.048 34.592 16.528 34.4 16.848 34.208C17.168 33.952 17.328 33.6 17.328 33.152ZM7.44 30.176L5.904 30.944C5.968 30.816 6.128 30.56 6.384 30.176C6.64 29.792 6.992 29.6 7.44 29.6V30.176ZM25.968 32.768C25.2 32.96 24.048 34.048 22.512 36.032C20.976 37.952 20.176 38.912 20.112 38.912C20.304 38.912 20.88 38.656 21.84 38.144C22.864 37.568 23.504 37.216 23.76 37.088C24.016 37.088 24.688 36.64 25.776 35.744C28.016 33.952 29.456 33.056 30.096 33.056V32.384C29.712 32.384 29.136 32.48 28.368 32.672C27.6 32.8 26.992 32.864 26.544 32.864L25.968 32.768ZM21.648 33.44C20.688 33.44 19.696 33.76 18.672 34.4C17.712 34.976 17.232 35.712 17.232 36.608L17.328 36.896C17.712 36.32 18.512 35.776 19.728 35.264C20.944 34.752 21.744 34.176 22.128 33.536L21.648 33.44ZM31.632 33.92C30.928 33.984 30 34.752 28.848 36.224C27.76 37.632 27.056 38.528 26.736 38.912C30 37.568 31.632 35.904 31.632 33.92ZM23.76 41.12C23.76 40.608 24.528 39.52 26.064 37.856C27.664 36.192 28.656 35.136 29.04 34.688C28.464 34.88 27.216 35.648 25.296 36.992C21.776 39.296 19.6 40.448 18.768 40.448C18.256 40.448 18 40.256 18 39.872C18 39.296 18.576 38.56 19.728 37.664C20.88 36.768 21.456 36 21.456 35.36C20.816 35.36 20.208 35.52 19.632 35.84C19.12 36.16 18.32 36.704 17.232 37.472C16.656 37.92 16.08 38.336 15.504 38.72C14.992 39.04 14.544 39.2 14.16 39.2L15.792 37.664C15.28 37.92 14.736 38.24 14.16 38.624C13.584 39.008 13.296 39.36 13.296 39.68C13.296 39.808 13.328 39.904 13.392 39.968L11.568 41.504C11.632 41.504 11.696 41.568 11.76 41.696C11.888 41.824 12.08 41.888 12.336 41.888L15.024 41.12L18 41.216C18.64 41.216 19.472 41.088 20.496 40.832C21.584 40.576 22.288 40.416 22.608 40.352C22.736 40.352 22.928 40.448 23.184 40.64C23.44 40.768 23.632 40.928 23.76 41.12ZM11.952 37.952C11.568 37.952 11.056 38.304 10.416 39.008C9.776 39.712 9.2 40.064 8.688 40.064C8.688 39.68 9.104 39.168 9.936 38.528C10.832 37.824 11.504 37.44 11.952 37.376V37.952ZM32.016 37.664L31.632 37.376L25.584 40.352L25.488 40.64C25.552 40.832 26.32 40.992 27.792 41.12C29.328 41.248 30.736 41.312 32.016 41.312V37.664ZM10.896 48.704C10.896 49.472 10.512 50.208 9.744 50.912C9.04 51.616 8.208 52.288 7.248 52.928C6.288 53.568 5.584 54.048 5.136 54.368H5.52C5.904 54.368 6.672 54.112 7.824 53.6C9.04 53.088 10.096 52.512 10.992 51.872C11.952 51.232 12.432 50.656 12.432 50.144C12.432 49.952 12.304 49.024 12.048 47.36C11.792 45.696 11.632 44.864 11.568 44.864H10.8C10.352 45.056 9.776 45.504 9.072 46.208C8.432 46.912 8.016 47.36 7.824 47.552C6.608 48.96 5.456 50.08 4.368 50.912L4.752 51.008C5.328 51.008 6.096 50.592 7.056 49.76C7.76 49.056 8.368 48.704 8.88 48.704C8.944 48.704 9.008 48.768 9.072 48.896C9.2 49.024 9.296 49.088 9.36 49.088L10.128 48.704L9.648 48.32C9.712 48.256 9.808 48.192 9.936 48.128C10.128 48 10.288 47.936 10.416 47.936C10.736 47.936 10.896 48.192 10.896 48.704ZM3.696 50.144C4.016 50.144 4.496 49.856 5.136 49.28C5.776 48.64 6.32 48.064 6.768 47.552C7.28 46.976 7.568 46.592 7.632 46.4C7.312 46.4 6.48 46.752 5.136 47.456C3.792 48.096 3.12 48.704 3.12 49.28C3.12 49.408 3.152 49.6 3.216 49.856C3.344 50.048 3.504 50.144 3.696 50.144ZM6.288 51.392V50.816C6.16 50.816 6 50.944 5.808 51.2C5.616 51.456 5.52 51.648 5.52 51.776C5.2 52.096 4.848 52.288 4.464 52.352C4.08 52.416 3.824 52.608 3.696 52.928C3.632 53.184 3.6 53.92 3.6 55.136C4.752 53.856 6.16 52.608 7.824 51.392V50.624L6.288 51.392ZM12.72 53.504C12.144 53.504 11.088 54.176 9.552 55.52C8.016 56.8 7.216 57.44 7.152 57.44C7.024 57.312 6.96 57.184 6.96 57.056C6.96 56.864 7.12 56.64 7.44 56.384C7.76 56.064 8.144 55.776 8.592 55.52C9.04 55.264 9.456 54.976 9.84 54.656C10.288 54.272 10.512 53.92 10.512 53.6L10.416 53.312C9.968 53.312 9.552 53.44 9.168 53.696C8.784 53.888 8.4 54.144 8.016 54.464C6.736 55.488 5.52 56.096 4.368 56.288L3.984 55.904C3.664 56.288 3.504 56.832 3.504 57.536L3.6 59.36L3.984 59.648C4.112 59.2 4.272 58.912 4.464 58.784C4.72 58.592 5.008 58.432 5.328 58.304C5.712 58.112 6.032 57.952 6.288 57.824C6.288 58.144 6 58.56 5.424 59.072C4.912 59.584 4.656 59.904 4.656 60.032C5.104 60.032 5.392 60.16 5.52 60.416C5.52 60.48 5.456 60.576 5.328 60.704C5.264 60.768 5.2 60.8 5.136 60.8C4.496 61.312 4.08 61.728 3.888 62.048C3.696 62.368 3.6 62.784 3.6 63.296C3.6 63.744 3.472 64.192 3.216 64.64C3.728 64.448 4.304 64.16 4.944 63.776C5.648 63.328 6.224 62.976 6.672 62.72C6.48 63.296 6.032 63.808 5.328 64.256C4.624 64.832 4.176 65.344 3.984 65.792C4.496 65.792 4.912 65.728 5.232 65.6C5.552 65.408 5.872 65.184 6.192 64.928C6.512 64.672 6.8 64.448 7.056 64.256C7.12 64.256 7.824 63.968 9.168 63.392C10 63.136 10.8 62.848 11.568 62.528C12.336 62.144 12.72 61.824 12.72 61.568V53.504ZM5.904 59.648C6.288 59.136 6.96 58.688 7.92 58.304C8.944 57.92 9.936 57.728 10.896 57.728C10.896 58.496 10.384 59.424 9.36 60.512C8.336 61.6 7.536 62.144 6.96 62.144C6.832 62.144 6.736 62.112 6.672 62.048C6.736 61.984 7.088 61.664 7.728 61.088C8.368 60.448 8.752 59.872 8.88 59.36C8.56 59.36 8.144 59.488 7.632 59.744C7.12 60 6.8 60.128 6.672 60.128C6.48 60.128 6.32 60.096 6.192 60.032C6.064 59.968 5.968 59.84 5.904 59.648ZM12.72 63.488L11.952 63.104C11.44 63.104 10.064 63.68 7.824 64.832C5.584 65.984 4.176 66.784 3.6 67.232H12.72V63.488ZM106.907 39.2C106.715 44.896 106.043 49.472 104.891 52.928C103.803 56.384 102.203 59.168 100.091 61.28C99.6433 61.28 99.0993 61.6 98.4593 62.24C97.8193 62.816 97.2113 63.424 96.6353 64.064C96.1233 64.704 95.7713 65.152 95.5793 65.408C95.3873 65.408 95.0993 65.536 94.7153 65.792C94.3953 66.048 94.1713 66.304 94.0433 66.56C88.0273 69.056 82.5873 70.304 77.7233 70.304C77.5953 70.304 77.2753 70.368 76.7633 70.496C76.2513 70.688 75.6433 70.784 74.9393 70.784C74.5553 70.784 74.2673 70.656 74.0753 70.4C73.8833 70.144 73.7233 70.016 73.5953 70.016C73.3393 70.016 73.1153 70.048 72.9233 70.112C72.7313 70.24 72.5713 70.304 72.4433 70.304C70.7793 70.304 69.2753 70.144 67.9313 69.824C66.6513 69.504 65.1153 68.896 63.3233 68C61.9793 67.552 60.6353 66.976 59.2913 66.272C57.9473 65.504 57.2753 64.832 57.2753 64.256V63.776C56.8913 63.776 56.0273 63.04 54.6833 61.568C53.8513 60.736 53.3393 60.256 53.1473 60.128C52.8913 59.936 52.6673 59.68 52.4753 59.36C52.3473 59.04 52.1873 58.784 51.9953 58.592C51.6113 58.592 50.8753 57.92 49.7873 56.576C48.7633 55.168 48.2513 54.08 48.2513 53.312H47.8672C47.6753 53.312 47.2593 52.352 46.6193 50.432C45.9793 48.448 45.3713 46.272 44.7953 43.904C44.2833 41.536 44.0273 39.648 44.0273 38.24C44.0273 37.472 44.3473 35.52 44.9873 32.384C45.6273 29.248 46.1713 27.232 46.6193 26.336C46.7473 26.144 47.0993 25.376 47.6753 24.032C48.8913 21.408 49.9793 19.328 50.9393 17.792C51.8993 16.192 53.1153 15.008 54.5873 14.24C54.9713 13.536 55.4833 12.992 56.1233 12.608C56.8273 12.224 57.7553 11.84 58.9073 11.456C59.8673 11.136 60.4753 10.912 60.7313 10.784L60.3473 10.496C60.4113 10.496 61.1153 10.208 62.4593 9.632L64.4753 8.86399L66.6833 8.48C68.3473 8.288 69.6593 8.096 70.6193 7.904C71.5793 7.64799 72.0593 7.35999 72.0593 7.04C73.0833 7.296 73.8193 7.424 74.2673 7.424C74.6513 7.424 75.3233 7.296 76.2833 7.04C77.2433 6.72 78.1073 6.56 78.8753 6.56C83.8033 6.56 87.3233 7.616 89.4353 9.72799C89.6273 9.72799 89.7873 9.696 89.9153 9.632C90.1073 9.504 90.2033 9.408 90.2033 9.344C90.7153 9.6 91.5793 9.952 92.7953 10.4C94.0113 10.848 94.9393 11.328 95.5793 11.84C96.2833 12.288 96.6353 12.768 96.6353 13.28H97.4993C97.5633 13.344 98.7793 14.24 101.147 15.968C103.515 17.632 104.699 21.216 104.699 26.72C104.699 27.232 104.667 27.616 104.603 27.872L106.907 39.2ZM72.0593 12.032C72.8913 11.456 74.4273 10.848 76.6673 10.208C78.9073 9.504 80.0273 8.96 80.0273 8.576H76.2833L72.0593 11.552V12.032ZM88.3793 10.496C86.5873 9.536 84.4433 9.056 81.9473 9.056C81.3713 9.504 80.7313 9.88799 80.0273 10.208C79.3233 10.464 78.6193 10.688 77.9153 10.88C76.9553 11.2 76.1553 11.52 75.5153 11.84C74.9393 12.096 74.4273 12.512 73.9793 13.088V12.32H73.5953C73.5313 12.32 73.4033 12.832 73.2113 13.856L73.3073 14.24C73.8833 13.408 74.4913 12.992 75.1313 12.992L75.5153 13.088L81.4673 10.496C81.5953 10.432 81.7873 10.4 82.0433 10.4C82.5553 10.4 82.8113 10.816 82.8113 11.648C82.8113 12.032 82.7793 12.256 82.7153 12.32L84.6353 11.552C84.7633 11.552 84.8913 11.616 85.0193 11.744C85.2113 11.808 85.3073 11.904 85.3073 12.032C85.3713 11.456 85.7233 11.072 86.3633 10.88C87.0033 10.624 87.6753 10.496 88.3793 10.496ZM58.0433 14.432C58.5553 14.432 60.3473 13.824 63.4193 12.608C66.5553 11.328 68.3153 10.464 68.6993 10.016C66.9073 10.016 64.9553 10.4 62.8433 11.168C60.7953 11.936 59.1953 12.896 58.0433 14.048V14.432ZM47.3873 44.576C47.3873 45.216 47.4833 45.888 47.6753 46.592C47.9313 47.296 48.3153 47.648 48.8273 47.648C49.0193 47.456 49.5953 46.912 50.5553 46.016C51.5793 45.056 52.3793 44.192 52.9553 43.424C53.5953 42.592 53.9153 41.952 53.9153 41.504L53.8193 41.12C53.8833 41.12 53.9153 41.152 53.9153 41.216C53.9793 41.28 54.0433 41.312 54.1073 41.312V42.272C54.8113 42.272 55.3233 41.792 55.6432 40.832C55.9633 39.808 56.1233 38.912 56.1233 38.144L53.1473 39.968C52.3793 39.968 51.8673 40.096 51.6113 40.352C51.6113 40.352 51.5473 40.32 51.4193 40.256C51.3553 40.192 51.3233 40.128 51.3233 40.064C51.7713 39.552 52.5393 38.88 53.6273 38.048C54.7153 37.152 55.5473 36.544 56.1233 36.224C56.4433 36.032 56.6353 35.648 56.6993 35.072C56.8273 34.432 56.8913 34.048 56.8913 33.92C56.1873 33.92 55.5153 34.048 54.8753 34.304C54.2353 34.56 53.7873 34.944 53.5312 35.456C53.5312 35.072 53.6593 34.656 53.9153 34.208C54.2353 33.696 54.4273 33.376 54.4913 33.248C54.4913 32.8 54.6193 32.512 54.8753 32.384C55.1953 32.256 55.7073 32.192 56.4113 32.192C57.1153 32.128 57.5313 31.968 57.6593 31.712L59.5793 27.872C59.3873 27.872 59.0673 28.128 58.6193 28.64C58.2353 29.088 57.9153 29.344 57.6593 29.408C57.1473 29.6 56.4113 29.792 55.4513 29.984C54.5553 30.176 53.7553 30.4 53.0513 30.656C52.4113 30.912 51.9313 31.264 51.6113 31.712C51.7393 31.392 51.8993 31.072 52.0913 30.752C52.3473 30.432 52.5713 30.24 52.7633 30.176L58.0433 27.872C56.6993 27.872 55.8353 27.936 55.4513 28.064C55.0673 28.192 54.7793 28.256 54.5873 28.256C54.5233 28.256 54.4593 28.224 54.3953 28.16C54.3313 28.032 54.2993 27.936 54.2993 27.872L58.6193 26.72C58.8113 26.72 59.0033 26.784 59.1953 26.912C59.3873 27.04 59.5793 27.104 59.7713 27.104C60.2833 27.104 60.8273 26.624 61.4033 25.664C61.9793 24.64 62.3633 23.84 62.5553 23.264C61.9793 23.264 61.3713 23.392 60.7313 23.648C60.1553 23.84 59.5473 24.096 58.9073 24.416C57.3713 25.184 56.0913 25.568 55.0673 25.568C55.4513 25.12 56.8593 24.416 59.2913 23.456C59.6753 23.264 60.1553 23.04 60.7313 22.784C61.3713 22.528 61.7233 22.336 61.7873 22.208C61.4033 22.208 60.6993 22.24 59.6753 22.304C58.6513 22.368 57.8513 22.464 57.2753 22.592V22.208C57.2753 22.08 57.9473 21.952 59.2913 21.824C60.6353 21.632 61.6593 21.504 62.3633 21.44C62.7473 21.44 63.0033 21.536 63.1313 21.728C63.2593 21.856 63.3233 22.144 63.3233 22.592C64.5393 21.248 65.9793 20.288 67.6433 19.712C69.3713 19.072 71.5473 18.528 74.1713 18.08L76.6673 17.6C76.7313 17.088 77.3073 16.608 78.3953 16.16C79.4833 15.712 80.1553 15.424 80.4113 15.296C80.4113 16.384 79.7713 16.928 78.4913 16.928V17.408C79.7713 17.408 81.4353 16.896 83.4833 15.872C85.5313 14.848 87.1633 14.336 88.3793 14.336V15.104C87.4193 15.104 86.3633 15.328 85.2113 15.776C84.1233 16.224 83.4833 16.48 83.2913 16.544C82.0113 17.056 81.0513 17.408 80.4113 17.6V17.984L83.0033 19.232V19.808C83.3873 19.808 83.9953 19.392 84.8273 18.56C85.4673 17.792 86.0113 17.376 86.4593 17.312L86.8433 17.984C86.9073 17.984 86.9713 17.824 87.0353 17.504C87.0993 17.184 87.3553 17.024 87.8033 17.024C88.5073 17.024 89.2753 16.736 90.1073 16.16C90.9393 15.52 91.3553 14.88 91.3553 14.24L89.4353 14.624L89.1473 14.528V13.472H93.6593V14.432C93.2753 14.432 92.6673 14.72 91.8353 15.296C91.0673 15.808 90.2673 16.384 89.4353 17.024C87.9633 18.24 87.0353 18.848 86.6513 18.848C86.5873 18.848 86.4913 18.816 86.3633 18.752C86.2353 18.624 86.1713 18.496 86.1713 18.368C85.9153 18.816 85.7233 19.136 85.5953 19.328C85.4673 19.456 85.2433 19.552 84.9233 19.616C84.6673 19.68 84.4113 19.808 84.1553 20C84.7313 20.064 85.4033 20.256 86.1713 20.576C86.9393 20.832 87.4193 21.12 87.6113 21.44C87.7393 20.992 87.9633 20.64 88.2833 20.384C88.6673 20.128 89.0833 20 89.5312 20C89.4673 20.256 89.2433 20.672 88.8593 21.248C88.5393 21.824 88.3793 22.208 88.3793 22.4C88.5713 22.592 88.8593 22.848 89.2433 23.168C89.6273 23.424 89.9473 23.616 90.2033 23.744C90.4593 23.744 90.8433 23.552 91.3553 23.168C91.9313 22.784 92.4113 22.592 92.7953 22.592C92.7953 22.912 92.5393 23.232 92.0273 23.552C91.5153 23.872 91.2593 24.224 91.2593 24.608C91.4513 24.544 91.7713 24.448 92.2192 24.32C92.7313 24.128 93.0833 23.936 93.2753 23.744C93.5313 23.744 93.6593 23.84 93.6593 24.032L91.3553 25.184C91.3553 25.824 91.4513 26.304 91.6433 26.624C91.8993 26.944 92.1873 27.104 92.5073 27.104C92.7633 27.104 92.9553 27.04 93.0833 26.912C93.2113 26.72 93.4033 26.528 93.6593 26.336C94.4273 26.144 95.0673 25.824 95.5793 25.376C96.1553 24.928 96.7633 24.32 97.4033 23.552C97.5313 23.424 97.7553 23.2 98.0753 22.88C98.3953 22.496 98.6833 22.24 98.9393 22.112C99.2593 21.92 99.5793 21.824 99.8993 21.824C100.091 21.824 100.219 21.92 100.283 22.112C100.347 22.304 100.411 22.464 100.475 22.592C100.347 22.72 99.9633 23.136 99.3233 23.84C98.7473 24.48 98.1073 24.8 97.4033 24.8L96.3473 25.568C95.9633 25.568 95.7073 25.824 95.5793 26.336L95.1953 25.952C95.1313 26.336 94.8113 26.688 94.2353 27.008C93.7233 27.264 93.4673 27.584 93.4673 27.968C94.1073 27.968 95.7073 27.616 98.2673 26.912C100.827 26.208 102.203 25.632 102.395 25.184C102.331 24.992 101.979 24.288 101.339 23.072C100.699 21.856 100.379 20.672 100.379 19.52C100.379 19.2 100.411 18.944 100.475 18.752C100.155 19.136 99.5793 19.616 98.7473 20.192C97.9793 20.704 97.4033 20.96 97.0193 20.96V20.576C97.0193 20.384 97.0513 20.224 97.1153 20.096C97.1793 19.968 97.3073 19.904 97.4993 19.904C97.7553 19.904 97.9793 19.936 98.1713 20L99.3233 18.368C98.6833 18.432 98.1393 18.528 97.6913 18.656C97.2433 18.784 96.8913 18.976 96.6353 19.232V18.368L98.9393 17.312C98.6193 16.48 97.9473 15.68 96.9233 14.912C95.8993 14.08 95.3233 13.6 95.1953 13.472C94.7473 13.088 93.9793 12.768 92.8913 12.512C92.0593 12.32 91.4193 12.128 90.9713 11.936C90.5873 11.744 90.2353 11.36 89.9153 10.784C89.7233 11.296 89.4673 11.712 89.1473 12.032V11.552C88.4433 11.872 87.8033 12.256 87.2273 12.704L86.8433 12.032C86.8433 12.224 86.7793 12.48 86.6513 12.8C86.5233 13.12 86.3633 13.344 86.1713 13.472C86.1073 13.216 85.9793 13.088 85.7873 13.088C85.5953 13.088 85.3073 13.248 84.9233 13.568C84.5393 13.888 84.2833 14.112 84.1553 14.24C83.9633 14.368 83.5793 14.656 83.0033 15.104C82.4913 15.552 82.0433 15.776 81.6593 15.776C81.4033 15.776 81.2433 15.744 81.1793 15.68V15.2C81.5633 15.072 82.1713 14.752 83.0033 14.24C83.8993 13.728 84.4113 13.344 84.5393 13.088L84.1553 12.992C83.6433 12.992 83.0673 13.088 82.4273 13.28C81.7873 13.472 81.3393 13.6 81.0833 13.664C79.6753 14.176 78.6193 14.432 77.9153 14.432C77.9153 14.176 77.9473 13.92 78.0113 13.664C78.1393 13.408 78.2033 13.152 78.2033 12.896C77.1793 12.896 76.6673 13.152 76.6673 13.664C76.6673 13.792 76.7313 14.08 76.8593 14.528C76.9873 14.912 77.1793 15.168 77.4353 15.296C76.6673 15.744 75.6753 16.224 74.4593 16.736C73.3073 17.184 72.2513 17.472 71.2913 17.6C71.2273 17.6 71.1313 17.536 71.0033 17.408C70.9393 17.28 70.9073 17.152 70.9073 17.024C70.9073 16.704 71.1953 16.48 71.7713 16.352C72.3473 16.16 72.8273 16.064 73.2113 16.064L74.2673 15.008C73.5633 15.008 71.6753 15.616 68.6033 16.832C65.5953 18.048 63.8353 18.944 63.3233 19.52L57.7553 21.344C56.2833 21.856 55.3553 22.112 54.9713 22.112C54.9073 22.112 54.7793 22.112 54.5873 22.112C54.4593 22.048 54.1073 22.016 53.5312 22.016C53.5953 21.888 53.7233 21.76 53.9153 21.632C54.1073 21.504 54.3313 21.44 54.5873 21.44L60.3473 19.52V20C61.3713 19.104 62.2673 18.56 63.0353 18.368C62.8433 18.112 62.4273 17.856 61.7873 17.6C62.3633 17.6 63.2273 17.184 64.3793 16.352C65.5953 15.456 66.4913 14.624 67.0673 13.856L67.5473 14.24C67.6113 13.856 68.1233 13.312 69.0833 12.608C70.0433 11.904 70.7793 11.2 71.2913 10.496C68.9873 11.84 66.2673 13.088 63.1313 14.24C59.9953 15.328 57.6273 15.872 56.0273 15.872C56.0273 16.128 55.8673 16.384 55.5473 16.64C55.2913 16.896 54.9713 17.12 54.5873 17.312C53.5633 17.952 52.7953 18.592 52.2833 19.232C51.7713 19.808 51.5153 20.672 51.5153 21.824H52.6673C52.6673 22.336 52.4433 22.592 51.9953 22.592C51.7393 22.592 51.1953 23.2 50.3633 24.416C49.5313 25.568 48.7633 26.912 48.0593 28.448C47.3553 29.984 47.0033 31.328 47.0033 32.48C47.4513 32.48 48.0273 32.256 48.7313 31.808C49.4353 31.296 50.0113 31.008 50.4593 30.944L50.5553 31.232C50.5553 31.68 50.3633 31.968 49.9793 32.096C49.5953 32.16 49.2753 32.288 49.0193 32.48C48.8273 32.608 48.7313 33.024 48.7313 33.728C47.0033 33.728 46.1393 35.488 46.1393 39.008C48.4433 36.96 49.6913 35.936 49.8833 35.936C49.9473 35.936 50.0113 36 50.0753 36.128C50.1393 36.192 50.1713 36.224 50.1713 36.224C50.1713 36.352 49.5953 36.992 48.4433 38.144H49.6913L46.6193 39.2C46.4913 39.84 46.2033 40.16 45.7553 40.16C45.7553 40.288 45.8193 40.352 45.9473 40.352C46.2673 40.864 46.4913 41.472 46.6193 42.176C46.7473 42.816 46.9073 43.36 47.0993 43.808C47.1633 43.424 47.4833 42.944 48.0593 42.368C48.6353 41.728 49.1473 41.408 49.5953 41.408L50.0753 41.504C50.0113 42.016 49.6913 42.4 49.1153 42.656C48.6033 42.912 48.1873 43.168 47.8672 43.424C47.5473 43.68 47.3873 44.064 47.3873 44.576ZM72.4433 13.856C72.3153 13.6 72.0593 13.472 71.6753 13.472C71.1633 13.472 70.9073 13.76 70.9073 14.336C71.1633 14.336 71.3553 14.24 71.4833 14.048C71.6753 13.856 71.8673 13.76 72.0593 13.76L72.4433 13.856ZM56.8913 14.24C56.7633 14.24 56.6033 14.272 56.4113 14.336C56.2833 14.4 56.1873 14.496 56.1233 14.624H57.2753C57.2753 14.496 57.2113 14.4 57.0833 14.336C57.0193 14.272 56.9553 14.24 56.8913 14.24ZM68.2193 15.008C67.1313 15.2 66.2673 15.552 65.6273 16.064C65.0513 16.576 64.7633 16.992 64.7633 17.312C64.7633 17.44 64.8593 17.504 65.0513 17.504C65.2433 17.504 66.3313 16.768 68.3153 15.296L68.2193 15.008ZM92.1233 16.832C93.0193 15.808 94.2033 15.296 95.6753 15.296C96.2513 15.296 96.5713 15.456 96.6353 15.776C96.4433 16.032 95.9313 16.48 95.0993 17.12C94.2673 17.696 93.6593 17.984 93.2753 17.984L92.5073 17.6L94.0433 16.832C93.3393 16.64 93.0193 16.544 93.0833 16.544C93.0193 16.544 92.6993 16.64 92.1233 16.832ZM91.9313 18.56C91.9313 18.944 91.8033 19.232 91.5473 19.424C91.2913 19.552 91.0033 19.616 90.6833 19.616L90.2033 19.52C90.5873 18.88 91.1633 18.56 91.9313 18.56ZM95.6753 18.752C95.6113 19.072 95.4193 19.36 95.0993 19.616C94.7793 19.808 94.4273 19.936 94.0433 20C94.0433 19.808 94.2993 19.584 94.8113 19.328C95.3233 19.008 95.6113 18.816 95.6753 18.752ZM59.1953 34.304C59.2593 34.304 59.3233 34.368 59.3873 34.496C59.5153 34.56 59.5793 34.624 59.5793 34.688C59.5793 35.072 59.3873 35.712 59.0033 36.608C58.6193 37.632 58.4273 38.4 58.4273 38.912C58.4273 44.16 59.4833 49.44 61.5953 54.752C62.1713 56.224 63.8673 57.44 66.6833 58.4C69.4993 59.296 71.8673 59.744 73.7873 59.744C82.6833 59.744 88.1553 56.576 90.2033 50.24C90.1393 50.368 90.2993 49.536 90.6833 47.744C90.8113 45.76 91.1632 44.448 91.7393 43.808C91.7393 42.72 91.8033 41.504 91.9313 40.16C92.1233 38.816 92.2192 37.888 92.2192 37.376C92.2192 36.16 92.0913 35.104 91.8353 34.208C91.6433 32.864 91.5473 31.904 91.5473 31.328C91.5473 29.216 90.7793 27.328 89.2433 25.664C87.7713 24 85.8833 22.688 83.5793 21.728C81.2753 20.768 79.0353 20.288 76.8593 20.288C72.5713 20.288 69.0513 21.056 66.2993 22.592C65.7233 23.04 64.6673 24.352 63.1313 26.528C61.6593 28.64 60.3473 31.232 59.1953 34.304ZM89.9153 21.056C89.9153 20.544 90.5873 20.288 91.9313 20.288H92.5073C91.5473 20.864 90.6833 21.248 89.9153 21.44V21.056ZM94.7153 21.824C94.7153 21.504 94.8113 21.312 95.0033 21.248C95.1953 21.12 95.5153 21.056 95.9633 21.056L94.8113 22.208L94.7153 21.824ZM95.5793 23.264C95.6433 23.136 95.9633 22.944 96.5393 22.688C97.1793 22.432 97.6273 22.272 97.8833 22.208C97.8833 22.976 97.3713 23.36 96.3473 23.36L95.5793 23.264ZM98.6513 52.832C99.2273 52.448 100.027 52.128 101.051 51.872C101.947 51.68 102.587 51.424 102.971 51.104C103.419 50.784 103.739 50.112 103.931 49.088C102.907 49.856 101.755 50.464 100.475 50.912C100.539 50.4 100.923 49.984 101.627 49.664H100.379C100.315 49.664 100.219 49.632 100.091 49.568C100.027 49.44 99.9953 49.312 99.9953 49.184C99.9953 48.992 100.315 48.832 100.955 48.704C101.595 48.576 101.947 48.448 102.011 48.32C102.011 48.384 102.043 48.48 102.107 48.608C102.235 48.672 102.331 48.704 102.395 48.704C103.483 48.704 104.155 48.256 104.411 47.36C104.731 46.4 104.891 45.376 104.891 44.288C104.955 43.136 105.019 42.336 105.083 41.888L104.603 41.12C103.067 42.4 101.691 43.04 100.475 43.04C101.179 42.208 101.819 41.792 102.395 41.792V40.64C102.011 40.64 101.627 40.672 101.243 40.736C100.923 40.8 100.571 40.832 100.187 40.832C99.8033 40.832 99.5153 40.8 99.3233 40.736C99.8993 40.544 100.507 40.384 101.147 40.256C101.851 40.128 102.395 40.032 102.779 39.968C102.843 40.032 102.907 40.16 102.971 40.352C103.099 40.48 103.163 40.608 103.163 40.736C103.291 40.224 103.547 39.872 103.931 39.68L104.603 40.352V37.664C104.347 37.6 104.219 37.408 104.219 37.088L104.315 36.608L102.395 26.72L99.3233 28.64V27.872C99.6433 27.872 99.8673 27.84 99.9953 27.776C100.123 27.648 100.187 27.392 100.187 27.008C99.2913 27.008 97.9153 27.36 96.0593 28.064C94.2033 28.768 93.2753 29.312 93.2753 29.696C93.2753 30.848 93.5313 31.52 94.0433 31.712C94.0433 31.456 94.1393 31.2 94.3313 30.944C94.5873 30.688 94.8753 30.528 95.1953 30.464L95.2913 30.944C95.2913 31.264 95.0673 31.552 94.6193 31.808C94.2353 32 93.8513 32.096 93.4673 32.096V33.536C94.0433 32.896 95.0993 32.576 96.6353 32.576H97.6913C97.6913 32.896 97.5313 33.088 97.2113 33.152C96.9553 33.216 96.4753 33.248 95.7712 33.248C95.0673 33.248 94.6193 33.344 94.4272 33.536C93.9153 34.048 93.6593 35.68 93.6593 38.432V38.912C93.7873 38.592 94.0113 38.208 94.3313 37.76C94.7153 37.312 94.9713 37.024 95.0993 36.896C95.0993 36.96 95.0993 37.056 95.0993 37.184C95.1633 37.248 95.1953 37.376 95.1953 37.568C95.1953 37.888 95.0673 38.176 94.8113 38.432H95.9633V38.912L93.6593 39.68V42.272C93.7233 41.76 94.0433 41.344 94.6193 41.024C95.1953 40.64 95.7393 40.448 96.2513 40.448C96.2513 40.96 96.0593 41.408 95.6753 41.792C95.3553 42.112 94.9713 42.432 94.5233 42.752C94.1393 43.072 93.8513 43.296 93.6593 43.424V46.4C93.7233 46.336 93.8193 46.272 93.9473 46.208C94.1393 46.144 94.2993 46.112 94.4272 46.112C94.4913 46.112 94.5553 46.144 94.6193 46.208C94.7473 46.272 94.8113 46.336 94.8113 46.4C94.8113 46.4 94.5553 46.656 94.0433 47.168L94.4272 47.264C94.6193 47.264 94.8753 47.2 95.1953 47.072C95.5153 46.944 95.7713 46.88 95.9633 46.88C95.6433 47.456 95.0353 47.904 94.1393 48.224C93.6273 48.416 93.2753 48.608 93.0833 48.8C92.8913 48.992 92.7953 49.344 92.7953 49.856C92.7953 50.176 92.8273 50.432 92.8913 50.624L90.4913 54.176H91.7393C91.7393 54.56 91.1313 55.2 89.9153 56.096C88.6993 56.992 87.6753 57.664 86.8433 58.112C85.4993 58.88 84.2513 59.424 83.0993 59.744C82.0113 60.064 80.6353 60.352 78.9713 60.608C77.4353 60.864 76.1233 61.152 75.0353 61.472C73.9473 61.792 72.8273 62.336 71.6753 63.104C70.8433 63.424 70.0433 63.808 69.2753 64.256C68.3793 64.768 67.5793 65.152 66.8752 65.408C66.1713 65.664 65.3073 65.792 64.2833 65.792C64.0913 65.792 63.9313 65.728 63.8033 65.6C63.7393 65.472 63.7073 65.376 63.7073 65.312C63.7073 65.184 64.2833 64.576 65.4353 63.488C66.5873 62.336 67.4193 61.6 67.9313 61.28C67.9953 61.152 68.1233 61.056 68.3153 60.992C68.5073 60.928 68.6353 60.864 68.6993 60.8C68.3793 60.736 67.7713 60.608 66.8752 60.416C66.0433 60.16 65.2113 60.032 64.3793 60.032C63.8673 60.032 63.2913 60.416 62.6513 61.184C61.9473 62.016 61.3073 62.432 60.7313 62.432C60.2193 62.432 59.9633 62.752 59.9633 63.392C59.9633 63.584 60.2193 63.776 60.7313 63.968C61.2433 64.16 61.6913 64.416 62.0753 64.736C62.4593 64.992 62.6833 65.44 62.7473 66.08H63.3233L67.0673 68C67.1953 67.552 67.4193 67.328 67.7393 67.328C68.0593 67.328 68.3793 67.68 68.6993 68.384C69.6593 68.704 71.0993 68.864 73.0193 68.864C73.4033 68.864 74.6193 68.704 76.6673 68.384C78.0753 68.128 79.0033 68 79.4513 68C79.7713 68 79.9953 68.064 80.1233 68.192C80.2513 68.192 80.3793 68.064 80.5073 67.808C80.6353 67.488 80.7313 67.328 80.7953 67.328L82.7153 66.464C86.5553 64.544 88.9553 63.584 89.9153 63.584C90.1073 63.584 90.2353 63.616 90.2993 63.68C90.2993 64.256 89.8513 64.736 88.9553 65.12C88.1233 65.504 87.2593 65.824 86.3633 66.08C85.4673 66.272 84.8593 66.432 84.5393 66.56C84.4113 66.368 84.3153 66.272 84.2513 66.272C84.1873 66.208 84.1553 66.176 84.1553 66.176C84.1553 66.432 83.8673 66.784 83.2913 67.232C82.7793 67.616 82.4273 67.872 82.2353 68C82.6193 68 83.3553 67.904 84.4433 67.712C85.5953 67.456 86.3313 67.296 86.6513 67.232C86.7793 67.232 86.8753 67.296 86.9393 67.424C87.0033 67.552 87.0993 67.616 87.2273 67.616C87.2273 67.296 87.3233 67.104 87.5153 67.04C87.7713 66.912 88.2513 66.848 88.9553 66.848C89.6593 66.784 90.0753 66.528 90.2033 66.08L90.6833 66.56C90.8753 66.112 91.3873 65.536 92.2192 64.832C93.0513 64.128 93.9793 63.424 95.0033 62.72C97.1793 61.12 98.4913 60.096 98.9393 59.648L98.6513 59.36C98.5873 59.744 98.0753 60.224 97.1153 60.8C96.2193 61.312 94.9393 61.952 93.2753 62.72C91.8033 63.424 91.0353 63.808 90.9713 63.872V63.104L96.6353 60.128V59.648C92.2192 60.992 89.1473 61.92 87.4193 62.432C85.6913 62.88 84.5713 63.2 84.0593 63.392C84.0593 63.264 84.3473 62.912 84.9233 62.336L90.9713 60.416C91.1633 60.416 92.1553 60.224 93.9473 59.84C96.2513 59.2 98.0433 58.88 99.3233 58.88C100.027 58.88 100.699 58.304 101.339 57.152C102.043 56 102.395 55.072 102.395 54.368C102.395 53.984 102.267 53.728 102.011 53.6C101.371 54.176 100.635 54.688 99.8033 55.136C98.9713 55.584 98.2353 55.808 97.5953 55.808C97.5953 55.488 97.7233 55.232 97.9792 55.04C98.2993 54.848 98.7793 54.624 99.4193 54.368C100.443 53.984 101.051 53.632 101.243 53.312L100.667 53.216C99.8993 53.216 98.8113 53.472 97.4033 53.984C95.9953 54.496 94.8753 54.752 94.0433 54.752V54.368L97.4033 52.832C97.2753 52.832 97.1793 52.768 97.1153 52.64C97.1153 52.448 97.0833 52.352 97.0193 52.352C97.0193 52.224 97.4353 51.904 98.2673 51.392C99.1633 50.816 99.7713 50.432 100.091 50.24C99.9633 50.432 99.6753 50.816 99.2273 51.392C98.8433 51.904 98.6513 52.384 98.6513 52.832ZM52.2833 27.296C52.2833 27.488 52.0593 27.68 51.6113 27.872C51.1633 28.064 50.8113 28.192 50.5553 28.256C50.1713 28.256 49.8833 28.128 49.6913 27.872C49.7553 27.744 49.9473 27.584 50.2673 27.392C50.6513 27.2 50.9713 27.104 51.2273 27.104C51.3553 27.104 51.5153 27.136 51.7073 27.2C51.9633 27.2 52.1553 27.232 52.2833 27.296ZM98.6513 28.64C98.6513 29.024 98.3313 29.408 97.6913 29.792C97.0513 30.112 96.4753 30.272 95.9633 30.272L95.8673 29.984C96.2513 29.984 96.7313 29.792 97.3073 29.408C97.9473 29.024 98.3953 28.768 98.6513 28.64ZM98.6513 32H101.531C101.531 32.384 101.691 32.64 102.011 32.768C101.819 33.088 101.211 33.632 100.187 34.4C99.2273 35.168 98.6193 35.552 98.3633 35.552L97.8833 35.456C98.5873 34.624 99.5793 33.728 100.859 32.768H98.6513V32ZM52.8593 35.072C52.8593 35.584 52.5713 35.84 51.9953 35.84L52.7633 34.688L52.8593 35.072ZM96.6353 35.84C96.6353 36.16 96.5713 36.48 96.4433 36.8C96.3153 37.056 96.0913 37.184 95.7712 37.184C95.7712 36.864 95.8353 36.608 95.9633 36.416C96.1553 36.224 96.3793 36.032 96.6353 35.84ZM100.859 38.432C100.987 37.92 101.275 37.472 101.723 37.088C102.171 36.64 102.651 36.416 103.163 36.416V37.28C102.971 37.28 102.555 37.472 101.915 37.856C101.339 38.176 100.987 38.368 100.859 38.432ZM53.5312 37.376C53.5312 37.632 53.1153 37.824 52.2833 37.952C51.5153 38.08 50.9073 38.144 50.4593 38.144L53.5312 37.376ZM97.4033 40.352C97.3393 40.352 97.2753 40.32 97.2113 40.256C97.1473 40.128 97.1153 40.032 97.1153 39.968C97.4353 39.712 97.7873 39.584 98.1713 39.584L98.6513 39.68C98.0113 40.128 97.5953 40.352 97.4033 40.352ZM98.6513 41.408C98.2673 41.408 97.6593 41.632 96.8273 42.08C96.0593 42.464 95.5153 42.656 95.1953 42.656C95.5793 42.464 96.0592 42.144 96.6353 41.696C97.2753 41.248 97.9473 41.024 98.6513 41.024V41.408ZM52.7633 42.656L51.6113 43.04C51.6113 42.72 51.7393 42.464 51.9953 42.272L52.7633 42.656ZM51.2273 42.656C50.6513 43.488 49.7553 43.904 48.5393 43.904V43.424C48.8593 43.424 49.2753 43.36 49.7873 43.232C50.3633 43.04 50.8433 42.848 51.2273 42.656ZM56.1233 42.656C55.1633 42.656 53.7873 43.648 51.9953 45.632C51.5473 45.696 51.0993 45.984 50.6513 46.496C50.2673 47.008 50.0753 47.392 50.0753 47.648C50.7793 47.52 51.8993 47.264 53.4353 46.88C54.9713 46.432 55.7713 46.016 55.8353 45.632L56.1233 42.656ZM99.7073 43.712C99.3233 43.712 98.6513 44 97.6913 44.576C96.7313 45.088 95.8993 45.6 95.1953 46.112L95.5793 45.344C96.1553 45.152 96.7633 44.736 97.4033 44.096C97.8513 43.712 98.2353 43.456 98.5553 43.328C98.8753 43.136 99.2593 43.04 99.7073 43.04V43.712ZM100.475 47.936C100.155 48.064 99.7073 48.192 99.1313 48.32C98.5553 48.448 98.0753 48.608 97.6913 48.8C97.3713 48.992 97.2113 49.216 97.2113 49.472H99.3233C98.6833 49.536 98.1073 49.728 97.5953 50.048C97.0833 50.368 96.5393 50.56 95.9633 50.624L96.3473 49.856C96.3473 49.728 96.2833 49.6 96.1553 49.472C96.0913 49.344 96.0273 49.216 95.9633 49.088C96.9873 48.512 97.7233 48.16 98.1713 48.032C99.1313 47.712 100.027 47.168 100.859 46.4C99.7073 46.4 98.8433 46.464 98.2673 46.592C97.6913 46.72 96.9233 47.072 95.9633 47.648C96.4753 46.944 97.2433 46.432 98.2673 46.112C99.2913 45.792 100.283 45.632 101.243 45.632C102.331 45.632 102.875 45.824 102.875 46.208C102.683 46.208 102.299 46.496 101.723 47.072C101.147 47.584 100.731 47.872 100.475 47.936ZM48.5393 49.856C48.5393 49.984 48.6673 50.144 48.9233 50.336C49.1793 50.528 49.4033 50.656 49.5953 50.72C50.3633 50.72 51.0353 50.432 51.6113 49.856L51.9953 50.624C52.1873 50.496 52.6993 50.304 53.5312 50.048C54.4273 49.792 55.2913 49.344 56.1233 48.704C56.1233 48.576 56.0593 48.448 55.9313 48.32C55.8673 48.128 55.8033 48 55.7393 47.936C55.2273 47.936 54.1073 48.576 52.3793 49.856L52.2833 49.472C52.2833 49.024 52.6353 48.576 53.3393 48.128C54.0433 47.68 54.4593 47.36 54.5873 47.168C53.5633 47.168 52.2833 47.488 50.7473 48.128C49.2753 48.768 48.5393 49.344 48.5393 49.856ZM93.5633 49.856C93.7553 49.856 94.0113 49.792 94.3313 49.664C94.6513 49.472 95.0033 49.376 95.3873 49.376C95.3873 49.952 94.8113 50.24 93.6593 50.24L93.5633 49.856ZM51.8993 55.232C51.8993 54.336 52.5073 53.344 53.7233 52.256C54.6193 51.36 55.0673 50.688 55.0673 50.24C54.3633 50.368 53.3393 50.72 51.9953 51.296C50.7153 51.808 50.0753 52.224 50.0753 52.544C50.0753 52.992 50.2673 53.568 50.6513 54.272C51.0353 54.912 51.4513 55.232 51.8993 55.232ZM53.3393 57.152C53.9793 57.152 54.9393 56.704 56.2193 55.808C57.4993 54.848 58.1393 54.08 58.1393 53.504C57.6273 53.504 56.9233 53.696 56.0273 54.08C55.1313 54.4 54.3953 54.752 53.8193 55.136C54.0753 54.368 54.8113 53.856 56.0273 53.6C57.0513 53.344 57.7233 52.992 58.0433 52.544C57.9153 51.968 57.7873 51.552 57.6593 51.296C57.5313 51.04 57.2753 50.912 56.8913 50.912C56.5073 50.912 55.8993 51.264 55.0673 51.968C54.2353 52.672 53.5953 53.376 53.1473 54.08C53.4033 54.336 53.5312 54.496 53.5312 54.56C53.5312 54.816 53.3073 55.04 52.8593 55.232C52.4753 55.424 52.2833 55.584 52.2833 55.712C52.4113 56.032 52.5713 56.352 52.7633 56.672C53.0193 56.992 53.2113 57.152 53.3393 57.152ZM92.1233 54.848C92.1233 54.144 92.5073 53.696 93.2753 53.504C94.0433 53.312 94.4593 53.216 94.5233 53.216C94.3953 53.472 94.1713 53.792 93.8513 54.176C93.5313 54.56 93.2433 54.88 92.9873 55.136C92.4113 55.136 92.1233 55.04 92.1233 54.848ZM58.6193 62.432C59.1953 62.432 59.6113 62.176 59.8673 61.664C60.1233 61.088 60.3793 60.608 60.6353 60.224C60.9553 59.84 61.4993 59.648 62.2673 59.648L61.4993 60.416C62.7153 60.416 63.3233 60.064 63.3233 59.36C63.3233 59.104 63.0033 58.976 62.3633 58.976C61.7873 58.912 61.4993 58.816 61.4993 58.688C61.4993 58.56 61.7873 58.272 62.3633 57.824C61.5953 57.824 61.0513 57.696 60.7313 57.44C60.3473 57.504 59.8353 57.728 59.1953 58.112C58.6193 58.496 58.2033 58.688 57.9473 58.688L57.6593 58.592C58.1713 57.952 58.6833 57.568 59.1953 57.44L58.8113 57.056C59.0033 57.056 59.2273 56.896 59.4833 56.576C59.8033 56.256 59.9633 56.032 59.9633 55.904C59.8993 55.648 59.7713 55.392 59.5793 55.136C59.4513 54.816 59.3233 54.56 59.1953 54.368C58.4913 54.88 57.5953 55.488 56.5073 56.192C55.4193 56.832 54.6513 57.152 54.2032 57.152C54.2032 57.792 54.3313 58.112 54.5873 58.112C54.7153 58.112 54.8433 58.08 54.9713 58.016C55.1633 57.952 55.2913 57.888 55.3553 57.824V58.688L54.8753 58.592L54.5873 58.88C54.5873 59.2 54.9393 59.52 55.6432 59.84C56.3473 60.096 57.4353 60.224 58.9073 60.224L59.5793 60.128C59.4513 60.32 59.1953 60.48 58.8113 60.608C58.4913 60.736 58.1713 60.8 57.8513 60.8C57.6593 60.8 57.4993 60.768 57.3713 60.704C57.3073 60.576 57.2753 60.48 57.2753 60.416L57.1793 61.088C57.1793 61.408 57.3073 61.728 57.5633 62.048C57.8833 62.304 58.2353 62.432 58.6193 62.432ZM93.2753 58.112C93.2753 57.6 93.4353 57.248 93.7553 57.056C94.1393 56.864 94.7153 56.672 95.4833 56.48C96.3153 56.288 96.8593 56.096 97.1153 55.904C97.1793 56.224 96.6673 56.672 95.5793 57.248C94.4913 57.824 93.7233 58.112 93.2753 58.112ZM89.9153 58.88C90.1073 58.56 90.4593 58.304 90.9713 58.112C91.5473 57.92 92.0593 57.824 92.5073 57.824V58.592L92.1233 58.112C91.4833 58.688 90.8433 58.976 90.2033 58.976L89.9153 58.88ZM85.9793 60.512C85.8513 60.512 85.7233 60.48 85.5953 60.416C85.4673 60.352 85.3713 60.256 85.3073 60.128C85.8193 59.936 86.3313 59.776 86.8433 59.648C87.3553 59.456 87.7393 59.328 87.9953 59.264V59.648C87.9953 59.712 87.7073 59.872 87.1313 60.128C86.5553 60.32 86.1713 60.448 85.9793 60.512ZM79.6433 63.488C80.0273 63.104 80.7633 62.56 81.8513 61.856C83.0033 61.088 83.7713 60.704 84.1553 60.704L84.9233 60.8C84.2193 61.44 83.3873 62.08 82.4273 62.72C81.5313 63.296 80.7953 63.584 80.2193 63.584L79.6433 63.488ZM72.0593 61.568C70.9073 61.568 70.0753 61.632 69.5633 61.76C69.1153 61.888 68.6033 62.144 68.0273 62.528C67.5793 62.912 66.7793 63.36 65.6273 63.872C65.8193 63.872 66.0113 64 66.2032 64.256C66.4593 64.512 66.6513 64.64 66.7793 64.64C67.1633 64.64 67.5153 64.48 67.8353 64.16C68.2193 63.776 68.5073 63.552 68.6993 63.488C69.3393 63.488 70.4593 62.848 72.0593 61.568ZM78.2033 64.256C78.2033 64.512 78.3953 64.64 78.7793 64.64C79.0993 64.64 79.4193 64.608 79.7393 64.544C80.1233 64.48 80.3793 64.448 80.5073 64.448C80.5073 64.768 79.7393 65.216 78.2033 65.792C76.6673 66.304 75.6433 66.56 75.1313 66.56C75.1313 65.088 75.7393 64.064 76.9553 63.488C77.0193 63.552 77.0513 63.744 77.0513 64.064C77.0513 64.32 76.9233 64.544 76.6673 64.736C76.4113 64.928 76.2833 65.152 76.2833 65.408C76.6673 65.216 77.0193 65.024 77.3393 64.832C77.6593 64.64 77.9473 64.448 78.2033 64.256ZM70.2353 66.848C71.0673 66.784 71.7713 66.592 72.3473 66.272C72.9873 65.888 73.5313 65.6 73.9793 65.408C73.9793 65.984 73.4993 66.464 72.5393 66.848C71.6433 67.168 70.8753 67.328 70.2353 67.328V66.848ZM159.795 38.72C161.395 42.624 162.195 46.688 162.195 50.912C162.195 54.368 161.651 57.216 160.563 59.456C159.539 61.632 158.003 63.456 155.955 64.928C153.907 66.336 151.187 67.68 147.795 68.96C147.283 69.152 146.643 69.408 145.875 69.728C145.171 70.048 144.499 70.272 143.859 70.4C143.283 70.528 142.579 70.592 141.747 70.592C139.123 70.592 136.627 70.24 134.259 69.536C131.955 68.832 129.299 67.808 126.291 66.464C125.843 66.272 124.915 65.952 123.507 65.504C122.163 64.992 121.011 64.48 120.051 63.968C118.899 63.392 117.683 62.208 116.403 60.416C115.123 58.624 114.035 56.704 113.139 54.656C112.243 52.608 111.795 50.912 111.795 49.568C111.795 46.368 112.147 43.84 112.851 41.984C113.619 40.064 115.091 37.408 117.267 34.016C120.659 27.36 126.963 23.424 136.179 22.208H137.811C138.707 22.208 139.571 22.336 140.403 22.592C141.299 22.784 142.163 23.04 142.995 23.36L145.683 24.224C149.523 25.184 152.403 26.784 154.323 29.024C156.243 31.2 158.067 34.432 159.795 38.72ZM139.155 24.992C138.579 24.992 138.291 25.568 138.291 26.72C138.291 26.848 138.323 26.944 138.387 27.008C138.515 27.072 138.611 27.104 138.675 27.104L143.187 26.336C142.675 25.952 142.035 25.632 141.267 25.376C140.499 25.12 139.795 24.992 139.155 24.992ZM132.051 25.088C129.107 25.6 127.027 26.432 125.811 27.584C127.091 27.584 128.339 27.424 129.555 27.104C130.771 26.72 131.603 26.048 132.051 25.088ZM123.891 36.128C122.163 36.32 120.723 36.608 119.571 36.992C118.483 37.312 117.683 37.888 117.171 38.72C119.987 37.312 122.835 36.608 125.715 36.608C126.291 36.608 126.611 36.768 126.675 37.088C126.483 37.216 126.291 37.472 126.099 37.856C125.907 38.24 125.683 38.528 125.427 38.72L118.803 41.216L119.283 41.6C119.923 41.472 120.819 41.344 121.971 41.216C123.443 41.024 124.595 40.736 125.427 40.352C126.259 39.904 126.963 39.072 127.539 37.856C127.539 37.024 128.179 36.032 129.459 34.88C130.803 33.664 132.339 32.608 134.067 31.712C135.795 30.816 137.203 30.368 138.291 30.368C138.611 30.56 139.251 30.848 140.211 31.232C141.235 31.616 141.971 31.808 142.419 31.808C142.675 31.808 143.347 31.392 144.435 30.56C145.587 29.664 146.291 29.056 146.547 28.736C146.611 28.736 146.771 28.608 147.027 28.352H145.779C145.779 28.032 145.875 27.776 146.067 27.584C146.259 27.392 146.579 27.232 147.027 27.104C146.963 27.04 146.835 26.976 146.643 26.912C146.451 26.784 146.291 26.72 146.163 26.72C146.099 26.784 145.811 26.976 145.299 27.296C144.787 27.552 144.531 27.776 144.531 27.968C144.595 27.968 144.659 28.064 144.723 28.256C144.851 28.384 144.915 28.512 144.915 28.64C144.915 29.472 143.667 29.888 141.171 29.888H140.499C140.115 29.888 139.923 29.792 139.923 29.6L141.171 27.968C139.059 28.48 135.923 29.664 131.763 31.52C129.843 32.416 128.435 33.024 127.539 33.344C127.027 33.536 126.675 33.792 126.483 34.112C126.355 34.368 126.259 34.72 126.195 35.168C126.131 35.552 126.003 35.776 125.811 35.84L123.891 36.128ZM125.427 29.216C124.403 29.216 123.379 29.6 122.355 30.368C121.331 31.136 120.467 32.096 119.763 33.248C119.123 34.336 118.803 35.328 118.803 36.224L122.931 35.072C123.059 34.752 123.251 34.4 123.507 34.016C123.763 33.632 123.987 33.408 124.179 33.344L131.667 30.368L131.571 29.984C131.571 29.536 131.795 29.216 132.243 29.024C132.755 28.768 133.491 28.544 134.451 28.352C134.579 28.352 134.931 28.288 135.507 28.16C136.083 28.032 136.467 27.84 136.659 27.584L136.179 27.488C135.155 27.488 134.003 27.776 132.723 28.352C131.443 28.928 130.739 29.248 130.611 29.312H129.939C129.363 29.312 128.979 29.408 128.787 29.6L129.171 30.08L128.115 30.368V29.216H127.731C127.667 29.28 127.091 29.792 126.003 30.752C124.915 31.648 123.347 32.096 121.299 32.096C121.619 31.648 122.099 31.264 122.739 30.944C123.443 30.624 123.859 30.432 123.987 30.368C125.011 30.048 125.619 29.664 125.811 29.216H125.427ZM151.155 29.024C151.155 28.576 150.707 28.352 149.811 28.352C149.299 28.352 148.531 28.704 147.507 29.408C146.483 30.112 145.747 30.72 145.299 31.232H145.683C147.795 30.464 149.203 29.92 149.907 29.6C150.675 29.28 151.091 29.088 151.155 29.024ZM152.595 30.272L148.659 33.344L148.371 33.248C148.179 33.248 147.859 33.408 147.411 33.728C147.027 34.048 146.611 34.208 146.163 34.208C146.355 33.888 147.027 33.312 148.179 32.48C149.331 31.648 149.907 31.2 149.907 31.136L149.811 30.848C147.763 31.616 146.355 32.16 145.587 32.48C144.883 32.8 144.499 32.992 144.435 33.056C144.435 33.184 144.883 33.888 145.779 35.168C146.611 36.256 147.123 37.024 147.315 37.472C148.019 36.96 148.947 36.384 150.099 35.744C151.315 35.04 152.051 34.688 152.307 34.688V35.552C151.987 35.552 151.571 35.744 151.059 36.128C150.547 36.512 150.131 36.864 149.811 37.184C149.491 37.504 149.299 37.728 149.235 37.856C149.747 37.728 150.483 37.504 151.443 37.184C152.467 36.864 153.331 36.544 154.035 36.224C154.035 36.16 154.067 36.096 154.131 36.032C154.259 35.904 154.355 35.84 154.419 35.84C154.931 35.84 155.347 35.968 155.667 36.224C155.731 36.096 155.763 35.904 155.763 35.648C155.763 35.072 155.315 34.752 154.419 34.688C153.587 34.56 153.139 34.464 153.075 34.4C153.075 34.272 153.107 34.112 153.171 33.92C153.299 33.664 153.427 33.312 153.555 32.864C153.299 32.864 152.851 33.024 152.211 33.344C151.571 33.664 151.059 33.824 150.675 33.824L149.811 33.728L153.555 32.096L152.595 30.272ZM149.811 52.16C151.795 50.688 153.459 49.664 154.803 49.088L154.227 48.992C153.779 48.992 152.979 49.216 151.827 49.664C150.739 50.048 150.067 50.24 149.811 50.24C149.683 50.24 149.587 50.176 149.523 50.048C149.459 49.856 149.427 49.728 149.427 49.664C149.427 49.216 149.683 48.736 150.195 48.224C150.771 47.712 151.571 47.104 152.595 46.4C153.875 45.376 154.611 44.768 154.803 44.576H154.419L149.043 46.592C148.915 46.656 148.691 47.52 148.371 49.184C148.115 50.784 147.763 51.84 147.315 52.352C145.587 54.272 144.659 55.232 144.531 55.232H144.051C145.075 54.528 145.747 53.536 146.067 52.256C146.387 50.912 146.547 49.408 146.547 47.744C146.547 46.336 146.323 44.608 145.875 42.56C145.491 40.448 144.851 38.592 143.955 36.992C143.059 35.328 141.971 34.4 140.691 34.208C140.179 34.528 139.763 34.688 139.443 34.688C139.059 34.688 138.547 34.464 137.907 34.016C137.331 33.568 136.851 33.344 136.467 33.344C135.507 33.344 134.387 33.824 133.107 34.784C131.891 35.744 130.835 36.864 129.939 38.144C129.107 39.424 128.691 40.48 128.691 41.312L128.787 42.272C128.787 42.528 128.627 43.072 128.307 43.904C128.051 44.736 127.923 45.76 127.923 46.976C127.923 50.112 128.787 52.704 130.515 54.752C132.243 56.8 134.643 57.824 137.715 57.824C141.683 57.824 145.171 56 148.179 52.352C147.923 52.8 147.795 53.216 147.795 53.6L149.811 52.16ZM156.915 39.104C156.915 38.976 156.915 38.592 156.915 37.952C156.915 37.312 156.659 36.992 156.147 36.992C155.635 37.248 154.835 37.632 153.747 38.144C152.659 38.592 151.699 39.104 150.867 39.68C150.035 40.192 149.299 40.832 148.659 41.6C149.171 41.536 149.747 41.376 150.387 41.12C151.091 40.8 151.571 40.576 151.827 40.448C153.491 39.488 154.899 39.008 156.051 39.008L156.915 39.104ZM116.307 39.968C116.051 40.224 115.923 40.64 115.923 41.216C116.371 41.024 117.395 40.64 118.995 40.064C120.595 39.424 121.907 38.816 122.931 38.24C122.355 38.24 121.331 38.432 119.859 38.816C118.451 39.2 117.267 39.584 116.307 39.968ZM157.683 40.256C157.491 40.32 157.139 40.448 156.627 40.64C156.179 40.832 155.859 41.024 155.667 41.216C155.475 41.408 154.643 41.952 153.171 42.848C151.763 43.68 150.771 44.256 150.195 44.576L149.811 45.056L157.683 42.368V40.256ZM148.851 43.808C149.683 43.808 150.771 43.296 152.115 42.272C153.523 41.248 154.419 40.608 154.803 40.352H154.035C153.907 40.352 152.371 41.024 149.427 42.368C149.043 42.56 148.851 43.04 148.851 43.808ZM121.875 41.984C119.571 41.984 117.779 42.208 116.499 42.656C115.283 43.04 114.675 44.064 114.675 45.728C116.275 45.28 118.195 44.64 120.435 43.808C122.739 42.976 124.275 42.4 125.043 42.08L122.547 41.984H121.875ZM122.163 44.96C122.739 44.96 123.443 44.832 124.275 44.576C125.107 44.32 125.523 43.968 125.523 43.52L125.427 43.232C125.235 43.424 124.691 43.648 123.795 43.904C122.963 44.16 122.131 44.48 121.299 44.864L122.163 44.96ZM158.163 43.712C157.715 43.712 156.339 44.672 154.035 46.592C153.331 47.232 152.499 47.904 151.539 48.608C152.883 48.352 154.387 47.744 156.051 46.784C157.779 45.76 158.643 44.736 158.643 43.712H158.163ZM114.195 49.472C114.195 49.92 114.227 50.176 114.291 50.24C115.379 49.6 116.915 48.96 118.899 48.32C121.459 47.488 123.283 46.624 124.371 45.728C122.643 45.728 120.499 46.048 117.939 46.688C115.443 47.328 114.195 48.256 114.195 49.472ZM125.427 46.976C124.915 47.36 123.507 47.904 121.203 48.608C120.883 48.736 120.179 48.992 119.091 49.376C118.067 49.76 117.267 50.112 116.691 50.432C116.179 50.688 115.923 50.912 115.923 51.104C116.755 50.848 117.843 50.656 119.187 50.528C121.107 50.272 122.579 49.92 123.603 49.472C124.627 49.024 125.235 48.192 125.427 46.976ZM159.795 49.088L159.411 47.36C158.963 47.36 158.515 47.584 158.067 48.032C157.683 48.416 157.267 48.8 156.819 49.184C156.371 49.568 155.699 49.92 154.803 50.24V50.72C155.827 50.016 157.075 49.6 158.547 49.472L159.795 49.088ZM159.795 49.856C158.451 51.008 156.307 52.288 153.363 53.696C151.059 54.912 149.619 55.712 149.043 56.096L147.315 56.96H147.795C148.307 56.96 150.067 56.352 153.075 55.136C156.147 53.856 158.259 52.928 159.411 52.352C159.603 52.288 159.699 52.128 159.699 51.872C159.763 51.552 159.795 51.232 159.795 50.912V49.856ZM115.059 52.544C115.059 52.928 115.123 53.216 115.251 53.408C115.379 53.536 115.603 53.6 115.923 53.6C116.691 53.6 118.547 52.896 121.491 51.488C121.875 51.296 122.227 51.136 122.547 51.008C122.867 50.88 123.123 50.784 123.315 50.72V50.24L122.931 50.336L120.627 50.912C117.939 51.424 116.083 51.968 115.059 52.544ZM125.235 51.008C124.531 51.264 123.219 51.744 121.299 52.448C119.443 53.088 118.483 53.472 118.419 53.6H119.091C120.051 53.6 121.395 53.472 123.123 53.216C124.915 52.896 125.811 52.48 125.811 51.968C125.811 51.776 125.747 51.584 125.619 51.392C125.491 51.136 125.363 51.008 125.235 51.008ZM117.747 56.48C118.003 56.48 119.219 56.096 121.395 55.328C123.571 54.496 125.043 53.92 125.811 53.6C122.931 53.6 119.923 54.144 116.787 55.232C116.851 55.488 116.979 55.776 117.171 56.096C117.363 56.352 117.555 56.48 117.747 56.48ZM150.675 53.6C149.779 53.664 148.659 54.08 147.315 54.848C145.971 55.552 145.299 56.352 145.299 57.248C145.491 57.056 145.843 56.832 146.355 56.576C146.931 56.256 147.347 56 147.603 55.808C147.859 55.616 148.403 55.296 149.235 54.848C150.067 54.4 150.547 53.984 150.675 53.6ZM154.419 60.224C155.891 59.712 157.107 59.008 158.067 58.112C159.027 57.152 159.507 56 159.507 54.656C158.931 54.656 157.171 55.68 154.227 57.728C151.283 59.712 149.267 61.12 148.179 61.952H149.043L154.419 59.456V60.224ZM120.435 56.96C123.123 56.96 125.491 56.544 127.539 55.712C127.539 55.584 127.475 55.424 127.347 55.232C127.219 54.976 127.091 54.848 126.963 54.848L122.547 56.096L121.587 56C120.755 56 120.339 56.224 120.339 56.672L120.435 56.96ZM140.691 61.952C141.011 62.016 141.171 62.304 141.171 62.816V63.104L137.523 64.736C139.251 64.736 140.851 64.448 142.323 63.872C143.859 63.232 145.427 62.304 147.027 61.088C147.731 60.576 149.331 59.52 151.827 57.92C154.259 56.384 155.827 55.36 156.531 54.848C155.443 54.848 154.355 55.072 153.267 55.52C152.179 55.968 150.899 56.64 149.427 57.536C148.019 58.368 146.803 59.008 145.779 59.456C144.819 59.904 143.827 60.128 142.803 60.128V59.264C142.355 59.264 141.491 59.488 140.211 59.936C138.995 60.384 138.355 60.768 138.291 61.088C138.291 61.024 137.651 60.8 136.371 60.416C135.091 59.968 134.323 59.744 134.067 59.744C134.067 60.512 134.579 60.96 135.603 61.088C136.691 61.216 137.267 61.28 137.331 61.28C137.331 61.472 136.531 61.952 134.931 62.72C133.651 63.36 132.947 63.776 132.819 63.968C134.803 63.456 136.019 63.168 136.467 63.104C137.875 62.784 139.283 62.4 140.691 61.952ZM119.667 60.224C120.243 60.224 121.491 59.84 123.411 59.072C125.395 58.24 126.483 57.632 126.675 57.248L125.811 56.96C122.867 57.856 120.435 58.304 118.515 58.304C118.515 58.624 118.611 59.008 118.803 59.456C119.059 59.904 119.347 60.16 119.667 60.224ZM129.555 58.112C129.107 58.112 128.563 58.208 127.923 58.4C127.283 58.528 126.963 58.656 126.963 58.784C126.963 58.976 127.251 59.072 127.827 59.072C128.275 59.072 128.819 59.008 129.459 58.88C130.163 58.752 130.611 58.656 130.803 58.592C130.419 58.272 130.003 58.112 129.555 58.112ZM129.459 60.992L131.667 61.088C131.859 61.088 132.115 60.928 132.435 60.608C132.755 60.288 132.915 59.936 132.915 59.552L129.459 60.992ZM153.171 64.736C154.003 64.352 154.963 63.648 156.051 62.624C157.203 61.6 157.779 60.736 157.779 60.032L157.683 59.744C156.147 60.704 154.291 61.6 152.115 62.432C149.939 63.2 148.659 63.584 148.275 63.584C147.571 64.288 146.259 65.024 144.339 65.792C143.635 66.048 142.931 66.368 142.227 66.752C141.523 67.136 140.883 67.584 140.307 68.096C140.371 68.16 140.499 68.224 140.691 68.288C140.883 68.416 141.043 68.48 141.171 68.48C141.491 68.48 142.227 68.32 143.379 68C145.043 67.488 146.195 67.232 146.835 67.232C146.963 67.296 149.075 66.464 153.171 64.736ZM120.915 61.472C121.235 61.984 121.651 62.368 122.163 62.624C122.739 62.816 123.411 62.976 124.179 63.104L129.171 60.224L128.595 60.032L120.915 61.472ZM124.659 63.584C124.659 63.776 125.139 64.032 126.099 64.352C127.059 64.608 127.763 64.736 128.211 64.736C128.595 64.608 129.331 64.352 130.419 63.968C131.507 63.52 132.531 63.04 133.491 62.528C134.515 61.952 135.027 61.472 135.027 61.088C133.491 61.984 131.155 62.624 128.019 63.008C127.635 63.072 127.091 63.168 126.387 63.296C125.683 63.36 125.107 63.456 124.659 63.584ZM130.035 65.6C130.035 65.856 130.259 65.984 130.707 65.984C131.283 65.984 132.179 65.696 133.395 65.12C134.675 64.48 135.507 64.096 135.891 63.968L130.035 65.6ZM133.683 67.232C134.963 67.552 136.147 67.712 137.235 67.712C137.555 67.712 138.483 67.36 140.019 66.656C141.555 65.952 142.771 65.312 143.667 64.736C143.731 64.736 143.795 64.704 143.859 64.64C143.923 64.512 143.987 64.448 144.051 64.448C142.451 64.448 140.691 64.704 138.771 65.216C136.915 65.728 135.219 66.4 133.683 67.232Z" fill="#FD7E7E"/>
<path d="M171.336 0.799995H193.032C198.536 0.799995 203.432 2.144 207.72 4.832C212.008 7.51999 215.368 11.392 217.8 16.448C220.232 21.504 221.448 27.488 221.448 34.4C221.448 41.312 220.232 47.296 217.8 52.352C215.368 57.408 212.008 61.28 207.72 63.968C203.432 66.656 198.536 68 193.032 68H171.336V0.799995ZM193.032 57.248C198.152 57.248 202.024 55.232 204.648 51.2C207.272 47.168 208.584 41.568 208.584 34.4C208.584 27.232 207.272 21.632 204.648 17.6C202.024 13.568 198.152 11.552 193.032 11.552H183.048V57.248H193.032ZM249.023 68.96C244.223 68.96 240.095 67.872 236.639 65.696C233.247 63.456 230.687 60.448 228.959 56.672C227.231 52.896 226.367 48.704 226.367 44.096C226.367 39.424 227.231 35.232 228.959 31.52C230.687 27.744 233.279 24.768 236.734 22.592C240.191 20.352 244.415 19.232 249.406 19.232C253.055 19.232 256.127 19.776 258.623 20.864L257.759 30.272C255.455 29.184 253.119 28.64 250.751 28.64C246.783 28.64 243.679 30.048 241.439 32.864C239.199 35.68 238.079 39.424 238.079 44.096C238.079 48.64 239.167 52.352 241.343 55.232C243.583 58.112 246.687 59.552 250.655 59.552C253.279 59.552 255.743 58.976 258.047 57.824L258.815 67.04C257.599 67.616 256.127 68.064 254.399 68.384C252.671 68.768 250.879 68.96 249.023 68.96Z" fill="#3A98EA"/>
</svg>
