<svg width="66" height="42" viewBox="0 0 66 42" fill="none" xmlns="http://www.w3.org/2000/svg">
<g id="Group">
<path id="Vector" d="M61.9417 41.2334H4.05827C1.82013 41.2334 0 39.4125 0 37.1751V17.0436C0 14.8055 1.82013 12.9854 4.05827 12.9854H6.85227C7.25707 12.9854 7.5856 13.3139 7.5856 13.7187C7.5856 14.1235 7.25707 14.452 6.85227 14.452H4.05827C2.629 14.452 1.46667 15.6151 1.46667 17.0436V37.1744C1.46667 38.6036 2.629 39.766 4.05827 39.766H61.9417C63.371 39.766 64.5333 38.6036 64.5333 37.1744V17.0436C64.5333 15.6144 63.371 14.452 61.9417 14.452H52.9452C52.5397 14.452 52.2119 14.1235 52.2119 13.7187C52.2119 13.3139 52.5397 12.9854 52.9452 12.9854H61.9417C64.1799 12.9854 66 14.8055 66 17.0436V37.1744C66 39.4125 64.1799 41.2334 61.9417 41.2334Z" fill="#1F1F1F"/>
<path id="Vector_2" d="M33.0001 6.38834C31.4505 6.38834 30.1892 5.12774 30.1892 3.57747C30.1892 2.0272 31.4498 0.766602 33.0001 0.766602C34.5503 0.766602 35.8109 2.0272 35.8109 3.57747C35.8109 5.127 34.5496 6.38834 33.0001 6.38834ZM33.0001 2.23327C32.2594 2.23327 31.6559 2.83607 31.6559 3.57747C31.6559 4.31814 32.2587 4.92167 33.0001 4.92167C33.7415 4.92167 34.3443 4.31887 34.3443 3.57747C34.3443 2.83607 33.7415 2.23327 33.0001 2.23327Z" fill="#1F1F1F"/>
<path id="Vector_3" d="M13.1634 14.452C12.8965 14.452 12.6398 14.3061 12.5093 14.0524C12.3252 13.6916 12.4682 13.2501 12.829 13.0653L30.825 3.86564C31.1865 3.6823 31.6273 3.82457 31.8121 4.18537C31.9961 4.54617 31.8531 4.98764 31.4923 5.17244L13.4963 14.3721C13.3893 14.4264 13.2756 14.452 13.1634 14.452Z" fill="#1F1F1F"/>
<path id="Vector_4" d="M52.9444 14.4518C52.8322 14.4518 52.7178 14.4262 52.6115 14.3719L34.5319 5.12898C34.1711 4.94491 34.0281 4.50271 34.2122 4.14191C34.3962 3.78111 34.8392 3.63885 35.1992 3.82218L53.2788 13.0651C53.6396 13.2492 53.7826 13.6914 53.5985 14.0522C53.4687 14.3066 53.2121 14.4518 52.9444 14.4518Z" fill="#1F1F1F"/>
<path id="Vector_5" d="M43.6802 14.452H13.1625C12.7577 14.452 12.4292 14.1235 12.4292 13.7187C12.4292 13.3139 12.7577 12.9854 13.1625 12.9854H43.6809C44.0865 12.9854 44.4143 13.3139 44.4143 13.7187C44.4143 14.1235 44.0857 14.452 43.6802 14.452Z" fill="#1F1F1F"/>
<g id="Group_2">
<path id="Vector_6" d="M15.098 35.1308H12.4785C10.431 35.1308 8.76489 33.4654 8.76489 31.4172V23.553C8.76489 21.5055 10.431 19.8394 12.4785 19.8394H15.098C17.1454 19.8394 18.8116 21.5055 18.8116 23.553V31.4165C18.8123 33.4647 17.1462 35.1308 15.098 35.1308ZM12.4792 21.306C11.2399 21.306 10.2323 22.3144 10.2323 23.553V31.4165C10.2323 32.6551 11.2406 33.6634 12.4792 33.6634H15.0987C16.338 33.6634 17.3456 32.6551 17.3456 31.4165V23.553C17.3456 22.3144 16.3373 21.306 15.0987 21.306H12.4792Z" fill="#1F1F1F"/>
<path id="Vector_7" d="M28.235 29.0596H23.175C22.7702 29.0596 22.4417 28.7318 22.4417 28.3262V20.5727C22.4417 20.1679 22.7702 19.8394 23.175 19.8394H28.235C30.1248 19.8394 31.6618 21.3764 31.6618 23.2662V25.6334C31.6618 27.5225 30.1248 29.0596 28.235 29.0596ZM23.9083 27.5929H28.235C29.3159 27.5929 30.1952 26.7136 30.1952 25.6327V23.2662C30.1952 22.1853 29.3159 21.306 28.235 21.306H23.9083V27.5929Z" fill="#1F1F1F"/>
<path id="Vector_8" d="M23.175 35.1307C22.7702 35.1307 22.4417 34.8029 22.4417 34.3974V28.3261C22.4417 27.9206 22.7702 27.5928 23.175 27.5928C23.5798 27.5928 23.9083 27.9206 23.9083 28.3261V34.3966C23.9083 34.8022 23.5798 35.1307 23.175 35.1307Z" fill="#1F1F1F"/>
<path id="Vector_9" d="M56.502 35.1308C56.257 35.1308 56.0231 35.0076 55.8852 34.7942L48.3429 23.0682V34.3968C48.3429 34.8023 48.0151 35.1301 47.6096 35.1301C47.204 35.1301 46.8762 34.8023 46.8762 34.3968V20.5727C46.8762 20.2471 47.0904 19.9611 47.4028 19.8694C47.7166 19.7785 48.0503 19.9024 48.2263 20.176L55.7686 31.9012V20.5727C55.7686 20.1679 56.0964 19.8394 56.502 19.8394C56.9075 19.8394 57.2353 20.1679 57.2353 20.5727V34.3975C57.2353 34.7224 57.0212 35.0091 56.7088 35.1008C56.6398 35.1213 56.5709 35.1308 56.502 35.1308Z" fill="#1F1F1F"/>
<path id="Vector_10" d="M42.301 35.1308H36.1733C35.7677 35.1308 35.4399 34.803 35.4399 34.3975V20.5727C35.4399 20.1679 35.7677 19.8394 36.1733 19.8394H42.301C42.7065 19.8394 43.0343 20.1679 43.0343 20.5727C43.0343 20.9775 42.7065 21.306 42.301 21.306H36.9066V33.6642H42.301C42.7065 33.6642 43.0343 33.992 43.0343 34.3975C43.0343 34.803 42.7058 35.1308 42.301 35.1308Z" fill="#1F1F1F"/>
<path id="Vector_11" d="M40.1809 28.2186H36.1725C35.767 28.2186 35.4392 27.8908 35.4392 27.4853C35.4392 27.0798 35.767 26.752 36.1725 26.752H40.1809C40.5865 26.752 40.9143 27.0798 40.9143 27.4853C40.9143 27.8908 40.5865 28.2186 40.1809 28.2186Z" fill="#1F1F1F"/>
</g>
</g>
</svg>
