<svg width="65" height="65" viewBox="0 0 65 65" fill="none" xmlns="http://www.w3.org/2000/svg">
<circle cx="32.5" cy="32.5" r="32.5" fill="#3A98EA"/>
<g clip-path="url(#clip0_1_17804)">
<path d="M27.175 43.5434C27.0873 43.5434 26.9984 43.5228 26.9156 43.4789C26.6445 43.335 26.5411 42.9989 26.685 42.7273L38.3345 20.7523C38.4784 20.4812 38.8145 20.3778 39.0862 20.5217C39.3567 20.665 39.4606 21.0017 39.3167 21.2728L27.6667 43.2484C27.5667 43.4356 27.3739 43.5434 27.175 43.5434Z" fill="#FEFEFE"/>
<path d="M27.1549 31.3984C25.1666 31.3984 23.5488 29.7806 23.5488 27.7917V24.0634C23.5488 22.0751 25.1666 20.4573 27.1549 20.4573C29.1433 20.4573 30.7616 22.0751 30.7616 24.0634V27.7917C30.761 29.7801 29.1433 31.3984 27.1549 31.3984ZM27.1549 21.5684C25.7794 21.5684 24.6599 22.6878 24.6599 24.0634V27.7917C24.6599 29.1678 25.7794 30.2867 27.1549 30.2867C28.531 30.2867 29.6499 29.1673 29.6499 27.7917V24.0634C29.6499 22.6873 28.5305 21.5684 27.1549 21.5684Z" fill="#FEFEFE"/>
<path d="M38.8434 43.5435C36.8551 43.5435 35.2373 41.9257 35.2373 39.9368V36.2085C35.2373 34.2196 36.8551 32.6018 38.8434 32.6018C40.8323 32.6018 42.4501 34.2196 42.4501 36.2085V39.9368C42.4501 41.9257 40.8323 43.5435 38.8434 43.5435ZM38.8434 33.7129C37.4679 33.7129 36.349 34.8324 36.349 36.2079V39.9363C36.349 41.3118 37.4679 42.4313 38.8434 42.4313C40.219 42.4313 41.3384 41.3118 41.3384 39.9363V36.2079C41.3384 34.8329 40.219 33.7129 38.8434 33.7129Z" fill="#FEFEFE"/>
<path d="M32.9999 57C31.7754 57.0006 30.551 56.5544 29.5971 55.6628C28.581 54.7139 27.1254 54.3817 25.7987 54.7956C23.3065 55.5756 20.6126 54.2772 19.6671 51.8428C19.1637 50.5467 17.9965 49.6161 16.621 49.4139C14.0371 49.0333 12.1732 46.6961 12.3776 44.0933C12.4865 42.7067 11.8387 41.3622 10.6871 40.5828C8.52485 39.1194 7.8593 36.2044 9.17263 33.9478C9.87208 32.7461 9.87208 31.2533 9.17263 30.0517C7.8593 27.795 8.5243 24.8806 10.6871 23.4167C11.8387 22.6372 12.4865 21.2922 12.3776 19.9061C12.1732 17.3028 14.0371 14.9656 16.621 14.5856C17.9965 14.3833 19.1632 13.4522 19.6671 12.1561C20.6132 9.72222 23.3065 8.42611 25.7987 9.20333C27.1249 9.61778 28.581 9.28556 29.5971 8.33667C31.5054 6.55444 34.496 6.55444 36.4026 8.33667C37.4193 9.28611 38.8754 9.61833 40.201 9.20333C42.6943 8.42611 45.3871 9.72278 46.3332 12.1567C46.836 13.4528 48.0037 14.3833 49.3793 14.5861C51.9626 14.9661 53.8265 17.3033 53.6226 19.9067C53.5137 21.2928 54.1615 22.6378 55.3132 23.4172C57.4754 24.8806 58.141 27.795 56.8271 30.0522C56.1282 31.2539 56.1282 32.7472 56.8271 33.9483C58.141 36.205 57.4754 39.12 55.3132 40.5833C54.1615 41.3628 53.5137 42.7072 53.6226 44.0939C53.826 46.6978 51.9626 49.035 49.3793 49.4144C48.0037 49.6167 46.8365 50.5478 46.3326 51.8433C45.3871 54.2772 42.6949 55.5756 40.2015 54.7961C38.8743 54.3828 37.4193 54.7144 36.4032 55.6633C35.4487 56.5544 34.2243 57 32.9999 57ZM26.9487 53.5094C28.1954 53.5094 29.4204 53.9767 30.356 54.8511C31.8387 56.2361 34.1621 56.2361 35.6443 54.8511C36.9515 53.6289 38.8254 53.2017 40.5326 53.7356C42.4732 54.3394 44.5626 53.3322 45.2965 51.4406C45.9449 49.7728 47.4471 48.575 49.2171 48.315C51.2243 48.02 52.6726 46.2033 52.5143 44.1806C52.3743 42.3961 53.2076 40.665 54.6899 39.6628C56.3704 38.5256 56.8871 36.2611 55.8665 34.5072C54.9671 32.9611 54.9671 31.0394 55.8665 29.4933C56.8871 27.7394 56.3704 25.475 54.6899 24.3378C53.2076 23.335 52.3743 21.6039 52.5143 19.82C52.6726 17.7972 51.2243 15.9811 49.2171 15.6856C47.4471 15.425 45.9443 14.2272 45.2965 12.5594C44.5621 10.6683 42.4732 9.66056 40.5326 10.265C38.8254 10.7978 36.9515 10.3706 35.6443 9.14944C34.1615 7.76389 31.8382 7.76444 30.356 9.14944C29.0482 10.3711 27.176 10.7983 25.4676 10.265C23.5304 9.65944 21.4376 10.6683 20.7032 12.5594C20.0554 14.2272 18.5532 15.425 16.7832 15.6856C14.7754 15.9811 13.3271 17.7972 13.4865 19.82C13.6265 21.6039 12.7926 23.335 11.311 24.3378C9.63041 25.475 9.11374 27.7394 10.1343 29.4933C11.0343 31.04 11.0343 32.9617 10.1343 34.5072C9.11374 36.2611 9.63097 38.5256 11.311 39.6628C12.7932 40.665 13.6265 42.3961 13.4865 44.1806C13.3276 46.2033 14.776 48.0194 16.7832 48.315C18.5532 48.575 20.0554 49.7733 20.7032 51.4406C21.4382 53.3322 23.5315 54.3383 25.4676 53.7356C25.9532 53.5833 26.4526 53.5094 26.9487 53.5094Z" fill="#FEFEFE"/>
<path d="M32.9998 50.6151C28.3837 50.6151 23.9559 48.9134 20.532 45.8229C20.3042 45.6173 20.2864 45.2662 20.492 45.0384C20.6975 44.8106 21.0481 44.7923 21.2764 44.9984C24.4959 47.904 28.6592 49.504 32.9998 49.504C42.6514 49.504 50.5037 41.6517 50.5037 32.0001C50.5037 22.3484 42.6514 14.4962 32.9998 14.4962C23.3481 14.4962 15.4959 22.3484 15.4959 32.0001C15.4959 34.3895 15.9687 36.7056 16.9009 38.8829C17.0214 39.1651 16.8909 39.4917 16.6087 39.6123C16.3264 39.7345 16.0003 39.6017 15.8792 39.3201C14.8875 37.0034 14.3848 34.5406 14.3848 31.9995C14.3848 21.7351 22.7353 13.3845 32.9998 13.3845C43.2642 13.3845 51.6148 21.7351 51.6148 31.9995C51.6153 42.2645 43.2642 50.6151 32.9998 50.6151Z" fill="#FEFEFE"/>
</g>
<defs>
<clipPath id="clip0_1_17804">
<rect width="50" height="50" fill="white" transform="translate(8 7)"/>
</clipPath>
</defs>
</svg>
