<svg width="32" height="32" viewBox="0 0 32 32" fill="none" xmlns="http://www.w3.org/2000/svg">
<path fill-rule="evenodd" clip-rule="evenodd" d="M10.2942 9.28862L1.40383 10.8971L1.27676 10.925C0.0317857 11.2492 -0.436881 12.8846 0.479838 13.871L6.76804 20.6375L5.48402 29.9773L5.47048 30.1081C5.37744 31.4486 6.72149 32.4228 7.90306 31.8152L16 27.6511L24.0969 31.8152L24.2117 31.8691C25.4021 32.3759 26.7034 31.3402 26.516 29.9773L25.2311 20.6375L31.5202 13.871L31.6072 13.7702C32.4323 12.7428 31.8922 11.1316 30.5962 10.8971L21.705 9.28862L17.495 0.942844C16.8608 -0.314281 15.1392 -0.314281 14.505 0.942844L10.2942 9.28862Z" fill="#FFE000"/>
</svg>
