<svg width="28" height="28" viewBox="0 0 28 28" fill="none" xmlns="http://www.w3.org/2000/svg">
<path fill-rule="evenodd" clip-rule="evenodd" d="M20.8823 18.5032L23.8305 21.4505C24.5283 22.1481 24.5283 23.2792 23.8305 23.9768C23.1327 24.6744 22.0013 24.6744 21.3035 23.9768L18.3553 21.0295C18.1227 20.797 18.1227 20.4199 18.3553 20.1874L20.04 18.5032C20.2726 18.2707 20.6497 18.2707 20.8823 18.5032ZM12.5798 3.5C17.5141 3.5 21.5141 7.49884 21.5141 12.4317C21.5141 17.3645 17.5141 21.3633 12.5798 21.3633C7.64552 21.3633 3.64551 17.3645 3.64551 12.4317C3.64551 7.49884 7.64552 3.5 12.5798 3.5ZM12.5798 5.88178C8.96133 5.88178 6.02798 8.81426 6.02798 12.4317C6.02798 16.0491 8.96133 18.9816 12.5798 18.9816C16.1983 18.9816 19.1316 16.0491 19.1316 12.4317C19.1316 8.81426 16.1983 5.88178 12.5798 5.88178ZM14.7476 6.88422C16.4498 7.54941 17.7617 8.96891 18.2866 10.7224C18.4752 11.3525 18.1172 12.0162 17.4869 12.2048C16.8853 12.3847 16.253 12.0668 16.0328 11.4895L16.0042 11.4053C15.6898 10.3552 14.9007 9.50132 13.8802 9.10255C13.2674 8.8631 12.9649 8.1724 13.2044 7.55982C13.4439 6.94725 14.1348 6.64477 14.7476 6.88422Z" fill="#BABABA"/>
</svg>
