<svg width="22" height="22" viewBox="0 0 22 22" fill="none" xmlns="http://www.w3.org/2000/svg">
<path fill-rule="evenodd" clip-rule="evenodd" d="M17.8823 15.5032L20.8305 18.4505C21.5283 19.1481 21.5283 20.2792 20.8305 20.9768C20.1327 21.6744 19.0013 21.6744 18.3035 20.9768L15.3553 18.0295C15.1227 17.797 15.1227 17.4199 15.3553 17.1874L17.04 15.5032C17.2726 15.2707 17.6497 15.2707 17.8823 15.5032ZM9.57979 0.5C14.5141 0.5 18.5141 4.49884 18.5141 9.43167C18.5141 14.3645 14.5141 18.3633 9.57979 18.3633C4.64552 18.3633 0.645508 14.3645 0.645508 9.43167C0.645508 4.49884 4.64552 0.5 9.57979 0.5ZM9.57979 2.88178C5.96133 2.88178 3.02798 5.81426 3.02798 9.43167C3.02798 13.0491 5.96133 15.9816 9.57979 15.9816C13.1983 15.9816 16.1316 13.0491 16.1316 9.43167C16.1316 5.81426 13.1983 2.88178 9.57979 2.88178ZM11.7476 3.88422C13.4498 4.54941 14.7617 5.96891 15.2866 7.72244C15.4752 8.35255 15.1172 9.0162 14.4869 9.20476C13.8853 9.38474 13.253 9.06678 13.0328 8.48948L13.0042 8.40527C12.6898 7.3552 11.9007 6.50132 10.8802 6.10255C10.2674 5.8631 9.96486 5.1724 10.2044 4.55982C10.4439 3.94725 11.1348 3.64477 11.7476 3.88422Z" fill="#BABABA"/>
</svg>
